%TF.GenerationSoftware,KiCad,Pcbnew,8.0.4*%
%TF.CreationDate,2024-08-02T16:32:21-04:00*%
%TF.ProjectId,adcesp32,61646365-7370-4333-922e-6b696361645f,rev?*%
%TF.SameCoordinates,Original*%
%TF.FileFunction,Drillmap*%
%TF.FilePolarity,Positive*%
%FSLAX45Y45*%
G04 Gerber Fmt 4.5, Leading zero omitted, Abs format (unit mm)*
G04 Created by KiCad (PCBNEW 8.0.4) date 2024-08-02 16:32:21*
%MOMM*%
%LPD*%
G01*
G04 APERTURE LIST*
%ADD10C,0.050000*%
%ADD11C,0.200000*%
%ADD12C,0.100000*%
%ADD13C,0.110000*%
%ADD14C,0.120000*%
%ADD15C,0.250000*%
G04 APERTURE END LIST*
D10*
X21925000Y-9425000D02*
X21975000Y-9425000D01*
X21925000Y-9425000D01*
X19985000Y-5500000D02*
X23485000Y-5500000D01*
X23485000Y-12100000D01*
X19985000Y-12100000D01*
X19985000Y-5500000D01*
D11*
D12*
X21100000Y-7003000D02*
X21120000Y-7023000D01*
X21120000Y-7003000D02*
X21100000Y-7023000D01*
X21100000Y-7143000D02*
X21120000Y-7163000D01*
X21120000Y-7143000D02*
X21100000Y-7163000D01*
X21170000Y-6933000D02*
X21190000Y-6953000D01*
X21190000Y-6933000D02*
X21170000Y-6953000D01*
X21170000Y-7073000D02*
X21190000Y-7093000D01*
X21190000Y-7073000D02*
X21170000Y-7093000D01*
X21170000Y-7213000D02*
X21190000Y-7233000D01*
X21190000Y-7213000D02*
X21170000Y-7233000D01*
X21240000Y-7003000D02*
X21260000Y-7023000D01*
X21260000Y-7003000D02*
X21240000Y-7023000D01*
X21240000Y-7143000D02*
X21260000Y-7163000D01*
X21260000Y-7143000D02*
X21240000Y-7163000D01*
X21310000Y-6933000D02*
X21330000Y-6953000D01*
X21330000Y-6933000D02*
X21310000Y-6953000D01*
X21310000Y-7073000D02*
X21330000Y-7093000D01*
X21330000Y-7073000D02*
X21310000Y-7093000D01*
X21310000Y-7213000D02*
X21330000Y-7233000D01*
X21330000Y-7213000D02*
X21310000Y-7233000D01*
X21380000Y-7003000D02*
X21400000Y-7023000D01*
X21400000Y-7003000D02*
X21380000Y-7023000D01*
X21380000Y-7143000D02*
X21400000Y-7163000D01*
X21400000Y-7143000D02*
X21380000Y-7163000D01*
X20414820Y-7773340D02*
G75*
G02*
X20384820Y-7773340I-15000J0D01*
G01*
X20384820Y-7773340D02*
G75*
G02*
X20414820Y-7773340I15000J0D01*
G01*
X20434830Y-10222820D02*
G75*
G02*
X20404830Y-10222820I-15000J0D01*
G01*
X20404830Y-10222820D02*
G75*
G02*
X20434830Y-10222820I15000J0D01*
G01*
X20540000Y-10235160D02*
G75*
G02*
X20510000Y-10235160I-15000J0D01*
G01*
X20510000Y-10235160D02*
G75*
G02*
X20540000Y-10235160I15000J0D01*
G01*
X20666320Y-6708020D02*
G75*
G02*
X20636320Y-6708020I-15000J0D01*
G01*
X20636320Y-6708020D02*
G75*
G02*
X20666320Y-6708020I15000J0D01*
G01*
X20741880Y-7959960D02*
G75*
G02*
X20711880Y-7959960I-15000J0D01*
G01*
X20711880Y-7959960D02*
G75*
G02*
X20741880Y-7959960I15000J0D01*
G01*
X21145000Y-11356710D02*
G75*
G02*
X21115000Y-11356710I-15000J0D01*
G01*
X21115000Y-11356710D02*
G75*
G02*
X21145000Y-11356710I15000J0D01*
G01*
X21229040Y-10167990D02*
G75*
G02*
X21199040Y-10167990I-15000J0D01*
G01*
X21199040Y-10167990D02*
G75*
G02*
X21229040Y-10167990I15000J0D01*
G01*
X21328600Y-11297420D02*
G75*
G02*
X21298600Y-11297420I-15000J0D01*
G01*
X21298600Y-11297420D02*
G75*
G02*
X21328600Y-11297420I15000J0D01*
G01*
X21370270Y-10637260D02*
G75*
G02*
X21340270Y-10637260I-15000J0D01*
G01*
X21340270Y-10637260D02*
G75*
G02*
X21370270Y-10637260I15000J0D01*
G01*
X21384990Y-11110290D02*
G75*
G02*
X21354990Y-11110290I-15000J0D01*
G01*
X21354990Y-11110290D02*
G75*
G02*
X21384990Y-11110290I15000J0D01*
G01*
X21543080Y-9227510D02*
G75*
G02*
X21513080Y-9227510I-15000J0D01*
G01*
X21513080Y-9227510D02*
G75*
G02*
X21543080Y-9227510I15000J0D01*
G01*
X21635000Y-11357590D02*
G75*
G02*
X21605000Y-11357590I-15000J0D01*
G01*
X21605000Y-11357590D02*
G75*
G02*
X21635000Y-11357590I15000J0D01*
G01*
X21665000Y-9816220D02*
G75*
G02*
X21635000Y-9816220I-15000J0D01*
G01*
X21635000Y-9816220D02*
G75*
G02*
X21665000Y-9816220I15000J0D01*
G01*
X21671310Y-8729160D02*
G75*
G02*
X21641310Y-8729160I-15000J0D01*
G01*
X21641310Y-8729160D02*
G75*
G02*
X21671310Y-8729160I15000J0D01*
G01*
X21672430Y-8861160D02*
G75*
G02*
X21642430Y-8861160I-15000J0D01*
G01*
X21642430Y-8861160D02*
G75*
G02*
X21672430Y-8861160I15000J0D01*
G01*
X21705530Y-9228340D02*
G75*
G02*
X21675530Y-9228340I-15000J0D01*
G01*
X21675530Y-9228340D02*
G75*
G02*
X21705530Y-9228340I15000J0D01*
G01*
X21800760Y-9297960D02*
G75*
G02*
X21770760Y-9297960I-15000J0D01*
G01*
X21770760Y-9297960D02*
G75*
G02*
X21800760Y-9297960I15000J0D01*
G01*
X21815000Y-8976060D02*
G75*
G02*
X21785000Y-8976060I-15000J0D01*
G01*
X21785000Y-8976060D02*
G75*
G02*
X21815000Y-8976060I15000J0D01*
G01*
X21857370Y-9392590D02*
G75*
G02*
X21827370Y-9392590I-15000J0D01*
G01*
X21827370Y-9392590D02*
G75*
G02*
X21857370Y-9392590I15000J0D01*
G01*
X21987450Y-8908830D02*
G75*
G02*
X21957450Y-8908830I-15000J0D01*
G01*
X21957450Y-8908830D02*
G75*
G02*
X21987450Y-8908830I15000J0D01*
G01*
X21987970Y-8665520D02*
G75*
G02*
X21957970Y-8665520I-15000J0D01*
G01*
X21957970Y-8665520D02*
G75*
G02*
X21987970Y-8665520I15000J0D01*
G01*
X22080190Y-9134400D02*
G75*
G02*
X22050190Y-9134400I-15000J0D01*
G01*
X22050190Y-9134400D02*
G75*
G02*
X22080190Y-9134400I15000J0D01*
G01*
X22090000Y-11702720D02*
G75*
G02*
X22060000Y-11702720I-15000J0D01*
G01*
X22060000Y-11702720D02*
G75*
G02*
X22090000Y-11702720I15000J0D01*
G01*
X22124350Y-9012220D02*
G75*
G02*
X22094350Y-9012220I-15000J0D01*
G01*
X22094350Y-9012220D02*
G75*
G02*
X22124350Y-9012220I15000J0D01*
G01*
X22162890Y-7444510D02*
G75*
G02*
X22132890Y-7444510I-15000J0D01*
G01*
X22132890Y-7444510D02*
G75*
G02*
X22162890Y-7444510I15000J0D01*
G01*
X22231440Y-9607110D02*
G75*
G02*
X22201440Y-9607110I-15000J0D01*
G01*
X22201440Y-9607110D02*
G75*
G02*
X22231440Y-9607110I15000J0D01*
G01*
X22650580Y-9972400D02*
G75*
G02*
X22620580Y-9972400I-15000J0D01*
G01*
X22620580Y-9972400D02*
G75*
G02*
X22650580Y-9972400I15000J0D01*
G01*
X22150000Y-8400000D02*
X22150000Y-8450000D01*
X22125000Y-8425000D02*
X22175000Y-8425000D01*
X22150000Y-8500000D02*
X22150000Y-8550000D01*
X22125000Y-8525000D02*
X22175000Y-8525000D01*
X22150000Y-8600000D02*
X22150000Y-8650000D01*
X22125000Y-8625000D02*
X22175000Y-8625000D01*
X22150000Y-8700000D02*
X22150000Y-8750000D01*
X22125000Y-8725000D02*
X22175000Y-8725000D01*
X22825000Y-9575000D02*
X22825000Y-9625000D01*
X22800000Y-9600000D02*
X22850000Y-9600000D01*
X22850000Y-9875000D02*
X22850000Y-9925000D01*
X22825000Y-9900000D02*
X22875000Y-9900000D01*
X22925000Y-9575000D02*
X22925000Y-9625000D01*
X22900000Y-9600000D02*
X22950000Y-9600000D01*
X22950000Y-9875000D02*
X22950000Y-9925000D01*
X22925000Y-9900000D02*
X22975000Y-9900000D01*
X23025000Y-9575000D02*
X23025000Y-9625000D01*
X23000000Y-9600000D02*
X23050000Y-9600000D01*
X23050000Y-9875000D02*
X23050000Y-9925000D01*
X23025000Y-9900000D02*
X23075000Y-9900000D01*
X23125000Y-9575000D02*
X23125000Y-9625000D01*
X23100000Y-9600000D02*
X23150000Y-9600000D01*
X23150000Y-9875000D02*
X23150000Y-9925000D01*
X23125000Y-9900000D02*
X23175000Y-9900000D01*
X23150570Y-10304430D02*
X23150570Y-10354430D01*
X23125570Y-10329430D02*
X23175570Y-10329430D01*
X23150570Y-10404430D02*
X23150570Y-10454430D01*
X23125570Y-10429430D02*
X23175570Y-10429430D01*
X23150570Y-10504430D02*
X23150570Y-10554430D01*
X23125570Y-10529430D02*
X23175570Y-10529430D01*
X23150570Y-10604430D02*
X23150570Y-10654430D01*
X23125570Y-10629430D02*
X23175570Y-10629430D01*
X23150570Y-10704430D02*
X23150570Y-10754430D01*
X23125570Y-10729430D02*
X23175570Y-10729430D01*
X23150570Y-11104430D02*
X23150570Y-11154430D01*
X23125570Y-11129430D02*
X23175570Y-11129430D01*
X23150570Y-11204430D02*
X23150570Y-11254430D01*
X23125570Y-11229430D02*
X23175570Y-11229430D01*
X23150570Y-11304430D02*
X23150570Y-11354430D01*
X23125570Y-11329430D02*
X23175570Y-11329430D01*
X23150570Y-11404430D02*
X23150570Y-11454430D01*
X23125570Y-11429430D02*
X23175570Y-11429430D01*
X23225000Y-9575000D02*
X23225000Y-9625000D01*
X23200000Y-9600000D02*
X23250000Y-9600000D01*
X20964213Y-11593213D02*
X20964213Y-11550787D01*
X20921787Y-11550787D01*
X20921787Y-11593213D01*
X20964213Y-11593213D01*
X20913000Y-11517000D02*
X20913000Y-11627000D01*
X20973000Y-11627000D02*
G75*
G02*
X20913000Y-11627000I-30000J0D01*
G01*
X20973000Y-11627000D02*
X20973000Y-11517000D01*
X20973000Y-11517000D02*
G75*
G03*
X20913000Y-11517000I-30000J0D01*
G01*
X20964213Y-12011213D02*
X20964213Y-11968787D01*
X20921787Y-11968787D01*
X20921787Y-12011213D01*
X20964213Y-12011213D01*
X20913000Y-11960000D02*
X20913000Y-12020000D01*
X20973000Y-12020000D02*
G75*
G02*
X20913000Y-12020000I-30000J0D01*
G01*
X20973000Y-12020000D02*
X20973000Y-11960000D01*
X20973000Y-11960000D02*
G75*
G03*
X20913000Y-11960000I-30000J0D01*
G01*
X21828213Y-11593213D02*
X21828213Y-11550787D01*
X21785787Y-11550787D01*
X21785787Y-11593213D01*
X21828213Y-11593213D01*
X21777000Y-11517000D02*
X21777000Y-11627000D01*
X21837000Y-11627000D02*
G75*
G02*
X21777000Y-11627000I-30000J0D01*
G01*
X21837000Y-11627000D02*
X21837000Y-11517000D01*
X21837000Y-11517000D02*
G75*
G03*
X21777000Y-11517000I-30000J0D01*
G01*
X21828213Y-12011213D02*
X21828213Y-11968787D01*
X21785787Y-11968787D01*
X21785787Y-12011213D01*
X21828213Y-12011213D01*
X21777000Y-11960000D02*
X21777000Y-12020000D01*
X21837000Y-12020000D02*
G75*
G02*
X21777000Y-12020000I-30000J0D01*
G01*
X21837000Y-12020000D02*
X21837000Y-11960000D01*
X21837000Y-11960000D02*
G75*
G03*
X21777000Y-11960000I-30000J0D01*
G01*
D13*
X20150000Y-8700000D02*
X20205000Y-8645000D01*
X20150000Y-8590000D01*
X20095000Y-8645000D01*
X20150000Y-8700000D01*
X20150000Y-9630000D02*
X20205000Y-9575000D01*
X20150000Y-9520000D01*
X20095000Y-9575000D01*
X20150000Y-9630000D01*
X20650000Y-9540000D02*
X20705000Y-9485000D01*
X20650000Y-9430000D01*
X20595000Y-9485000D01*
X20650000Y-9540000D01*
X20960000Y-9020000D02*
X21015000Y-8965000D01*
X20960000Y-8910000D01*
X20905000Y-8965000D01*
X20960000Y-9020000D01*
D14*
X22540000Y-6590000D02*
X22660000Y-6710000D01*
X22660000Y-6590000D02*
X22540000Y-6710000D01*
X22660000Y-6650000D02*
G75*
G02*
X22540000Y-6650000I-60000J0D01*
G01*
X22540000Y-6650000D02*
G75*
G02*
X22660000Y-6650000I60000J0D01*
G01*
X22540000Y-7990000D02*
X22660000Y-8110000D01*
X22660000Y-7990000D02*
X22540000Y-8110000D01*
X22660000Y-8050000D02*
G75*
G02*
X22540000Y-8050000I-60000J0D01*
G01*
X22540000Y-8050000D02*
G75*
G02*
X22660000Y-8050000I60000J0D01*
G01*
D15*
X22950000Y-6925000D02*
X23200000Y-7175000D01*
X23200000Y-6925000D02*
X22950000Y-7175000D01*
X23075000Y-6925000D02*
X23075000Y-7175000D01*
X22950000Y-7050000D02*
X23200000Y-7050000D01*
X22950000Y-8325000D02*
X23200000Y-8575000D01*
X23200000Y-8325000D02*
X22950000Y-8575000D01*
X23075000Y-8325000D02*
X23075000Y-8575000D01*
X22950000Y-8450000D02*
X23200000Y-8450000D01*
D11*
X20243277Y-12413984D02*
X20243277Y-12213984D01*
X20243277Y-12213984D02*
X20290896Y-12213984D01*
X20290896Y-12213984D02*
X20319467Y-12223508D01*
X20319467Y-12223508D02*
X20338515Y-12242555D01*
X20338515Y-12242555D02*
X20348039Y-12261603D01*
X20348039Y-12261603D02*
X20357563Y-12299698D01*
X20357563Y-12299698D02*
X20357563Y-12328269D01*
X20357563Y-12328269D02*
X20348039Y-12366365D01*
X20348039Y-12366365D02*
X20338515Y-12385412D01*
X20338515Y-12385412D02*
X20319467Y-12404460D01*
X20319467Y-12404460D02*
X20290896Y-12413984D01*
X20290896Y-12413984D02*
X20243277Y-12413984D01*
X20443277Y-12413984D02*
X20443277Y-12280650D01*
X20443277Y-12318746D02*
X20452801Y-12299698D01*
X20452801Y-12299698D02*
X20462324Y-12290174D01*
X20462324Y-12290174D02*
X20481372Y-12280650D01*
X20481372Y-12280650D02*
X20500420Y-12280650D01*
X20567086Y-12413984D02*
X20567086Y-12280650D01*
X20567086Y-12213984D02*
X20557563Y-12223508D01*
X20557563Y-12223508D02*
X20567086Y-12233031D01*
X20567086Y-12233031D02*
X20576610Y-12223508D01*
X20576610Y-12223508D02*
X20567086Y-12213984D01*
X20567086Y-12213984D02*
X20567086Y-12233031D01*
X20690896Y-12413984D02*
X20671848Y-12404460D01*
X20671848Y-12404460D02*
X20662324Y-12385412D01*
X20662324Y-12385412D02*
X20662324Y-12213984D01*
X20795658Y-12413984D02*
X20776610Y-12404460D01*
X20776610Y-12404460D02*
X20767086Y-12385412D01*
X20767086Y-12385412D02*
X20767086Y-12213984D01*
X21024229Y-12413984D02*
X21024229Y-12213984D01*
X21024229Y-12213984D02*
X21090896Y-12356841D01*
X21090896Y-12356841D02*
X21157563Y-12213984D01*
X21157563Y-12213984D02*
X21157563Y-12413984D01*
X21338515Y-12413984D02*
X21338515Y-12309222D01*
X21338515Y-12309222D02*
X21328991Y-12290174D01*
X21328991Y-12290174D02*
X21309944Y-12280650D01*
X21309944Y-12280650D02*
X21271848Y-12280650D01*
X21271848Y-12280650D02*
X21252801Y-12290174D01*
X21338515Y-12404460D02*
X21319467Y-12413984D01*
X21319467Y-12413984D02*
X21271848Y-12413984D01*
X21271848Y-12413984D02*
X21252801Y-12404460D01*
X21252801Y-12404460D02*
X21243277Y-12385412D01*
X21243277Y-12385412D02*
X21243277Y-12366365D01*
X21243277Y-12366365D02*
X21252801Y-12347317D01*
X21252801Y-12347317D02*
X21271848Y-12337793D01*
X21271848Y-12337793D02*
X21319467Y-12337793D01*
X21319467Y-12337793D02*
X21338515Y-12328269D01*
X21433753Y-12280650D02*
X21433753Y-12480650D01*
X21433753Y-12290174D02*
X21452801Y-12280650D01*
X21452801Y-12280650D02*
X21490896Y-12280650D01*
X21490896Y-12280650D02*
X21509944Y-12290174D01*
X21509944Y-12290174D02*
X21519467Y-12299698D01*
X21519467Y-12299698D02*
X21528991Y-12318746D01*
X21528991Y-12318746D02*
X21528991Y-12375888D01*
X21528991Y-12375888D02*
X21519467Y-12394936D01*
X21519467Y-12394936D02*
X21509944Y-12404460D01*
X21509944Y-12404460D02*
X21490896Y-12413984D01*
X21490896Y-12413984D02*
X21452801Y-12413984D01*
X21452801Y-12413984D02*
X21433753Y-12404460D01*
X21614705Y-12394936D02*
X21624229Y-12404460D01*
X21624229Y-12404460D02*
X21614705Y-12413984D01*
X21614705Y-12413984D02*
X21605182Y-12404460D01*
X21605182Y-12404460D02*
X21614705Y-12394936D01*
X21614705Y-12394936D02*
X21614705Y-12413984D01*
X21614705Y-12290174D02*
X21624229Y-12299698D01*
X21624229Y-12299698D02*
X21614705Y-12309222D01*
X21614705Y-12309222D02*
X21605182Y-12299698D01*
X21605182Y-12299698D02*
X21614705Y-12290174D01*
X21614705Y-12290174D02*
X21614705Y-12309222D01*
D12*
X19962500Y-12732500D02*
X19982500Y-12752500D01*
X19982500Y-12732500D02*
X19962500Y-12752500D01*
D11*
X20281372Y-12633984D02*
X20300420Y-12633984D01*
X20300420Y-12633984D02*
X20319467Y-12643508D01*
X20319467Y-12643508D02*
X20328991Y-12653031D01*
X20328991Y-12653031D02*
X20338515Y-12672079D01*
X20338515Y-12672079D02*
X20348039Y-12710174D01*
X20348039Y-12710174D02*
X20348039Y-12757793D01*
X20348039Y-12757793D02*
X20338515Y-12795888D01*
X20338515Y-12795888D02*
X20328991Y-12814936D01*
X20328991Y-12814936D02*
X20319467Y-12824460D01*
X20319467Y-12824460D02*
X20300420Y-12833984D01*
X20300420Y-12833984D02*
X20281372Y-12833984D01*
X20281372Y-12833984D02*
X20262324Y-12824460D01*
X20262324Y-12824460D02*
X20252801Y-12814936D01*
X20252801Y-12814936D02*
X20243277Y-12795888D01*
X20243277Y-12795888D02*
X20233753Y-12757793D01*
X20233753Y-12757793D02*
X20233753Y-12710174D01*
X20233753Y-12710174D02*
X20243277Y-12672079D01*
X20243277Y-12672079D02*
X20252801Y-12653031D01*
X20252801Y-12653031D02*
X20262324Y-12643508D01*
X20262324Y-12643508D02*
X20281372Y-12633984D01*
X20433753Y-12814936D02*
X20443277Y-12824460D01*
X20443277Y-12824460D02*
X20433753Y-12833984D01*
X20433753Y-12833984D02*
X20424229Y-12824460D01*
X20424229Y-12824460D02*
X20433753Y-12814936D01*
X20433753Y-12814936D02*
X20433753Y-12833984D01*
X20519467Y-12653031D02*
X20528991Y-12643508D01*
X20528991Y-12643508D02*
X20548039Y-12633984D01*
X20548039Y-12633984D02*
X20595658Y-12633984D01*
X20595658Y-12633984D02*
X20614705Y-12643508D01*
X20614705Y-12643508D02*
X20624229Y-12653031D01*
X20624229Y-12653031D02*
X20633753Y-12672079D01*
X20633753Y-12672079D02*
X20633753Y-12691127D01*
X20633753Y-12691127D02*
X20624229Y-12719698D01*
X20624229Y-12719698D02*
X20509944Y-12833984D01*
X20509944Y-12833984D02*
X20633753Y-12833984D01*
X20757563Y-12633984D02*
X20776610Y-12633984D01*
X20776610Y-12633984D02*
X20795658Y-12643508D01*
X20795658Y-12643508D02*
X20805182Y-12653031D01*
X20805182Y-12653031D02*
X20814705Y-12672079D01*
X20814705Y-12672079D02*
X20824229Y-12710174D01*
X20824229Y-12710174D02*
X20824229Y-12757793D01*
X20824229Y-12757793D02*
X20814705Y-12795888D01*
X20814705Y-12795888D02*
X20805182Y-12814936D01*
X20805182Y-12814936D02*
X20795658Y-12824460D01*
X20795658Y-12824460D02*
X20776610Y-12833984D01*
X20776610Y-12833984D02*
X20757563Y-12833984D01*
X20757563Y-12833984D02*
X20738515Y-12824460D01*
X20738515Y-12824460D02*
X20728991Y-12814936D01*
X20728991Y-12814936D02*
X20719467Y-12795888D01*
X20719467Y-12795888D02*
X20709944Y-12757793D01*
X20709944Y-12757793D02*
X20709944Y-12710174D01*
X20709944Y-12710174D02*
X20719467Y-12672079D01*
X20719467Y-12672079D02*
X20728991Y-12653031D01*
X20728991Y-12653031D02*
X20738515Y-12643508D01*
X20738515Y-12643508D02*
X20757563Y-12633984D01*
X20948039Y-12633984D02*
X20967086Y-12633984D01*
X20967086Y-12633984D02*
X20986134Y-12643508D01*
X20986134Y-12643508D02*
X20995658Y-12653031D01*
X20995658Y-12653031D02*
X21005182Y-12672079D01*
X21005182Y-12672079D02*
X21014705Y-12710174D01*
X21014705Y-12710174D02*
X21014705Y-12757793D01*
X21014705Y-12757793D02*
X21005182Y-12795888D01*
X21005182Y-12795888D02*
X20995658Y-12814936D01*
X20995658Y-12814936D02*
X20986134Y-12824460D01*
X20986134Y-12824460D02*
X20967086Y-12833984D01*
X20967086Y-12833984D02*
X20948039Y-12833984D01*
X20948039Y-12833984D02*
X20928991Y-12824460D01*
X20928991Y-12824460D02*
X20919467Y-12814936D01*
X20919467Y-12814936D02*
X20909944Y-12795888D01*
X20909944Y-12795888D02*
X20900420Y-12757793D01*
X20900420Y-12757793D02*
X20900420Y-12710174D01*
X20900420Y-12710174D02*
X20909944Y-12672079D01*
X20909944Y-12672079D02*
X20919467Y-12653031D01*
X20919467Y-12653031D02*
X20928991Y-12643508D01*
X20928991Y-12643508D02*
X20948039Y-12633984D01*
X21100420Y-12833984D02*
X21100420Y-12700650D01*
X21100420Y-12719698D02*
X21109944Y-12710174D01*
X21109944Y-12710174D02*
X21128991Y-12700650D01*
X21128991Y-12700650D02*
X21157563Y-12700650D01*
X21157563Y-12700650D02*
X21176610Y-12710174D01*
X21176610Y-12710174D02*
X21186134Y-12729222D01*
X21186134Y-12729222D02*
X21186134Y-12833984D01*
X21186134Y-12729222D02*
X21195658Y-12710174D01*
X21195658Y-12710174D02*
X21214705Y-12700650D01*
X21214705Y-12700650D02*
X21243277Y-12700650D01*
X21243277Y-12700650D02*
X21262325Y-12710174D01*
X21262325Y-12710174D02*
X21271848Y-12729222D01*
X21271848Y-12729222D02*
X21271848Y-12833984D01*
X21367086Y-12833984D02*
X21367086Y-12700650D01*
X21367086Y-12719698D02*
X21376610Y-12710174D01*
X21376610Y-12710174D02*
X21395658Y-12700650D01*
X21395658Y-12700650D02*
X21424229Y-12700650D01*
X21424229Y-12700650D02*
X21443277Y-12710174D01*
X21443277Y-12710174D02*
X21452801Y-12729222D01*
X21452801Y-12729222D02*
X21452801Y-12833984D01*
X21452801Y-12729222D02*
X21462325Y-12710174D01*
X21462325Y-12710174D02*
X21481372Y-12700650D01*
X21481372Y-12700650D02*
X21509944Y-12700650D01*
X21509944Y-12700650D02*
X21528991Y-12710174D01*
X21528991Y-12710174D02*
X21538515Y-12729222D01*
X21538515Y-12729222D02*
X21538515Y-12833984D01*
X21928991Y-12624460D02*
X21757563Y-12881603D01*
X22186134Y-12633984D02*
X22205182Y-12633984D01*
X22205182Y-12633984D02*
X22224229Y-12643508D01*
X22224229Y-12643508D02*
X22233753Y-12653031D01*
X22233753Y-12653031D02*
X22243277Y-12672079D01*
X22243277Y-12672079D02*
X22252801Y-12710174D01*
X22252801Y-12710174D02*
X22252801Y-12757793D01*
X22252801Y-12757793D02*
X22243277Y-12795888D01*
X22243277Y-12795888D02*
X22233753Y-12814936D01*
X22233753Y-12814936D02*
X22224229Y-12824460D01*
X22224229Y-12824460D02*
X22205182Y-12833984D01*
X22205182Y-12833984D02*
X22186134Y-12833984D01*
X22186134Y-12833984D02*
X22167087Y-12824460D01*
X22167087Y-12824460D02*
X22157563Y-12814936D01*
X22157563Y-12814936D02*
X22148039Y-12795888D01*
X22148039Y-12795888D02*
X22138515Y-12757793D01*
X22138515Y-12757793D02*
X22138515Y-12710174D01*
X22138515Y-12710174D02*
X22148039Y-12672079D01*
X22148039Y-12672079D02*
X22157563Y-12653031D01*
X22157563Y-12653031D02*
X22167087Y-12643508D01*
X22167087Y-12643508D02*
X22186134Y-12633984D01*
X22338515Y-12814936D02*
X22348039Y-12824460D01*
X22348039Y-12824460D02*
X22338515Y-12833984D01*
X22338515Y-12833984D02*
X22328991Y-12824460D01*
X22328991Y-12824460D02*
X22338515Y-12814936D01*
X22338515Y-12814936D02*
X22338515Y-12833984D01*
X22471848Y-12633984D02*
X22490896Y-12633984D01*
X22490896Y-12633984D02*
X22509944Y-12643508D01*
X22509944Y-12643508D02*
X22519467Y-12653031D01*
X22519467Y-12653031D02*
X22528991Y-12672079D01*
X22528991Y-12672079D02*
X22538515Y-12710174D01*
X22538515Y-12710174D02*
X22538515Y-12757793D01*
X22538515Y-12757793D02*
X22528991Y-12795888D01*
X22528991Y-12795888D02*
X22519467Y-12814936D01*
X22519467Y-12814936D02*
X22509944Y-12824460D01*
X22509944Y-12824460D02*
X22490896Y-12833984D01*
X22490896Y-12833984D02*
X22471848Y-12833984D01*
X22471848Y-12833984D02*
X22452801Y-12824460D01*
X22452801Y-12824460D02*
X22443277Y-12814936D01*
X22443277Y-12814936D02*
X22433753Y-12795888D01*
X22433753Y-12795888D02*
X22424229Y-12757793D01*
X22424229Y-12757793D02*
X22424229Y-12710174D01*
X22424229Y-12710174D02*
X22433753Y-12672079D01*
X22433753Y-12672079D02*
X22443277Y-12653031D01*
X22443277Y-12653031D02*
X22452801Y-12643508D01*
X22452801Y-12643508D02*
X22471848Y-12633984D01*
X22662325Y-12633984D02*
X22681372Y-12633984D01*
X22681372Y-12633984D02*
X22700420Y-12643508D01*
X22700420Y-12643508D02*
X22709944Y-12653031D01*
X22709944Y-12653031D02*
X22719467Y-12672079D01*
X22719467Y-12672079D02*
X22728991Y-12710174D01*
X22728991Y-12710174D02*
X22728991Y-12757793D01*
X22728991Y-12757793D02*
X22719467Y-12795888D01*
X22719467Y-12795888D02*
X22709944Y-12814936D01*
X22709944Y-12814936D02*
X22700420Y-12824460D01*
X22700420Y-12824460D02*
X22681372Y-12833984D01*
X22681372Y-12833984D02*
X22662325Y-12833984D01*
X22662325Y-12833984D02*
X22643277Y-12824460D01*
X22643277Y-12824460D02*
X22633753Y-12814936D01*
X22633753Y-12814936D02*
X22624229Y-12795888D01*
X22624229Y-12795888D02*
X22614706Y-12757793D01*
X22614706Y-12757793D02*
X22614706Y-12710174D01*
X22614706Y-12710174D02*
X22624229Y-12672079D01*
X22624229Y-12672079D02*
X22633753Y-12653031D01*
X22633753Y-12653031D02*
X22643277Y-12643508D01*
X22643277Y-12643508D02*
X22662325Y-12633984D01*
X22795658Y-12633984D02*
X22928991Y-12633984D01*
X22928991Y-12633984D02*
X22843277Y-12833984D01*
X23014706Y-12833984D02*
X23052801Y-12833984D01*
X23052801Y-12833984D02*
X23071848Y-12824460D01*
X23071848Y-12824460D02*
X23081372Y-12814936D01*
X23081372Y-12814936D02*
X23100420Y-12786365D01*
X23100420Y-12786365D02*
X23109944Y-12748269D01*
X23109944Y-12748269D02*
X23109944Y-12672079D01*
X23109944Y-12672079D02*
X23100420Y-12653031D01*
X23100420Y-12653031D02*
X23090896Y-12643508D01*
X23090896Y-12643508D02*
X23071848Y-12633984D01*
X23071848Y-12633984D02*
X23033753Y-12633984D01*
X23033753Y-12633984D02*
X23014706Y-12643508D01*
X23014706Y-12643508D02*
X23005182Y-12653031D01*
X23005182Y-12653031D02*
X22995658Y-12672079D01*
X22995658Y-12672079D02*
X22995658Y-12719698D01*
X22995658Y-12719698D02*
X23005182Y-12738746D01*
X23005182Y-12738746D02*
X23014706Y-12748269D01*
X23014706Y-12748269D02*
X23033753Y-12757793D01*
X23033753Y-12757793D02*
X23071848Y-12757793D01*
X23071848Y-12757793D02*
X23090896Y-12748269D01*
X23090896Y-12748269D02*
X23100420Y-12738746D01*
X23100420Y-12738746D02*
X23109944Y-12719698D01*
X23186134Y-12633984D02*
X23186134Y-12672079D01*
X23262325Y-12633984D02*
X23262325Y-12672079D01*
X23557563Y-12910174D02*
X23548039Y-12900650D01*
X23548039Y-12900650D02*
X23528991Y-12872079D01*
X23528991Y-12872079D02*
X23519468Y-12853031D01*
X23519468Y-12853031D02*
X23509944Y-12824460D01*
X23509944Y-12824460D02*
X23500420Y-12776841D01*
X23500420Y-12776841D02*
X23500420Y-12738746D01*
X23500420Y-12738746D02*
X23509944Y-12691127D01*
X23509944Y-12691127D02*
X23519468Y-12662555D01*
X23519468Y-12662555D02*
X23528991Y-12643508D01*
X23528991Y-12643508D02*
X23548039Y-12614936D01*
X23548039Y-12614936D02*
X23557563Y-12605412D01*
X23738515Y-12833984D02*
X23624229Y-12833984D01*
X23681372Y-12833984D02*
X23681372Y-12633984D01*
X23681372Y-12633984D02*
X23662325Y-12662555D01*
X23662325Y-12662555D02*
X23643277Y-12681603D01*
X23643277Y-12681603D02*
X23624229Y-12691127D01*
X23814706Y-12653031D02*
X23824229Y-12643508D01*
X23824229Y-12643508D02*
X23843277Y-12633984D01*
X23843277Y-12633984D02*
X23890896Y-12633984D01*
X23890896Y-12633984D02*
X23909944Y-12643508D01*
X23909944Y-12643508D02*
X23919468Y-12653031D01*
X23919468Y-12653031D02*
X23928991Y-12672079D01*
X23928991Y-12672079D02*
X23928991Y-12691127D01*
X23928991Y-12691127D02*
X23919468Y-12719698D01*
X23919468Y-12719698D02*
X23805182Y-12833984D01*
X23805182Y-12833984D02*
X23928991Y-12833984D01*
X24167087Y-12833984D02*
X24167087Y-12633984D01*
X24252801Y-12833984D02*
X24252801Y-12729222D01*
X24252801Y-12729222D02*
X24243277Y-12710174D01*
X24243277Y-12710174D02*
X24224230Y-12700650D01*
X24224230Y-12700650D02*
X24195658Y-12700650D01*
X24195658Y-12700650D02*
X24176610Y-12710174D01*
X24176610Y-12710174D02*
X24167087Y-12719698D01*
X24376610Y-12833984D02*
X24357563Y-12824460D01*
X24357563Y-12824460D02*
X24348039Y-12814936D01*
X24348039Y-12814936D02*
X24338515Y-12795888D01*
X24338515Y-12795888D02*
X24338515Y-12738746D01*
X24338515Y-12738746D02*
X24348039Y-12719698D01*
X24348039Y-12719698D02*
X24357563Y-12710174D01*
X24357563Y-12710174D02*
X24376610Y-12700650D01*
X24376610Y-12700650D02*
X24405182Y-12700650D01*
X24405182Y-12700650D02*
X24424230Y-12710174D01*
X24424230Y-12710174D02*
X24433753Y-12719698D01*
X24433753Y-12719698D02*
X24443277Y-12738746D01*
X24443277Y-12738746D02*
X24443277Y-12795888D01*
X24443277Y-12795888D02*
X24433753Y-12814936D01*
X24433753Y-12814936D02*
X24424230Y-12824460D01*
X24424230Y-12824460D02*
X24405182Y-12833984D01*
X24405182Y-12833984D02*
X24376610Y-12833984D01*
X24557563Y-12833984D02*
X24538515Y-12824460D01*
X24538515Y-12824460D02*
X24528991Y-12805412D01*
X24528991Y-12805412D02*
X24528991Y-12633984D01*
X24709944Y-12824460D02*
X24690896Y-12833984D01*
X24690896Y-12833984D02*
X24652801Y-12833984D01*
X24652801Y-12833984D02*
X24633753Y-12824460D01*
X24633753Y-12824460D02*
X24624230Y-12805412D01*
X24624230Y-12805412D02*
X24624230Y-12729222D01*
X24624230Y-12729222D02*
X24633753Y-12710174D01*
X24633753Y-12710174D02*
X24652801Y-12700650D01*
X24652801Y-12700650D02*
X24690896Y-12700650D01*
X24690896Y-12700650D02*
X24709944Y-12710174D01*
X24709944Y-12710174D02*
X24719468Y-12729222D01*
X24719468Y-12729222D02*
X24719468Y-12748269D01*
X24719468Y-12748269D02*
X24624230Y-12767317D01*
X24795658Y-12824460D02*
X24814706Y-12833984D01*
X24814706Y-12833984D02*
X24852801Y-12833984D01*
X24852801Y-12833984D02*
X24871849Y-12824460D01*
X24871849Y-12824460D02*
X24881372Y-12805412D01*
X24881372Y-12805412D02*
X24881372Y-12795888D01*
X24881372Y-12795888D02*
X24871849Y-12776841D01*
X24871849Y-12776841D02*
X24852801Y-12767317D01*
X24852801Y-12767317D02*
X24824230Y-12767317D01*
X24824230Y-12767317D02*
X24805182Y-12757793D01*
X24805182Y-12757793D02*
X24795658Y-12738746D01*
X24795658Y-12738746D02*
X24795658Y-12729222D01*
X24795658Y-12729222D02*
X24805182Y-12710174D01*
X24805182Y-12710174D02*
X24824230Y-12700650D01*
X24824230Y-12700650D02*
X24852801Y-12700650D01*
X24852801Y-12700650D02*
X24871849Y-12710174D01*
X24948039Y-12910174D02*
X24957563Y-12900650D01*
X24957563Y-12900650D02*
X24976611Y-12872079D01*
X24976611Y-12872079D02*
X24986134Y-12853031D01*
X24986134Y-12853031D02*
X24995658Y-12824460D01*
X24995658Y-12824460D02*
X25005182Y-12776841D01*
X25005182Y-12776841D02*
X25005182Y-12738746D01*
X25005182Y-12738746D02*
X24995658Y-12691127D01*
X24995658Y-12691127D02*
X24986134Y-12662555D01*
X24986134Y-12662555D02*
X24976611Y-12643508D01*
X24976611Y-12643508D02*
X24957563Y-12614936D01*
X24957563Y-12614936D02*
X24948039Y-12605412D01*
D12*
X19982500Y-13006500D02*
G75*
G02*
X19952500Y-13006500I-15000J0D01*
G01*
X19952500Y-13006500D02*
G75*
G02*
X19982500Y-13006500I15000J0D01*
G01*
D11*
X20281372Y-12897984D02*
X20300420Y-12897984D01*
X20300420Y-12897984D02*
X20319467Y-12907508D01*
X20319467Y-12907508D02*
X20328991Y-12917031D01*
X20328991Y-12917031D02*
X20338515Y-12936079D01*
X20338515Y-12936079D02*
X20348039Y-12974174D01*
X20348039Y-12974174D02*
X20348039Y-13021793D01*
X20348039Y-13021793D02*
X20338515Y-13059888D01*
X20338515Y-13059888D02*
X20328991Y-13078936D01*
X20328991Y-13078936D02*
X20319467Y-13088460D01*
X20319467Y-13088460D02*
X20300420Y-13097984D01*
X20300420Y-13097984D02*
X20281372Y-13097984D01*
X20281372Y-13097984D02*
X20262324Y-13088460D01*
X20262324Y-13088460D02*
X20252801Y-13078936D01*
X20252801Y-13078936D02*
X20243277Y-13059888D01*
X20243277Y-13059888D02*
X20233753Y-13021793D01*
X20233753Y-13021793D02*
X20233753Y-12974174D01*
X20233753Y-12974174D02*
X20243277Y-12936079D01*
X20243277Y-12936079D02*
X20252801Y-12917031D01*
X20252801Y-12917031D02*
X20262324Y-12907508D01*
X20262324Y-12907508D02*
X20281372Y-12897984D01*
X20433753Y-13078936D02*
X20443277Y-13088460D01*
X20443277Y-13088460D02*
X20433753Y-13097984D01*
X20433753Y-13097984D02*
X20424229Y-13088460D01*
X20424229Y-13088460D02*
X20433753Y-13078936D01*
X20433753Y-13078936D02*
X20433753Y-13097984D01*
X20509944Y-12897984D02*
X20633753Y-12897984D01*
X20633753Y-12897984D02*
X20567086Y-12974174D01*
X20567086Y-12974174D02*
X20595658Y-12974174D01*
X20595658Y-12974174D02*
X20614705Y-12983698D01*
X20614705Y-12983698D02*
X20624229Y-12993222D01*
X20624229Y-12993222D02*
X20633753Y-13012269D01*
X20633753Y-13012269D02*
X20633753Y-13059888D01*
X20633753Y-13059888D02*
X20624229Y-13078936D01*
X20624229Y-13078936D02*
X20614705Y-13088460D01*
X20614705Y-13088460D02*
X20595658Y-13097984D01*
X20595658Y-13097984D02*
X20538515Y-13097984D01*
X20538515Y-13097984D02*
X20519467Y-13088460D01*
X20519467Y-13088460D02*
X20509944Y-13078936D01*
X20757563Y-12897984D02*
X20776610Y-12897984D01*
X20776610Y-12897984D02*
X20795658Y-12907508D01*
X20795658Y-12907508D02*
X20805182Y-12917031D01*
X20805182Y-12917031D02*
X20814705Y-12936079D01*
X20814705Y-12936079D02*
X20824229Y-12974174D01*
X20824229Y-12974174D02*
X20824229Y-13021793D01*
X20824229Y-13021793D02*
X20814705Y-13059888D01*
X20814705Y-13059888D02*
X20805182Y-13078936D01*
X20805182Y-13078936D02*
X20795658Y-13088460D01*
X20795658Y-13088460D02*
X20776610Y-13097984D01*
X20776610Y-13097984D02*
X20757563Y-13097984D01*
X20757563Y-13097984D02*
X20738515Y-13088460D01*
X20738515Y-13088460D02*
X20728991Y-13078936D01*
X20728991Y-13078936D02*
X20719467Y-13059888D01*
X20719467Y-13059888D02*
X20709944Y-13021793D01*
X20709944Y-13021793D02*
X20709944Y-12974174D01*
X20709944Y-12974174D02*
X20719467Y-12936079D01*
X20719467Y-12936079D02*
X20728991Y-12917031D01*
X20728991Y-12917031D02*
X20738515Y-12907508D01*
X20738515Y-12907508D02*
X20757563Y-12897984D01*
X20948039Y-12897984D02*
X20967086Y-12897984D01*
X20967086Y-12897984D02*
X20986134Y-12907508D01*
X20986134Y-12907508D02*
X20995658Y-12917031D01*
X20995658Y-12917031D02*
X21005182Y-12936079D01*
X21005182Y-12936079D02*
X21014705Y-12974174D01*
X21014705Y-12974174D02*
X21014705Y-13021793D01*
X21014705Y-13021793D02*
X21005182Y-13059888D01*
X21005182Y-13059888D02*
X20995658Y-13078936D01*
X20995658Y-13078936D02*
X20986134Y-13088460D01*
X20986134Y-13088460D02*
X20967086Y-13097984D01*
X20967086Y-13097984D02*
X20948039Y-13097984D01*
X20948039Y-13097984D02*
X20928991Y-13088460D01*
X20928991Y-13088460D02*
X20919467Y-13078936D01*
X20919467Y-13078936D02*
X20909944Y-13059888D01*
X20909944Y-13059888D02*
X20900420Y-13021793D01*
X20900420Y-13021793D02*
X20900420Y-12974174D01*
X20900420Y-12974174D02*
X20909944Y-12936079D01*
X20909944Y-12936079D02*
X20919467Y-12917031D01*
X20919467Y-12917031D02*
X20928991Y-12907508D01*
X20928991Y-12907508D02*
X20948039Y-12897984D01*
X21100420Y-13097984D02*
X21100420Y-12964650D01*
X21100420Y-12983698D02*
X21109944Y-12974174D01*
X21109944Y-12974174D02*
X21128991Y-12964650D01*
X21128991Y-12964650D02*
X21157563Y-12964650D01*
X21157563Y-12964650D02*
X21176610Y-12974174D01*
X21176610Y-12974174D02*
X21186134Y-12993222D01*
X21186134Y-12993222D02*
X21186134Y-13097984D01*
X21186134Y-12993222D02*
X21195658Y-12974174D01*
X21195658Y-12974174D02*
X21214705Y-12964650D01*
X21214705Y-12964650D02*
X21243277Y-12964650D01*
X21243277Y-12964650D02*
X21262325Y-12974174D01*
X21262325Y-12974174D02*
X21271848Y-12993222D01*
X21271848Y-12993222D02*
X21271848Y-13097984D01*
X21367086Y-13097984D02*
X21367086Y-12964650D01*
X21367086Y-12983698D02*
X21376610Y-12974174D01*
X21376610Y-12974174D02*
X21395658Y-12964650D01*
X21395658Y-12964650D02*
X21424229Y-12964650D01*
X21424229Y-12964650D02*
X21443277Y-12974174D01*
X21443277Y-12974174D02*
X21452801Y-12993222D01*
X21452801Y-12993222D02*
X21452801Y-13097984D01*
X21452801Y-12993222D02*
X21462325Y-12974174D01*
X21462325Y-12974174D02*
X21481372Y-12964650D01*
X21481372Y-12964650D02*
X21509944Y-12964650D01*
X21509944Y-12964650D02*
X21528991Y-12974174D01*
X21528991Y-12974174D02*
X21538515Y-12993222D01*
X21538515Y-12993222D02*
X21538515Y-13097984D01*
X21928991Y-12888460D02*
X21757563Y-13145603D01*
X22186134Y-12897984D02*
X22205182Y-12897984D01*
X22205182Y-12897984D02*
X22224229Y-12907508D01*
X22224229Y-12907508D02*
X22233753Y-12917031D01*
X22233753Y-12917031D02*
X22243277Y-12936079D01*
X22243277Y-12936079D02*
X22252801Y-12974174D01*
X22252801Y-12974174D02*
X22252801Y-13021793D01*
X22252801Y-13021793D02*
X22243277Y-13059888D01*
X22243277Y-13059888D02*
X22233753Y-13078936D01*
X22233753Y-13078936D02*
X22224229Y-13088460D01*
X22224229Y-13088460D02*
X22205182Y-13097984D01*
X22205182Y-13097984D02*
X22186134Y-13097984D01*
X22186134Y-13097984D02*
X22167087Y-13088460D01*
X22167087Y-13088460D02*
X22157563Y-13078936D01*
X22157563Y-13078936D02*
X22148039Y-13059888D01*
X22148039Y-13059888D02*
X22138515Y-13021793D01*
X22138515Y-13021793D02*
X22138515Y-12974174D01*
X22138515Y-12974174D02*
X22148039Y-12936079D01*
X22148039Y-12936079D02*
X22157563Y-12917031D01*
X22157563Y-12917031D02*
X22167087Y-12907508D01*
X22167087Y-12907508D02*
X22186134Y-12897984D01*
X22338515Y-13078936D02*
X22348039Y-13088460D01*
X22348039Y-13088460D02*
X22338515Y-13097984D01*
X22338515Y-13097984D02*
X22328991Y-13088460D01*
X22328991Y-13088460D02*
X22338515Y-13078936D01*
X22338515Y-13078936D02*
X22338515Y-13097984D01*
X22471848Y-12897984D02*
X22490896Y-12897984D01*
X22490896Y-12897984D02*
X22509944Y-12907508D01*
X22509944Y-12907508D02*
X22519467Y-12917031D01*
X22519467Y-12917031D02*
X22528991Y-12936079D01*
X22528991Y-12936079D02*
X22538515Y-12974174D01*
X22538515Y-12974174D02*
X22538515Y-13021793D01*
X22538515Y-13021793D02*
X22528991Y-13059888D01*
X22528991Y-13059888D02*
X22519467Y-13078936D01*
X22519467Y-13078936D02*
X22509944Y-13088460D01*
X22509944Y-13088460D02*
X22490896Y-13097984D01*
X22490896Y-13097984D02*
X22471848Y-13097984D01*
X22471848Y-13097984D02*
X22452801Y-13088460D01*
X22452801Y-13088460D02*
X22443277Y-13078936D01*
X22443277Y-13078936D02*
X22433753Y-13059888D01*
X22433753Y-13059888D02*
X22424229Y-13021793D01*
X22424229Y-13021793D02*
X22424229Y-12974174D01*
X22424229Y-12974174D02*
X22433753Y-12936079D01*
X22433753Y-12936079D02*
X22443277Y-12917031D01*
X22443277Y-12917031D02*
X22452801Y-12907508D01*
X22452801Y-12907508D02*
X22471848Y-12897984D01*
X22728991Y-13097984D02*
X22614706Y-13097984D01*
X22671848Y-13097984D02*
X22671848Y-12897984D01*
X22671848Y-12897984D02*
X22652801Y-12926555D01*
X22652801Y-12926555D02*
X22633753Y-12945603D01*
X22633753Y-12945603D02*
X22614706Y-12955127D01*
X22919467Y-13097984D02*
X22805182Y-13097984D01*
X22862325Y-13097984D02*
X22862325Y-12897984D01*
X22862325Y-12897984D02*
X22843277Y-12926555D01*
X22843277Y-12926555D02*
X22824229Y-12945603D01*
X22824229Y-12945603D02*
X22805182Y-12955127D01*
X23033753Y-12983698D02*
X23014706Y-12974174D01*
X23014706Y-12974174D02*
X23005182Y-12964650D01*
X23005182Y-12964650D02*
X22995658Y-12945603D01*
X22995658Y-12945603D02*
X22995658Y-12936079D01*
X22995658Y-12936079D02*
X23005182Y-12917031D01*
X23005182Y-12917031D02*
X23014706Y-12907508D01*
X23014706Y-12907508D02*
X23033753Y-12897984D01*
X23033753Y-12897984D02*
X23071848Y-12897984D01*
X23071848Y-12897984D02*
X23090896Y-12907508D01*
X23090896Y-12907508D02*
X23100420Y-12917031D01*
X23100420Y-12917031D02*
X23109944Y-12936079D01*
X23109944Y-12936079D02*
X23109944Y-12945603D01*
X23109944Y-12945603D02*
X23100420Y-12964650D01*
X23100420Y-12964650D02*
X23090896Y-12974174D01*
X23090896Y-12974174D02*
X23071848Y-12983698D01*
X23071848Y-12983698D02*
X23033753Y-12983698D01*
X23033753Y-12983698D02*
X23014706Y-12993222D01*
X23014706Y-12993222D02*
X23005182Y-13002746D01*
X23005182Y-13002746D02*
X22995658Y-13021793D01*
X22995658Y-13021793D02*
X22995658Y-13059888D01*
X22995658Y-13059888D02*
X23005182Y-13078936D01*
X23005182Y-13078936D02*
X23014706Y-13088460D01*
X23014706Y-13088460D02*
X23033753Y-13097984D01*
X23033753Y-13097984D02*
X23071848Y-13097984D01*
X23071848Y-13097984D02*
X23090896Y-13088460D01*
X23090896Y-13088460D02*
X23100420Y-13078936D01*
X23100420Y-13078936D02*
X23109944Y-13059888D01*
X23109944Y-13059888D02*
X23109944Y-13021793D01*
X23109944Y-13021793D02*
X23100420Y-13002746D01*
X23100420Y-13002746D02*
X23090896Y-12993222D01*
X23090896Y-12993222D02*
X23071848Y-12983698D01*
X23186134Y-12897984D02*
X23186134Y-12936079D01*
X23262325Y-12897984D02*
X23262325Y-12936079D01*
X23557563Y-13174174D02*
X23548039Y-13164650D01*
X23548039Y-13164650D02*
X23528991Y-13136079D01*
X23528991Y-13136079D02*
X23519468Y-13117031D01*
X23519468Y-13117031D02*
X23509944Y-13088460D01*
X23509944Y-13088460D02*
X23500420Y-13040841D01*
X23500420Y-13040841D02*
X23500420Y-13002746D01*
X23500420Y-13002746D02*
X23509944Y-12955127D01*
X23509944Y-12955127D02*
X23519468Y-12926555D01*
X23519468Y-12926555D02*
X23528991Y-12907508D01*
X23528991Y-12907508D02*
X23548039Y-12878936D01*
X23548039Y-12878936D02*
X23557563Y-12869412D01*
X23624229Y-12917031D02*
X23633753Y-12907508D01*
X23633753Y-12907508D02*
X23652801Y-12897984D01*
X23652801Y-12897984D02*
X23700420Y-12897984D01*
X23700420Y-12897984D02*
X23719468Y-12907508D01*
X23719468Y-12907508D02*
X23728991Y-12917031D01*
X23728991Y-12917031D02*
X23738515Y-12936079D01*
X23738515Y-12936079D02*
X23738515Y-12955127D01*
X23738515Y-12955127D02*
X23728991Y-12983698D01*
X23728991Y-12983698D02*
X23614706Y-13097984D01*
X23614706Y-13097984D02*
X23738515Y-13097984D01*
X23805182Y-12897984D02*
X23938515Y-12897984D01*
X23938515Y-12897984D02*
X23852801Y-13097984D01*
X24167087Y-13097984D02*
X24167087Y-12897984D01*
X24252801Y-13097984D02*
X24252801Y-12993222D01*
X24252801Y-12993222D02*
X24243277Y-12974174D01*
X24243277Y-12974174D02*
X24224230Y-12964650D01*
X24224230Y-12964650D02*
X24195658Y-12964650D01*
X24195658Y-12964650D02*
X24176610Y-12974174D01*
X24176610Y-12974174D02*
X24167087Y-12983698D01*
X24376610Y-13097984D02*
X24357563Y-13088460D01*
X24357563Y-13088460D02*
X24348039Y-13078936D01*
X24348039Y-13078936D02*
X24338515Y-13059888D01*
X24338515Y-13059888D02*
X24338515Y-13002746D01*
X24338515Y-13002746D02*
X24348039Y-12983698D01*
X24348039Y-12983698D02*
X24357563Y-12974174D01*
X24357563Y-12974174D02*
X24376610Y-12964650D01*
X24376610Y-12964650D02*
X24405182Y-12964650D01*
X24405182Y-12964650D02*
X24424230Y-12974174D01*
X24424230Y-12974174D02*
X24433753Y-12983698D01*
X24433753Y-12983698D02*
X24443277Y-13002746D01*
X24443277Y-13002746D02*
X24443277Y-13059888D01*
X24443277Y-13059888D02*
X24433753Y-13078936D01*
X24433753Y-13078936D02*
X24424230Y-13088460D01*
X24424230Y-13088460D02*
X24405182Y-13097984D01*
X24405182Y-13097984D02*
X24376610Y-13097984D01*
X24557563Y-13097984D02*
X24538515Y-13088460D01*
X24538515Y-13088460D02*
X24528991Y-13069412D01*
X24528991Y-13069412D02*
X24528991Y-12897984D01*
X24709944Y-13088460D02*
X24690896Y-13097984D01*
X24690896Y-13097984D02*
X24652801Y-13097984D01*
X24652801Y-13097984D02*
X24633753Y-13088460D01*
X24633753Y-13088460D02*
X24624230Y-13069412D01*
X24624230Y-13069412D02*
X24624230Y-12993222D01*
X24624230Y-12993222D02*
X24633753Y-12974174D01*
X24633753Y-12974174D02*
X24652801Y-12964650D01*
X24652801Y-12964650D02*
X24690896Y-12964650D01*
X24690896Y-12964650D02*
X24709944Y-12974174D01*
X24709944Y-12974174D02*
X24719468Y-12993222D01*
X24719468Y-12993222D02*
X24719468Y-13012269D01*
X24719468Y-13012269D02*
X24624230Y-13031317D01*
X24795658Y-13088460D02*
X24814706Y-13097984D01*
X24814706Y-13097984D02*
X24852801Y-13097984D01*
X24852801Y-13097984D02*
X24871849Y-13088460D01*
X24871849Y-13088460D02*
X24881372Y-13069412D01*
X24881372Y-13069412D02*
X24881372Y-13059888D01*
X24881372Y-13059888D02*
X24871849Y-13040841D01*
X24871849Y-13040841D02*
X24852801Y-13031317D01*
X24852801Y-13031317D02*
X24824230Y-13031317D01*
X24824230Y-13031317D02*
X24805182Y-13021793D01*
X24805182Y-13021793D02*
X24795658Y-13002746D01*
X24795658Y-13002746D02*
X24795658Y-12993222D01*
X24795658Y-12993222D02*
X24805182Y-12974174D01*
X24805182Y-12974174D02*
X24824230Y-12964650D01*
X24824230Y-12964650D02*
X24852801Y-12964650D01*
X24852801Y-12964650D02*
X24871849Y-12974174D01*
X24948039Y-13174174D02*
X24957563Y-13164650D01*
X24957563Y-13164650D02*
X24976611Y-13136079D01*
X24976611Y-13136079D02*
X24986134Y-13117031D01*
X24986134Y-13117031D02*
X24995658Y-13088460D01*
X24995658Y-13088460D02*
X25005182Y-13040841D01*
X25005182Y-13040841D02*
X25005182Y-13002746D01*
X25005182Y-13002746D02*
X24995658Y-12955127D01*
X24995658Y-12955127D02*
X24986134Y-12926555D01*
X24986134Y-12926555D02*
X24976611Y-12907508D01*
X24976611Y-12907508D02*
X24957563Y-12878936D01*
X24957563Y-12878936D02*
X24948039Y-12869412D01*
D12*
X19957500Y-13245500D02*
X19957500Y-13295500D01*
X19932500Y-13270500D02*
X19982500Y-13270500D01*
D11*
X20281372Y-13161984D02*
X20300420Y-13161984D01*
X20300420Y-13161984D02*
X20319467Y-13171508D01*
X20319467Y-13171508D02*
X20328991Y-13181031D01*
X20328991Y-13181031D02*
X20338515Y-13200079D01*
X20338515Y-13200079D02*
X20348039Y-13238174D01*
X20348039Y-13238174D02*
X20348039Y-13285793D01*
X20348039Y-13285793D02*
X20338515Y-13323888D01*
X20338515Y-13323888D02*
X20328991Y-13342936D01*
X20328991Y-13342936D02*
X20319467Y-13352460D01*
X20319467Y-13352460D02*
X20300420Y-13361984D01*
X20300420Y-13361984D02*
X20281372Y-13361984D01*
X20281372Y-13361984D02*
X20262324Y-13352460D01*
X20262324Y-13352460D02*
X20252801Y-13342936D01*
X20252801Y-13342936D02*
X20243277Y-13323888D01*
X20243277Y-13323888D02*
X20233753Y-13285793D01*
X20233753Y-13285793D02*
X20233753Y-13238174D01*
X20233753Y-13238174D02*
X20243277Y-13200079D01*
X20243277Y-13200079D02*
X20252801Y-13181031D01*
X20252801Y-13181031D02*
X20262324Y-13171508D01*
X20262324Y-13171508D02*
X20281372Y-13161984D01*
X20433753Y-13342936D02*
X20443277Y-13352460D01*
X20443277Y-13352460D02*
X20433753Y-13361984D01*
X20433753Y-13361984D02*
X20424229Y-13352460D01*
X20424229Y-13352460D02*
X20433753Y-13342936D01*
X20433753Y-13342936D02*
X20433753Y-13361984D01*
X20624229Y-13161984D02*
X20528991Y-13161984D01*
X20528991Y-13161984D02*
X20519467Y-13257222D01*
X20519467Y-13257222D02*
X20528991Y-13247698D01*
X20528991Y-13247698D02*
X20548039Y-13238174D01*
X20548039Y-13238174D02*
X20595658Y-13238174D01*
X20595658Y-13238174D02*
X20614705Y-13247698D01*
X20614705Y-13247698D02*
X20624229Y-13257222D01*
X20624229Y-13257222D02*
X20633753Y-13276269D01*
X20633753Y-13276269D02*
X20633753Y-13323888D01*
X20633753Y-13323888D02*
X20624229Y-13342936D01*
X20624229Y-13342936D02*
X20614705Y-13352460D01*
X20614705Y-13352460D02*
X20595658Y-13361984D01*
X20595658Y-13361984D02*
X20548039Y-13361984D01*
X20548039Y-13361984D02*
X20528991Y-13352460D01*
X20528991Y-13352460D02*
X20519467Y-13342936D01*
X20757563Y-13161984D02*
X20776610Y-13161984D01*
X20776610Y-13161984D02*
X20795658Y-13171508D01*
X20795658Y-13171508D02*
X20805182Y-13181031D01*
X20805182Y-13181031D02*
X20814705Y-13200079D01*
X20814705Y-13200079D02*
X20824229Y-13238174D01*
X20824229Y-13238174D02*
X20824229Y-13285793D01*
X20824229Y-13285793D02*
X20814705Y-13323888D01*
X20814705Y-13323888D02*
X20805182Y-13342936D01*
X20805182Y-13342936D02*
X20795658Y-13352460D01*
X20795658Y-13352460D02*
X20776610Y-13361984D01*
X20776610Y-13361984D02*
X20757563Y-13361984D01*
X20757563Y-13361984D02*
X20738515Y-13352460D01*
X20738515Y-13352460D02*
X20728991Y-13342936D01*
X20728991Y-13342936D02*
X20719467Y-13323888D01*
X20719467Y-13323888D02*
X20709944Y-13285793D01*
X20709944Y-13285793D02*
X20709944Y-13238174D01*
X20709944Y-13238174D02*
X20719467Y-13200079D01*
X20719467Y-13200079D02*
X20728991Y-13181031D01*
X20728991Y-13181031D02*
X20738515Y-13171508D01*
X20738515Y-13171508D02*
X20757563Y-13161984D01*
X20948039Y-13161984D02*
X20967086Y-13161984D01*
X20967086Y-13161984D02*
X20986134Y-13171508D01*
X20986134Y-13171508D02*
X20995658Y-13181031D01*
X20995658Y-13181031D02*
X21005182Y-13200079D01*
X21005182Y-13200079D02*
X21014705Y-13238174D01*
X21014705Y-13238174D02*
X21014705Y-13285793D01*
X21014705Y-13285793D02*
X21005182Y-13323888D01*
X21005182Y-13323888D02*
X20995658Y-13342936D01*
X20995658Y-13342936D02*
X20986134Y-13352460D01*
X20986134Y-13352460D02*
X20967086Y-13361984D01*
X20967086Y-13361984D02*
X20948039Y-13361984D01*
X20948039Y-13361984D02*
X20928991Y-13352460D01*
X20928991Y-13352460D02*
X20919467Y-13342936D01*
X20919467Y-13342936D02*
X20909944Y-13323888D01*
X20909944Y-13323888D02*
X20900420Y-13285793D01*
X20900420Y-13285793D02*
X20900420Y-13238174D01*
X20900420Y-13238174D02*
X20909944Y-13200079D01*
X20909944Y-13200079D02*
X20919467Y-13181031D01*
X20919467Y-13181031D02*
X20928991Y-13171508D01*
X20928991Y-13171508D02*
X20948039Y-13161984D01*
X21100420Y-13361984D02*
X21100420Y-13228650D01*
X21100420Y-13247698D02*
X21109944Y-13238174D01*
X21109944Y-13238174D02*
X21128991Y-13228650D01*
X21128991Y-13228650D02*
X21157563Y-13228650D01*
X21157563Y-13228650D02*
X21176610Y-13238174D01*
X21176610Y-13238174D02*
X21186134Y-13257222D01*
X21186134Y-13257222D02*
X21186134Y-13361984D01*
X21186134Y-13257222D02*
X21195658Y-13238174D01*
X21195658Y-13238174D02*
X21214705Y-13228650D01*
X21214705Y-13228650D02*
X21243277Y-13228650D01*
X21243277Y-13228650D02*
X21262325Y-13238174D01*
X21262325Y-13238174D02*
X21271848Y-13257222D01*
X21271848Y-13257222D02*
X21271848Y-13361984D01*
X21367086Y-13361984D02*
X21367086Y-13228650D01*
X21367086Y-13247698D02*
X21376610Y-13238174D01*
X21376610Y-13238174D02*
X21395658Y-13228650D01*
X21395658Y-13228650D02*
X21424229Y-13228650D01*
X21424229Y-13228650D02*
X21443277Y-13238174D01*
X21443277Y-13238174D02*
X21452801Y-13257222D01*
X21452801Y-13257222D02*
X21452801Y-13361984D01*
X21452801Y-13257222D02*
X21462325Y-13238174D01*
X21462325Y-13238174D02*
X21481372Y-13228650D01*
X21481372Y-13228650D02*
X21509944Y-13228650D01*
X21509944Y-13228650D02*
X21528991Y-13238174D01*
X21528991Y-13238174D02*
X21538515Y-13257222D01*
X21538515Y-13257222D02*
X21538515Y-13361984D01*
X21928991Y-13152460D02*
X21757563Y-13409603D01*
X22186134Y-13161984D02*
X22205182Y-13161984D01*
X22205182Y-13161984D02*
X22224229Y-13171508D01*
X22224229Y-13171508D02*
X22233753Y-13181031D01*
X22233753Y-13181031D02*
X22243277Y-13200079D01*
X22243277Y-13200079D02*
X22252801Y-13238174D01*
X22252801Y-13238174D02*
X22252801Y-13285793D01*
X22252801Y-13285793D02*
X22243277Y-13323888D01*
X22243277Y-13323888D02*
X22233753Y-13342936D01*
X22233753Y-13342936D02*
X22224229Y-13352460D01*
X22224229Y-13352460D02*
X22205182Y-13361984D01*
X22205182Y-13361984D02*
X22186134Y-13361984D01*
X22186134Y-13361984D02*
X22167087Y-13352460D01*
X22167087Y-13352460D02*
X22157563Y-13342936D01*
X22157563Y-13342936D02*
X22148039Y-13323888D01*
X22148039Y-13323888D02*
X22138515Y-13285793D01*
X22138515Y-13285793D02*
X22138515Y-13238174D01*
X22138515Y-13238174D02*
X22148039Y-13200079D01*
X22148039Y-13200079D02*
X22157563Y-13181031D01*
X22157563Y-13181031D02*
X22167087Y-13171508D01*
X22167087Y-13171508D02*
X22186134Y-13161984D01*
X22338515Y-13342936D02*
X22348039Y-13352460D01*
X22348039Y-13352460D02*
X22338515Y-13361984D01*
X22338515Y-13361984D02*
X22328991Y-13352460D01*
X22328991Y-13352460D02*
X22338515Y-13342936D01*
X22338515Y-13342936D02*
X22338515Y-13361984D01*
X22471848Y-13161984D02*
X22490896Y-13161984D01*
X22490896Y-13161984D02*
X22509944Y-13171508D01*
X22509944Y-13171508D02*
X22519467Y-13181031D01*
X22519467Y-13181031D02*
X22528991Y-13200079D01*
X22528991Y-13200079D02*
X22538515Y-13238174D01*
X22538515Y-13238174D02*
X22538515Y-13285793D01*
X22538515Y-13285793D02*
X22528991Y-13323888D01*
X22528991Y-13323888D02*
X22519467Y-13342936D01*
X22519467Y-13342936D02*
X22509944Y-13352460D01*
X22509944Y-13352460D02*
X22490896Y-13361984D01*
X22490896Y-13361984D02*
X22471848Y-13361984D01*
X22471848Y-13361984D02*
X22452801Y-13352460D01*
X22452801Y-13352460D02*
X22443277Y-13342936D01*
X22443277Y-13342936D02*
X22433753Y-13323888D01*
X22433753Y-13323888D02*
X22424229Y-13285793D01*
X22424229Y-13285793D02*
X22424229Y-13238174D01*
X22424229Y-13238174D02*
X22433753Y-13200079D01*
X22433753Y-13200079D02*
X22443277Y-13181031D01*
X22443277Y-13181031D02*
X22452801Y-13171508D01*
X22452801Y-13171508D02*
X22471848Y-13161984D01*
X22728991Y-13361984D02*
X22614706Y-13361984D01*
X22671848Y-13361984D02*
X22671848Y-13161984D01*
X22671848Y-13161984D02*
X22652801Y-13190555D01*
X22652801Y-13190555D02*
X22633753Y-13209603D01*
X22633753Y-13209603D02*
X22614706Y-13219127D01*
X22824229Y-13361984D02*
X22862325Y-13361984D01*
X22862325Y-13361984D02*
X22881372Y-13352460D01*
X22881372Y-13352460D02*
X22890896Y-13342936D01*
X22890896Y-13342936D02*
X22909944Y-13314365D01*
X22909944Y-13314365D02*
X22919467Y-13276269D01*
X22919467Y-13276269D02*
X22919467Y-13200079D01*
X22919467Y-13200079D02*
X22909944Y-13181031D01*
X22909944Y-13181031D02*
X22900420Y-13171508D01*
X22900420Y-13171508D02*
X22881372Y-13161984D01*
X22881372Y-13161984D02*
X22843277Y-13161984D01*
X22843277Y-13161984D02*
X22824229Y-13171508D01*
X22824229Y-13171508D02*
X22814706Y-13181031D01*
X22814706Y-13181031D02*
X22805182Y-13200079D01*
X22805182Y-13200079D02*
X22805182Y-13247698D01*
X22805182Y-13247698D02*
X22814706Y-13266746D01*
X22814706Y-13266746D02*
X22824229Y-13276269D01*
X22824229Y-13276269D02*
X22843277Y-13285793D01*
X22843277Y-13285793D02*
X22881372Y-13285793D01*
X22881372Y-13285793D02*
X22900420Y-13276269D01*
X22900420Y-13276269D02*
X22909944Y-13266746D01*
X22909944Y-13266746D02*
X22919467Y-13247698D01*
X22986134Y-13161984D02*
X23119467Y-13161984D01*
X23119467Y-13161984D02*
X23033753Y-13361984D01*
X23186134Y-13161984D02*
X23186134Y-13200079D01*
X23262325Y-13161984D02*
X23262325Y-13200079D01*
X23557563Y-13438174D02*
X23548039Y-13428650D01*
X23548039Y-13428650D02*
X23528991Y-13400079D01*
X23528991Y-13400079D02*
X23519468Y-13381031D01*
X23519468Y-13381031D02*
X23509944Y-13352460D01*
X23509944Y-13352460D02*
X23500420Y-13304841D01*
X23500420Y-13304841D02*
X23500420Y-13266746D01*
X23500420Y-13266746D02*
X23509944Y-13219127D01*
X23509944Y-13219127D02*
X23519468Y-13190555D01*
X23519468Y-13190555D02*
X23528991Y-13171508D01*
X23528991Y-13171508D02*
X23548039Y-13142936D01*
X23548039Y-13142936D02*
X23557563Y-13133412D01*
X23624229Y-13181031D02*
X23633753Y-13171508D01*
X23633753Y-13171508D02*
X23652801Y-13161984D01*
X23652801Y-13161984D02*
X23700420Y-13161984D01*
X23700420Y-13161984D02*
X23719468Y-13171508D01*
X23719468Y-13171508D02*
X23728991Y-13181031D01*
X23728991Y-13181031D02*
X23738515Y-13200079D01*
X23738515Y-13200079D02*
X23738515Y-13219127D01*
X23738515Y-13219127D02*
X23728991Y-13247698D01*
X23728991Y-13247698D02*
X23614706Y-13361984D01*
X23614706Y-13361984D02*
X23738515Y-13361984D01*
X23814706Y-13181031D02*
X23824229Y-13171508D01*
X23824229Y-13171508D02*
X23843277Y-13161984D01*
X23843277Y-13161984D02*
X23890896Y-13161984D01*
X23890896Y-13161984D02*
X23909944Y-13171508D01*
X23909944Y-13171508D02*
X23919468Y-13181031D01*
X23919468Y-13181031D02*
X23928991Y-13200079D01*
X23928991Y-13200079D02*
X23928991Y-13219127D01*
X23928991Y-13219127D02*
X23919468Y-13247698D01*
X23919468Y-13247698D02*
X23805182Y-13361984D01*
X23805182Y-13361984D02*
X23928991Y-13361984D01*
X24167087Y-13361984D02*
X24167087Y-13161984D01*
X24252801Y-13361984D02*
X24252801Y-13257222D01*
X24252801Y-13257222D02*
X24243277Y-13238174D01*
X24243277Y-13238174D02*
X24224230Y-13228650D01*
X24224230Y-13228650D02*
X24195658Y-13228650D01*
X24195658Y-13228650D02*
X24176610Y-13238174D01*
X24176610Y-13238174D02*
X24167087Y-13247698D01*
X24376610Y-13361984D02*
X24357563Y-13352460D01*
X24357563Y-13352460D02*
X24348039Y-13342936D01*
X24348039Y-13342936D02*
X24338515Y-13323888D01*
X24338515Y-13323888D02*
X24338515Y-13266746D01*
X24338515Y-13266746D02*
X24348039Y-13247698D01*
X24348039Y-13247698D02*
X24357563Y-13238174D01*
X24357563Y-13238174D02*
X24376610Y-13228650D01*
X24376610Y-13228650D02*
X24405182Y-13228650D01*
X24405182Y-13228650D02*
X24424230Y-13238174D01*
X24424230Y-13238174D02*
X24433753Y-13247698D01*
X24433753Y-13247698D02*
X24443277Y-13266746D01*
X24443277Y-13266746D02*
X24443277Y-13323888D01*
X24443277Y-13323888D02*
X24433753Y-13342936D01*
X24433753Y-13342936D02*
X24424230Y-13352460D01*
X24424230Y-13352460D02*
X24405182Y-13361984D01*
X24405182Y-13361984D02*
X24376610Y-13361984D01*
X24557563Y-13361984D02*
X24538515Y-13352460D01*
X24538515Y-13352460D02*
X24528991Y-13333412D01*
X24528991Y-13333412D02*
X24528991Y-13161984D01*
X24709944Y-13352460D02*
X24690896Y-13361984D01*
X24690896Y-13361984D02*
X24652801Y-13361984D01*
X24652801Y-13361984D02*
X24633753Y-13352460D01*
X24633753Y-13352460D02*
X24624230Y-13333412D01*
X24624230Y-13333412D02*
X24624230Y-13257222D01*
X24624230Y-13257222D02*
X24633753Y-13238174D01*
X24633753Y-13238174D02*
X24652801Y-13228650D01*
X24652801Y-13228650D02*
X24690896Y-13228650D01*
X24690896Y-13228650D02*
X24709944Y-13238174D01*
X24709944Y-13238174D02*
X24719468Y-13257222D01*
X24719468Y-13257222D02*
X24719468Y-13276269D01*
X24719468Y-13276269D02*
X24624230Y-13295317D01*
X24795658Y-13352460D02*
X24814706Y-13361984D01*
X24814706Y-13361984D02*
X24852801Y-13361984D01*
X24852801Y-13361984D02*
X24871849Y-13352460D01*
X24871849Y-13352460D02*
X24881372Y-13333412D01*
X24881372Y-13333412D02*
X24881372Y-13323888D01*
X24881372Y-13323888D02*
X24871849Y-13304841D01*
X24871849Y-13304841D02*
X24852801Y-13295317D01*
X24852801Y-13295317D02*
X24824230Y-13295317D01*
X24824230Y-13295317D02*
X24805182Y-13285793D01*
X24805182Y-13285793D02*
X24795658Y-13266746D01*
X24795658Y-13266746D02*
X24795658Y-13257222D01*
X24795658Y-13257222D02*
X24805182Y-13238174D01*
X24805182Y-13238174D02*
X24824230Y-13228650D01*
X24824230Y-13228650D02*
X24852801Y-13228650D01*
X24852801Y-13228650D02*
X24871849Y-13238174D01*
X24948039Y-13438174D02*
X24957563Y-13428650D01*
X24957563Y-13428650D02*
X24976611Y-13400079D01*
X24976611Y-13400079D02*
X24986134Y-13381031D01*
X24986134Y-13381031D02*
X24995658Y-13352460D01*
X24995658Y-13352460D02*
X25005182Y-13304841D01*
X25005182Y-13304841D02*
X25005182Y-13266746D01*
X25005182Y-13266746D02*
X24995658Y-13219127D01*
X24995658Y-13219127D02*
X24986134Y-13190555D01*
X24986134Y-13190555D02*
X24976611Y-13171508D01*
X24976611Y-13171508D02*
X24957563Y-13142936D01*
X24957563Y-13142936D02*
X24948039Y-13133412D01*
D12*
X19973713Y-13555713D02*
X19973713Y-13513287D01*
X19931287Y-13513287D01*
X19931287Y-13555713D01*
X19973713Y-13555713D01*
D11*
X20281372Y-13425984D02*
X20300420Y-13425984D01*
X20300420Y-13425984D02*
X20319467Y-13435508D01*
X20319467Y-13435508D02*
X20328991Y-13445031D01*
X20328991Y-13445031D02*
X20338515Y-13464079D01*
X20338515Y-13464079D02*
X20348039Y-13502174D01*
X20348039Y-13502174D02*
X20348039Y-13549793D01*
X20348039Y-13549793D02*
X20338515Y-13587888D01*
X20338515Y-13587888D02*
X20328991Y-13606936D01*
X20328991Y-13606936D02*
X20319467Y-13616460D01*
X20319467Y-13616460D02*
X20300420Y-13625984D01*
X20300420Y-13625984D02*
X20281372Y-13625984D01*
X20281372Y-13625984D02*
X20262324Y-13616460D01*
X20262324Y-13616460D02*
X20252801Y-13606936D01*
X20252801Y-13606936D02*
X20243277Y-13587888D01*
X20243277Y-13587888D02*
X20233753Y-13549793D01*
X20233753Y-13549793D02*
X20233753Y-13502174D01*
X20233753Y-13502174D02*
X20243277Y-13464079D01*
X20243277Y-13464079D02*
X20252801Y-13445031D01*
X20252801Y-13445031D02*
X20262324Y-13435508D01*
X20262324Y-13435508D02*
X20281372Y-13425984D01*
X20433753Y-13606936D02*
X20443277Y-13616460D01*
X20443277Y-13616460D02*
X20433753Y-13625984D01*
X20433753Y-13625984D02*
X20424229Y-13616460D01*
X20424229Y-13616460D02*
X20433753Y-13606936D01*
X20433753Y-13606936D02*
X20433753Y-13625984D01*
X20614705Y-13425984D02*
X20576610Y-13425984D01*
X20576610Y-13425984D02*
X20557563Y-13435508D01*
X20557563Y-13435508D02*
X20548039Y-13445031D01*
X20548039Y-13445031D02*
X20528991Y-13473603D01*
X20528991Y-13473603D02*
X20519467Y-13511698D01*
X20519467Y-13511698D02*
X20519467Y-13587888D01*
X20519467Y-13587888D02*
X20528991Y-13606936D01*
X20528991Y-13606936D02*
X20538515Y-13616460D01*
X20538515Y-13616460D02*
X20557563Y-13625984D01*
X20557563Y-13625984D02*
X20595658Y-13625984D01*
X20595658Y-13625984D02*
X20614705Y-13616460D01*
X20614705Y-13616460D02*
X20624229Y-13606936D01*
X20624229Y-13606936D02*
X20633753Y-13587888D01*
X20633753Y-13587888D02*
X20633753Y-13540269D01*
X20633753Y-13540269D02*
X20624229Y-13521222D01*
X20624229Y-13521222D02*
X20614705Y-13511698D01*
X20614705Y-13511698D02*
X20595658Y-13502174D01*
X20595658Y-13502174D02*
X20557563Y-13502174D01*
X20557563Y-13502174D02*
X20538515Y-13511698D01*
X20538515Y-13511698D02*
X20528991Y-13521222D01*
X20528991Y-13521222D02*
X20519467Y-13540269D01*
X20757563Y-13425984D02*
X20776610Y-13425984D01*
X20776610Y-13425984D02*
X20795658Y-13435508D01*
X20795658Y-13435508D02*
X20805182Y-13445031D01*
X20805182Y-13445031D02*
X20814705Y-13464079D01*
X20814705Y-13464079D02*
X20824229Y-13502174D01*
X20824229Y-13502174D02*
X20824229Y-13549793D01*
X20824229Y-13549793D02*
X20814705Y-13587888D01*
X20814705Y-13587888D02*
X20805182Y-13606936D01*
X20805182Y-13606936D02*
X20795658Y-13616460D01*
X20795658Y-13616460D02*
X20776610Y-13625984D01*
X20776610Y-13625984D02*
X20757563Y-13625984D01*
X20757563Y-13625984D02*
X20738515Y-13616460D01*
X20738515Y-13616460D02*
X20728991Y-13606936D01*
X20728991Y-13606936D02*
X20719467Y-13587888D01*
X20719467Y-13587888D02*
X20709944Y-13549793D01*
X20709944Y-13549793D02*
X20709944Y-13502174D01*
X20709944Y-13502174D02*
X20719467Y-13464079D01*
X20719467Y-13464079D02*
X20728991Y-13445031D01*
X20728991Y-13445031D02*
X20738515Y-13435508D01*
X20738515Y-13435508D02*
X20757563Y-13425984D01*
X20948039Y-13425984D02*
X20967086Y-13425984D01*
X20967086Y-13425984D02*
X20986134Y-13435508D01*
X20986134Y-13435508D02*
X20995658Y-13445031D01*
X20995658Y-13445031D02*
X21005182Y-13464079D01*
X21005182Y-13464079D02*
X21014705Y-13502174D01*
X21014705Y-13502174D02*
X21014705Y-13549793D01*
X21014705Y-13549793D02*
X21005182Y-13587888D01*
X21005182Y-13587888D02*
X20995658Y-13606936D01*
X20995658Y-13606936D02*
X20986134Y-13616460D01*
X20986134Y-13616460D02*
X20967086Y-13625984D01*
X20967086Y-13625984D02*
X20948039Y-13625984D01*
X20948039Y-13625984D02*
X20928991Y-13616460D01*
X20928991Y-13616460D02*
X20919467Y-13606936D01*
X20919467Y-13606936D02*
X20909944Y-13587888D01*
X20909944Y-13587888D02*
X20900420Y-13549793D01*
X20900420Y-13549793D02*
X20900420Y-13502174D01*
X20900420Y-13502174D02*
X20909944Y-13464079D01*
X20909944Y-13464079D02*
X20919467Y-13445031D01*
X20919467Y-13445031D02*
X20928991Y-13435508D01*
X20928991Y-13435508D02*
X20948039Y-13425984D01*
X21100420Y-13625984D02*
X21100420Y-13492650D01*
X21100420Y-13511698D02*
X21109944Y-13502174D01*
X21109944Y-13502174D02*
X21128991Y-13492650D01*
X21128991Y-13492650D02*
X21157563Y-13492650D01*
X21157563Y-13492650D02*
X21176610Y-13502174D01*
X21176610Y-13502174D02*
X21186134Y-13521222D01*
X21186134Y-13521222D02*
X21186134Y-13625984D01*
X21186134Y-13521222D02*
X21195658Y-13502174D01*
X21195658Y-13502174D02*
X21214705Y-13492650D01*
X21214705Y-13492650D02*
X21243277Y-13492650D01*
X21243277Y-13492650D02*
X21262325Y-13502174D01*
X21262325Y-13502174D02*
X21271848Y-13521222D01*
X21271848Y-13521222D02*
X21271848Y-13625984D01*
X21367086Y-13625984D02*
X21367086Y-13492650D01*
X21367086Y-13511698D02*
X21376610Y-13502174D01*
X21376610Y-13502174D02*
X21395658Y-13492650D01*
X21395658Y-13492650D02*
X21424229Y-13492650D01*
X21424229Y-13492650D02*
X21443277Y-13502174D01*
X21443277Y-13502174D02*
X21452801Y-13521222D01*
X21452801Y-13521222D02*
X21452801Y-13625984D01*
X21452801Y-13521222D02*
X21462325Y-13502174D01*
X21462325Y-13502174D02*
X21481372Y-13492650D01*
X21481372Y-13492650D02*
X21509944Y-13492650D01*
X21509944Y-13492650D02*
X21528991Y-13502174D01*
X21528991Y-13502174D02*
X21538515Y-13521222D01*
X21538515Y-13521222D02*
X21538515Y-13625984D01*
X21928991Y-13416460D02*
X21757563Y-13673603D01*
X22186134Y-13425984D02*
X22205182Y-13425984D01*
X22205182Y-13425984D02*
X22224229Y-13435508D01*
X22224229Y-13435508D02*
X22233753Y-13445031D01*
X22233753Y-13445031D02*
X22243277Y-13464079D01*
X22243277Y-13464079D02*
X22252801Y-13502174D01*
X22252801Y-13502174D02*
X22252801Y-13549793D01*
X22252801Y-13549793D02*
X22243277Y-13587888D01*
X22243277Y-13587888D02*
X22233753Y-13606936D01*
X22233753Y-13606936D02*
X22224229Y-13616460D01*
X22224229Y-13616460D02*
X22205182Y-13625984D01*
X22205182Y-13625984D02*
X22186134Y-13625984D01*
X22186134Y-13625984D02*
X22167087Y-13616460D01*
X22167087Y-13616460D02*
X22157563Y-13606936D01*
X22157563Y-13606936D02*
X22148039Y-13587888D01*
X22148039Y-13587888D02*
X22138515Y-13549793D01*
X22138515Y-13549793D02*
X22138515Y-13502174D01*
X22138515Y-13502174D02*
X22148039Y-13464079D01*
X22148039Y-13464079D02*
X22157563Y-13445031D01*
X22157563Y-13445031D02*
X22167087Y-13435508D01*
X22167087Y-13435508D02*
X22186134Y-13425984D01*
X22338515Y-13606936D02*
X22348039Y-13616460D01*
X22348039Y-13616460D02*
X22338515Y-13625984D01*
X22338515Y-13625984D02*
X22328991Y-13616460D01*
X22328991Y-13616460D02*
X22338515Y-13606936D01*
X22338515Y-13606936D02*
X22338515Y-13625984D01*
X22471848Y-13425984D02*
X22490896Y-13425984D01*
X22490896Y-13425984D02*
X22509944Y-13435508D01*
X22509944Y-13435508D02*
X22519467Y-13445031D01*
X22519467Y-13445031D02*
X22528991Y-13464079D01*
X22528991Y-13464079D02*
X22538515Y-13502174D01*
X22538515Y-13502174D02*
X22538515Y-13549793D01*
X22538515Y-13549793D02*
X22528991Y-13587888D01*
X22528991Y-13587888D02*
X22519467Y-13606936D01*
X22519467Y-13606936D02*
X22509944Y-13616460D01*
X22509944Y-13616460D02*
X22490896Y-13625984D01*
X22490896Y-13625984D02*
X22471848Y-13625984D01*
X22471848Y-13625984D02*
X22452801Y-13616460D01*
X22452801Y-13616460D02*
X22443277Y-13606936D01*
X22443277Y-13606936D02*
X22433753Y-13587888D01*
X22433753Y-13587888D02*
X22424229Y-13549793D01*
X22424229Y-13549793D02*
X22424229Y-13502174D01*
X22424229Y-13502174D02*
X22433753Y-13464079D01*
X22433753Y-13464079D02*
X22443277Y-13445031D01*
X22443277Y-13445031D02*
X22452801Y-13435508D01*
X22452801Y-13435508D02*
X22471848Y-13425984D01*
X22614706Y-13445031D02*
X22624229Y-13435508D01*
X22624229Y-13435508D02*
X22643277Y-13425984D01*
X22643277Y-13425984D02*
X22690896Y-13425984D01*
X22690896Y-13425984D02*
X22709944Y-13435508D01*
X22709944Y-13435508D02*
X22719467Y-13445031D01*
X22719467Y-13445031D02*
X22728991Y-13464079D01*
X22728991Y-13464079D02*
X22728991Y-13483127D01*
X22728991Y-13483127D02*
X22719467Y-13511698D01*
X22719467Y-13511698D02*
X22605182Y-13625984D01*
X22605182Y-13625984D02*
X22728991Y-13625984D01*
X22795658Y-13425984D02*
X22919467Y-13425984D01*
X22919467Y-13425984D02*
X22852801Y-13502174D01*
X22852801Y-13502174D02*
X22881372Y-13502174D01*
X22881372Y-13502174D02*
X22900420Y-13511698D01*
X22900420Y-13511698D02*
X22909944Y-13521222D01*
X22909944Y-13521222D02*
X22919467Y-13540269D01*
X22919467Y-13540269D02*
X22919467Y-13587888D01*
X22919467Y-13587888D02*
X22909944Y-13606936D01*
X22909944Y-13606936D02*
X22900420Y-13616460D01*
X22900420Y-13616460D02*
X22881372Y-13625984D01*
X22881372Y-13625984D02*
X22824229Y-13625984D01*
X22824229Y-13625984D02*
X22805182Y-13616460D01*
X22805182Y-13616460D02*
X22795658Y-13606936D01*
X23090896Y-13425984D02*
X23052801Y-13425984D01*
X23052801Y-13425984D02*
X23033753Y-13435508D01*
X23033753Y-13435508D02*
X23024229Y-13445031D01*
X23024229Y-13445031D02*
X23005182Y-13473603D01*
X23005182Y-13473603D02*
X22995658Y-13511698D01*
X22995658Y-13511698D02*
X22995658Y-13587888D01*
X22995658Y-13587888D02*
X23005182Y-13606936D01*
X23005182Y-13606936D02*
X23014706Y-13616460D01*
X23014706Y-13616460D02*
X23033753Y-13625984D01*
X23033753Y-13625984D02*
X23071848Y-13625984D01*
X23071848Y-13625984D02*
X23090896Y-13616460D01*
X23090896Y-13616460D02*
X23100420Y-13606936D01*
X23100420Y-13606936D02*
X23109944Y-13587888D01*
X23109944Y-13587888D02*
X23109944Y-13540269D01*
X23109944Y-13540269D02*
X23100420Y-13521222D01*
X23100420Y-13521222D02*
X23090896Y-13511698D01*
X23090896Y-13511698D02*
X23071848Y-13502174D01*
X23071848Y-13502174D02*
X23033753Y-13502174D01*
X23033753Y-13502174D02*
X23014706Y-13511698D01*
X23014706Y-13511698D02*
X23005182Y-13521222D01*
X23005182Y-13521222D02*
X22995658Y-13540269D01*
X23186134Y-13425984D02*
X23186134Y-13464079D01*
X23262325Y-13425984D02*
X23262325Y-13464079D01*
X23557563Y-13702174D02*
X23548039Y-13692650D01*
X23548039Y-13692650D02*
X23528991Y-13664079D01*
X23528991Y-13664079D02*
X23519468Y-13645031D01*
X23519468Y-13645031D02*
X23509944Y-13616460D01*
X23509944Y-13616460D02*
X23500420Y-13568841D01*
X23500420Y-13568841D02*
X23500420Y-13530746D01*
X23500420Y-13530746D02*
X23509944Y-13483127D01*
X23509944Y-13483127D02*
X23519468Y-13454555D01*
X23519468Y-13454555D02*
X23528991Y-13435508D01*
X23528991Y-13435508D02*
X23548039Y-13406936D01*
X23548039Y-13406936D02*
X23557563Y-13397412D01*
X23671848Y-13425984D02*
X23690896Y-13425984D01*
X23690896Y-13425984D02*
X23709944Y-13435508D01*
X23709944Y-13435508D02*
X23719468Y-13445031D01*
X23719468Y-13445031D02*
X23728991Y-13464079D01*
X23728991Y-13464079D02*
X23738515Y-13502174D01*
X23738515Y-13502174D02*
X23738515Y-13549793D01*
X23738515Y-13549793D02*
X23728991Y-13587888D01*
X23728991Y-13587888D02*
X23719468Y-13606936D01*
X23719468Y-13606936D02*
X23709944Y-13616460D01*
X23709944Y-13616460D02*
X23690896Y-13625984D01*
X23690896Y-13625984D02*
X23671848Y-13625984D01*
X23671848Y-13625984D02*
X23652801Y-13616460D01*
X23652801Y-13616460D02*
X23643277Y-13606936D01*
X23643277Y-13606936D02*
X23633753Y-13587888D01*
X23633753Y-13587888D02*
X23624229Y-13549793D01*
X23624229Y-13549793D02*
X23624229Y-13502174D01*
X23624229Y-13502174D02*
X23633753Y-13464079D01*
X23633753Y-13464079D02*
X23643277Y-13445031D01*
X23643277Y-13445031D02*
X23652801Y-13435508D01*
X23652801Y-13435508D02*
X23671848Y-13425984D01*
X23976610Y-13625984D02*
X23976610Y-13425984D01*
X24062325Y-13625984D02*
X24062325Y-13521222D01*
X24062325Y-13521222D02*
X24052801Y-13502174D01*
X24052801Y-13502174D02*
X24033753Y-13492650D01*
X24033753Y-13492650D02*
X24005182Y-13492650D01*
X24005182Y-13492650D02*
X23986134Y-13502174D01*
X23986134Y-13502174D02*
X23976610Y-13511698D01*
X24186134Y-13625984D02*
X24167087Y-13616460D01*
X24167087Y-13616460D02*
X24157563Y-13606936D01*
X24157563Y-13606936D02*
X24148039Y-13587888D01*
X24148039Y-13587888D02*
X24148039Y-13530746D01*
X24148039Y-13530746D02*
X24157563Y-13511698D01*
X24157563Y-13511698D02*
X24167087Y-13502174D01*
X24167087Y-13502174D02*
X24186134Y-13492650D01*
X24186134Y-13492650D02*
X24214706Y-13492650D01*
X24214706Y-13492650D02*
X24233753Y-13502174D01*
X24233753Y-13502174D02*
X24243277Y-13511698D01*
X24243277Y-13511698D02*
X24252801Y-13530746D01*
X24252801Y-13530746D02*
X24252801Y-13587888D01*
X24252801Y-13587888D02*
X24243277Y-13606936D01*
X24243277Y-13606936D02*
X24233753Y-13616460D01*
X24233753Y-13616460D02*
X24214706Y-13625984D01*
X24214706Y-13625984D02*
X24186134Y-13625984D01*
X24367087Y-13625984D02*
X24348039Y-13616460D01*
X24348039Y-13616460D02*
X24338515Y-13597412D01*
X24338515Y-13597412D02*
X24338515Y-13425984D01*
X24519468Y-13616460D02*
X24500420Y-13625984D01*
X24500420Y-13625984D02*
X24462325Y-13625984D01*
X24462325Y-13625984D02*
X24443277Y-13616460D01*
X24443277Y-13616460D02*
X24433753Y-13597412D01*
X24433753Y-13597412D02*
X24433753Y-13521222D01*
X24433753Y-13521222D02*
X24443277Y-13502174D01*
X24443277Y-13502174D02*
X24462325Y-13492650D01*
X24462325Y-13492650D02*
X24500420Y-13492650D01*
X24500420Y-13492650D02*
X24519468Y-13502174D01*
X24519468Y-13502174D02*
X24528991Y-13521222D01*
X24528991Y-13521222D02*
X24528991Y-13540269D01*
X24528991Y-13540269D02*
X24433753Y-13559317D01*
X24605182Y-13616460D02*
X24624230Y-13625984D01*
X24624230Y-13625984D02*
X24662325Y-13625984D01*
X24662325Y-13625984D02*
X24681372Y-13616460D01*
X24681372Y-13616460D02*
X24690896Y-13597412D01*
X24690896Y-13597412D02*
X24690896Y-13587888D01*
X24690896Y-13587888D02*
X24681372Y-13568841D01*
X24681372Y-13568841D02*
X24662325Y-13559317D01*
X24662325Y-13559317D02*
X24633753Y-13559317D01*
X24633753Y-13559317D02*
X24614706Y-13549793D01*
X24614706Y-13549793D02*
X24605182Y-13530746D01*
X24605182Y-13530746D02*
X24605182Y-13521222D01*
X24605182Y-13521222D02*
X24614706Y-13502174D01*
X24614706Y-13502174D02*
X24633753Y-13492650D01*
X24633753Y-13492650D02*
X24662325Y-13492650D01*
X24662325Y-13492650D02*
X24681372Y-13502174D01*
X24928992Y-13549793D02*
X25081373Y-13549793D01*
X25005182Y-13625984D02*
X25005182Y-13473603D01*
X25414706Y-13492650D02*
X25414706Y-13625984D01*
X25367087Y-13416460D02*
X25319468Y-13559317D01*
X25319468Y-13559317D02*
X25443277Y-13559317D01*
X25662325Y-13616460D02*
X25681373Y-13625984D01*
X25681373Y-13625984D02*
X25719468Y-13625984D01*
X25719468Y-13625984D02*
X25738515Y-13616460D01*
X25738515Y-13616460D02*
X25748039Y-13597412D01*
X25748039Y-13597412D02*
X25748039Y-13587888D01*
X25748039Y-13587888D02*
X25738515Y-13568841D01*
X25738515Y-13568841D02*
X25719468Y-13559317D01*
X25719468Y-13559317D02*
X25690896Y-13559317D01*
X25690896Y-13559317D02*
X25671849Y-13549793D01*
X25671849Y-13549793D02*
X25662325Y-13530746D01*
X25662325Y-13530746D02*
X25662325Y-13521222D01*
X25662325Y-13521222D02*
X25671849Y-13502174D01*
X25671849Y-13502174D02*
X25690896Y-13492650D01*
X25690896Y-13492650D02*
X25719468Y-13492650D01*
X25719468Y-13492650D02*
X25738515Y-13502174D01*
X25862325Y-13625984D02*
X25843277Y-13616460D01*
X25843277Y-13616460D02*
X25833754Y-13597412D01*
X25833754Y-13597412D02*
X25833754Y-13425984D01*
X25967087Y-13625984D02*
X25948039Y-13616460D01*
X25948039Y-13616460D02*
X25938515Y-13606936D01*
X25938515Y-13606936D02*
X25928992Y-13587888D01*
X25928992Y-13587888D02*
X25928992Y-13530746D01*
X25928992Y-13530746D02*
X25938515Y-13511698D01*
X25938515Y-13511698D02*
X25948039Y-13502174D01*
X25948039Y-13502174D02*
X25967087Y-13492650D01*
X25967087Y-13492650D02*
X25995658Y-13492650D01*
X25995658Y-13492650D02*
X26014706Y-13502174D01*
X26014706Y-13502174D02*
X26024230Y-13511698D01*
X26024230Y-13511698D02*
X26033754Y-13530746D01*
X26033754Y-13530746D02*
X26033754Y-13587888D01*
X26033754Y-13587888D02*
X26024230Y-13606936D01*
X26024230Y-13606936D02*
X26014706Y-13616460D01*
X26014706Y-13616460D02*
X25995658Y-13625984D01*
X25995658Y-13625984D02*
X25967087Y-13625984D01*
X26090896Y-13492650D02*
X26167087Y-13492650D01*
X26119468Y-13425984D02*
X26119468Y-13597412D01*
X26119468Y-13597412D02*
X26128992Y-13616460D01*
X26128992Y-13616460D02*
X26148039Y-13625984D01*
X26148039Y-13625984D02*
X26167087Y-13625984D01*
X26224230Y-13616460D02*
X26243277Y-13625984D01*
X26243277Y-13625984D02*
X26281373Y-13625984D01*
X26281373Y-13625984D02*
X26300420Y-13616460D01*
X26300420Y-13616460D02*
X26309944Y-13597412D01*
X26309944Y-13597412D02*
X26309944Y-13587888D01*
X26309944Y-13587888D02*
X26300420Y-13568841D01*
X26300420Y-13568841D02*
X26281373Y-13559317D01*
X26281373Y-13559317D02*
X26252801Y-13559317D01*
X26252801Y-13559317D02*
X26233754Y-13549793D01*
X26233754Y-13549793D02*
X26224230Y-13530746D01*
X26224230Y-13530746D02*
X26224230Y-13521222D01*
X26224230Y-13521222D02*
X26233754Y-13502174D01*
X26233754Y-13502174D02*
X26252801Y-13492650D01*
X26252801Y-13492650D02*
X26281373Y-13492650D01*
X26281373Y-13492650D02*
X26300420Y-13502174D01*
X26376611Y-13702174D02*
X26386135Y-13692650D01*
X26386135Y-13692650D02*
X26405182Y-13664079D01*
X26405182Y-13664079D02*
X26414706Y-13645031D01*
X26414706Y-13645031D02*
X26424230Y-13616460D01*
X26424230Y-13616460D02*
X26433754Y-13568841D01*
X26433754Y-13568841D02*
X26433754Y-13530746D01*
X26433754Y-13530746D02*
X26424230Y-13483127D01*
X26424230Y-13483127D02*
X26414706Y-13454555D01*
X26414706Y-13454555D02*
X26405182Y-13435508D01*
X26405182Y-13435508D02*
X26386135Y-13406936D01*
X26386135Y-13406936D02*
X26376611Y-13397412D01*
D13*
X19927500Y-13853500D02*
X19982500Y-13798500D01*
X19927500Y-13743500D01*
X19872500Y-13798500D01*
X19927500Y-13853500D01*
D11*
X20348039Y-13889984D02*
X20233753Y-13889984D01*
X20290896Y-13889984D02*
X20290896Y-13689984D01*
X20290896Y-13689984D02*
X20271848Y-13718555D01*
X20271848Y-13718555D02*
X20252801Y-13737603D01*
X20252801Y-13737603D02*
X20233753Y-13747127D01*
X20433753Y-13870936D02*
X20443277Y-13880460D01*
X20443277Y-13880460D02*
X20433753Y-13889984D01*
X20433753Y-13889984D02*
X20424229Y-13880460D01*
X20424229Y-13880460D02*
X20433753Y-13870936D01*
X20433753Y-13870936D02*
X20433753Y-13889984D01*
X20633753Y-13889984D02*
X20519467Y-13889984D01*
X20576610Y-13889984D02*
X20576610Y-13689984D01*
X20576610Y-13689984D02*
X20557563Y-13718555D01*
X20557563Y-13718555D02*
X20538515Y-13737603D01*
X20538515Y-13737603D02*
X20519467Y-13747127D01*
X20757563Y-13689984D02*
X20776610Y-13689984D01*
X20776610Y-13689984D02*
X20795658Y-13699508D01*
X20795658Y-13699508D02*
X20805182Y-13709031D01*
X20805182Y-13709031D02*
X20814705Y-13728079D01*
X20814705Y-13728079D02*
X20824229Y-13766174D01*
X20824229Y-13766174D02*
X20824229Y-13813793D01*
X20824229Y-13813793D02*
X20814705Y-13851888D01*
X20814705Y-13851888D02*
X20805182Y-13870936D01*
X20805182Y-13870936D02*
X20795658Y-13880460D01*
X20795658Y-13880460D02*
X20776610Y-13889984D01*
X20776610Y-13889984D02*
X20757563Y-13889984D01*
X20757563Y-13889984D02*
X20738515Y-13880460D01*
X20738515Y-13880460D02*
X20728991Y-13870936D01*
X20728991Y-13870936D02*
X20719467Y-13851888D01*
X20719467Y-13851888D02*
X20709944Y-13813793D01*
X20709944Y-13813793D02*
X20709944Y-13766174D01*
X20709944Y-13766174D02*
X20719467Y-13728079D01*
X20719467Y-13728079D02*
X20728991Y-13709031D01*
X20728991Y-13709031D02*
X20738515Y-13699508D01*
X20738515Y-13699508D02*
X20757563Y-13689984D01*
X20948039Y-13689984D02*
X20967086Y-13689984D01*
X20967086Y-13689984D02*
X20986134Y-13699508D01*
X20986134Y-13699508D02*
X20995658Y-13709031D01*
X20995658Y-13709031D02*
X21005182Y-13728079D01*
X21005182Y-13728079D02*
X21014705Y-13766174D01*
X21014705Y-13766174D02*
X21014705Y-13813793D01*
X21014705Y-13813793D02*
X21005182Y-13851888D01*
X21005182Y-13851888D02*
X20995658Y-13870936D01*
X20995658Y-13870936D02*
X20986134Y-13880460D01*
X20986134Y-13880460D02*
X20967086Y-13889984D01*
X20967086Y-13889984D02*
X20948039Y-13889984D01*
X20948039Y-13889984D02*
X20928991Y-13880460D01*
X20928991Y-13880460D02*
X20919467Y-13870936D01*
X20919467Y-13870936D02*
X20909944Y-13851888D01*
X20909944Y-13851888D02*
X20900420Y-13813793D01*
X20900420Y-13813793D02*
X20900420Y-13766174D01*
X20900420Y-13766174D02*
X20909944Y-13728079D01*
X20909944Y-13728079D02*
X20919467Y-13709031D01*
X20919467Y-13709031D02*
X20928991Y-13699508D01*
X20928991Y-13699508D02*
X20948039Y-13689984D01*
X21100420Y-13889984D02*
X21100420Y-13756650D01*
X21100420Y-13775698D02*
X21109944Y-13766174D01*
X21109944Y-13766174D02*
X21128991Y-13756650D01*
X21128991Y-13756650D02*
X21157563Y-13756650D01*
X21157563Y-13756650D02*
X21176610Y-13766174D01*
X21176610Y-13766174D02*
X21186134Y-13785222D01*
X21186134Y-13785222D02*
X21186134Y-13889984D01*
X21186134Y-13785222D02*
X21195658Y-13766174D01*
X21195658Y-13766174D02*
X21214705Y-13756650D01*
X21214705Y-13756650D02*
X21243277Y-13756650D01*
X21243277Y-13756650D02*
X21262325Y-13766174D01*
X21262325Y-13766174D02*
X21271848Y-13785222D01*
X21271848Y-13785222D02*
X21271848Y-13889984D01*
X21367086Y-13889984D02*
X21367086Y-13756650D01*
X21367086Y-13775698D02*
X21376610Y-13766174D01*
X21376610Y-13766174D02*
X21395658Y-13756650D01*
X21395658Y-13756650D02*
X21424229Y-13756650D01*
X21424229Y-13756650D02*
X21443277Y-13766174D01*
X21443277Y-13766174D02*
X21452801Y-13785222D01*
X21452801Y-13785222D02*
X21452801Y-13889984D01*
X21452801Y-13785222D02*
X21462325Y-13766174D01*
X21462325Y-13766174D02*
X21481372Y-13756650D01*
X21481372Y-13756650D02*
X21509944Y-13756650D01*
X21509944Y-13756650D02*
X21528991Y-13766174D01*
X21528991Y-13766174D02*
X21538515Y-13785222D01*
X21538515Y-13785222D02*
X21538515Y-13889984D01*
X21928991Y-13680460D02*
X21757563Y-13937603D01*
X22186134Y-13689984D02*
X22205182Y-13689984D01*
X22205182Y-13689984D02*
X22224229Y-13699508D01*
X22224229Y-13699508D02*
X22233753Y-13709031D01*
X22233753Y-13709031D02*
X22243277Y-13728079D01*
X22243277Y-13728079D02*
X22252801Y-13766174D01*
X22252801Y-13766174D02*
X22252801Y-13813793D01*
X22252801Y-13813793D02*
X22243277Y-13851888D01*
X22243277Y-13851888D02*
X22233753Y-13870936D01*
X22233753Y-13870936D02*
X22224229Y-13880460D01*
X22224229Y-13880460D02*
X22205182Y-13889984D01*
X22205182Y-13889984D02*
X22186134Y-13889984D01*
X22186134Y-13889984D02*
X22167087Y-13880460D01*
X22167087Y-13880460D02*
X22157563Y-13870936D01*
X22157563Y-13870936D02*
X22148039Y-13851888D01*
X22148039Y-13851888D02*
X22138515Y-13813793D01*
X22138515Y-13813793D02*
X22138515Y-13766174D01*
X22138515Y-13766174D02*
X22148039Y-13728079D01*
X22148039Y-13728079D02*
X22157563Y-13709031D01*
X22157563Y-13709031D02*
X22167087Y-13699508D01*
X22167087Y-13699508D02*
X22186134Y-13689984D01*
X22338515Y-13870936D02*
X22348039Y-13880460D01*
X22348039Y-13880460D02*
X22338515Y-13889984D01*
X22338515Y-13889984D02*
X22328991Y-13880460D01*
X22328991Y-13880460D02*
X22338515Y-13870936D01*
X22338515Y-13870936D02*
X22338515Y-13889984D01*
X22471848Y-13689984D02*
X22490896Y-13689984D01*
X22490896Y-13689984D02*
X22509944Y-13699508D01*
X22509944Y-13699508D02*
X22519467Y-13709031D01*
X22519467Y-13709031D02*
X22528991Y-13728079D01*
X22528991Y-13728079D02*
X22538515Y-13766174D01*
X22538515Y-13766174D02*
X22538515Y-13813793D01*
X22538515Y-13813793D02*
X22528991Y-13851888D01*
X22528991Y-13851888D02*
X22519467Y-13870936D01*
X22519467Y-13870936D02*
X22509944Y-13880460D01*
X22509944Y-13880460D02*
X22490896Y-13889984D01*
X22490896Y-13889984D02*
X22471848Y-13889984D01*
X22471848Y-13889984D02*
X22452801Y-13880460D01*
X22452801Y-13880460D02*
X22443277Y-13870936D01*
X22443277Y-13870936D02*
X22433753Y-13851888D01*
X22433753Y-13851888D02*
X22424229Y-13813793D01*
X22424229Y-13813793D02*
X22424229Y-13766174D01*
X22424229Y-13766174D02*
X22433753Y-13728079D01*
X22433753Y-13728079D02*
X22443277Y-13709031D01*
X22443277Y-13709031D02*
X22452801Y-13699508D01*
X22452801Y-13699508D02*
X22471848Y-13689984D01*
X22709944Y-13756650D02*
X22709944Y-13889984D01*
X22662325Y-13680460D02*
X22614706Y-13823317D01*
X22614706Y-13823317D02*
X22738515Y-13823317D01*
X22795658Y-13689984D02*
X22919467Y-13689984D01*
X22919467Y-13689984D02*
X22852801Y-13766174D01*
X22852801Y-13766174D02*
X22881372Y-13766174D01*
X22881372Y-13766174D02*
X22900420Y-13775698D01*
X22900420Y-13775698D02*
X22909944Y-13785222D01*
X22909944Y-13785222D02*
X22919467Y-13804269D01*
X22919467Y-13804269D02*
X22919467Y-13851888D01*
X22919467Y-13851888D02*
X22909944Y-13870936D01*
X22909944Y-13870936D02*
X22900420Y-13880460D01*
X22900420Y-13880460D02*
X22881372Y-13889984D01*
X22881372Y-13889984D02*
X22824229Y-13889984D01*
X22824229Y-13889984D02*
X22805182Y-13880460D01*
X22805182Y-13880460D02*
X22795658Y-13870936D01*
X22986134Y-13689984D02*
X23109944Y-13689984D01*
X23109944Y-13689984D02*
X23043277Y-13766174D01*
X23043277Y-13766174D02*
X23071848Y-13766174D01*
X23071848Y-13766174D02*
X23090896Y-13775698D01*
X23090896Y-13775698D02*
X23100420Y-13785222D01*
X23100420Y-13785222D02*
X23109944Y-13804269D01*
X23109944Y-13804269D02*
X23109944Y-13851888D01*
X23109944Y-13851888D02*
X23100420Y-13870936D01*
X23100420Y-13870936D02*
X23090896Y-13880460D01*
X23090896Y-13880460D02*
X23071848Y-13889984D01*
X23071848Y-13889984D02*
X23014706Y-13889984D01*
X23014706Y-13889984D02*
X22995658Y-13880460D01*
X22995658Y-13880460D02*
X22986134Y-13870936D01*
X23186134Y-13689984D02*
X23186134Y-13728079D01*
X23262325Y-13689984D02*
X23262325Y-13728079D01*
X23557563Y-13966174D02*
X23548039Y-13956650D01*
X23548039Y-13956650D02*
X23528991Y-13928079D01*
X23528991Y-13928079D02*
X23519468Y-13909031D01*
X23519468Y-13909031D02*
X23509944Y-13880460D01*
X23509944Y-13880460D02*
X23500420Y-13832841D01*
X23500420Y-13832841D02*
X23500420Y-13794746D01*
X23500420Y-13794746D02*
X23509944Y-13747127D01*
X23509944Y-13747127D02*
X23519468Y-13718555D01*
X23519468Y-13718555D02*
X23528991Y-13699508D01*
X23528991Y-13699508D02*
X23548039Y-13670936D01*
X23548039Y-13670936D02*
X23557563Y-13661412D01*
X23719468Y-13756650D02*
X23719468Y-13889984D01*
X23671848Y-13680460D02*
X23624229Y-13823317D01*
X23624229Y-13823317D02*
X23748039Y-13823317D01*
X23976610Y-13889984D02*
X23976610Y-13689984D01*
X24062325Y-13889984D02*
X24062325Y-13785222D01*
X24062325Y-13785222D02*
X24052801Y-13766174D01*
X24052801Y-13766174D02*
X24033753Y-13756650D01*
X24033753Y-13756650D02*
X24005182Y-13756650D01*
X24005182Y-13756650D02*
X23986134Y-13766174D01*
X23986134Y-13766174D02*
X23976610Y-13775698D01*
X24186134Y-13889984D02*
X24167087Y-13880460D01*
X24167087Y-13880460D02*
X24157563Y-13870936D01*
X24157563Y-13870936D02*
X24148039Y-13851888D01*
X24148039Y-13851888D02*
X24148039Y-13794746D01*
X24148039Y-13794746D02*
X24157563Y-13775698D01*
X24157563Y-13775698D02*
X24167087Y-13766174D01*
X24167087Y-13766174D02*
X24186134Y-13756650D01*
X24186134Y-13756650D02*
X24214706Y-13756650D01*
X24214706Y-13756650D02*
X24233753Y-13766174D01*
X24233753Y-13766174D02*
X24243277Y-13775698D01*
X24243277Y-13775698D02*
X24252801Y-13794746D01*
X24252801Y-13794746D02*
X24252801Y-13851888D01*
X24252801Y-13851888D02*
X24243277Y-13870936D01*
X24243277Y-13870936D02*
X24233753Y-13880460D01*
X24233753Y-13880460D02*
X24214706Y-13889984D01*
X24214706Y-13889984D02*
X24186134Y-13889984D01*
X24367087Y-13889984D02*
X24348039Y-13880460D01*
X24348039Y-13880460D02*
X24338515Y-13861412D01*
X24338515Y-13861412D02*
X24338515Y-13689984D01*
X24519468Y-13880460D02*
X24500420Y-13889984D01*
X24500420Y-13889984D02*
X24462325Y-13889984D01*
X24462325Y-13889984D02*
X24443277Y-13880460D01*
X24443277Y-13880460D02*
X24433753Y-13861412D01*
X24433753Y-13861412D02*
X24433753Y-13785222D01*
X24433753Y-13785222D02*
X24443277Y-13766174D01*
X24443277Y-13766174D02*
X24462325Y-13756650D01*
X24462325Y-13756650D02*
X24500420Y-13756650D01*
X24500420Y-13756650D02*
X24519468Y-13766174D01*
X24519468Y-13766174D02*
X24528991Y-13785222D01*
X24528991Y-13785222D02*
X24528991Y-13804269D01*
X24528991Y-13804269D02*
X24433753Y-13823317D01*
X24605182Y-13880460D02*
X24624230Y-13889984D01*
X24624230Y-13889984D02*
X24662325Y-13889984D01*
X24662325Y-13889984D02*
X24681372Y-13880460D01*
X24681372Y-13880460D02*
X24690896Y-13861412D01*
X24690896Y-13861412D02*
X24690896Y-13851888D01*
X24690896Y-13851888D02*
X24681372Y-13832841D01*
X24681372Y-13832841D02*
X24662325Y-13823317D01*
X24662325Y-13823317D02*
X24633753Y-13823317D01*
X24633753Y-13823317D02*
X24614706Y-13813793D01*
X24614706Y-13813793D02*
X24605182Y-13794746D01*
X24605182Y-13794746D02*
X24605182Y-13785222D01*
X24605182Y-13785222D02*
X24614706Y-13766174D01*
X24614706Y-13766174D02*
X24633753Y-13756650D01*
X24633753Y-13756650D02*
X24662325Y-13756650D01*
X24662325Y-13756650D02*
X24681372Y-13766174D01*
X24757563Y-13966174D02*
X24767087Y-13956650D01*
X24767087Y-13956650D02*
X24786134Y-13928079D01*
X24786134Y-13928079D02*
X24795658Y-13909031D01*
X24795658Y-13909031D02*
X24805182Y-13880460D01*
X24805182Y-13880460D02*
X24814706Y-13832841D01*
X24814706Y-13832841D02*
X24814706Y-13794746D01*
X24814706Y-13794746D02*
X24805182Y-13747127D01*
X24805182Y-13747127D02*
X24795658Y-13718555D01*
X24795658Y-13718555D02*
X24786134Y-13699508D01*
X24786134Y-13699508D02*
X24767087Y-13670936D01*
X24767087Y-13670936D02*
X24757563Y-13661412D01*
D14*
X19862500Y-14002500D02*
X19982500Y-14122500D01*
X19982500Y-14002500D02*
X19862500Y-14122500D01*
X19982500Y-14062500D02*
G75*
G02*
X19862500Y-14062500I-60000J0D01*
G01*
X19862500Y-14062500D02*
G75*
G02*
X19982500Y-14062500I60000J0D01*
G01*
D11*
X20348039Y-14153984D02*
X20233753Y-14153984D01*
X20290896Y-14153984D02*
X20290896Y-13953984D01*
X20290896Y-13953984D02*
X20271848Y-13982555D01*
X20271848Y-13982555D02*
X20252801Y-14001603D01*
X20252801Y-14001603D02*
X20233753Y-14011127D01*
X20433753Y-14134936D02*
X20443277Y-14144460D01*
X20443277Y-14144460D02*
X20433753Y-14153984D01*
X20433753Y-14153984D02*
X20424229Y-14144460D01*
X20424229Y-14144460D02*
X20433753Y-14134936D01*
X20433753Y-14134936D02*
X20433753Y-14153984D01*
X20519467Y-13973031D02*
X20528991Y-13963508D01*
X20528991Y-13963508D02*
X20548039Y-13953984D01*
X20548039Y-13953984D02*
X20595658Y-13953984D01*
X20595658Y-13953984D02*
X20614705Y-13963508D01*
X20614705Y-13963508D02*
X20624229Y-13973031D01*
X20624229Y-13973031D02*
X20633753Y-13992079D01*
X20633753Y-13992079D02*
X20633753Y-14011127D01*
X20633753Y-14011127D02*
X20624229Y-14039698D01*
X20624229Y-14039698D02*
X20509944Y-14153984D01*
X20509944Y-14153984D02*
X20633753Y-14153984D01*
X20757563Y-13953984D02*
X20776610Y-13953984D01*
X20776610Y-13953984D02*
X20795658Y-13963508D01*
X20795658Y-13963508D02*
X20805182Y-13973031D01*
X20805182Y-13973031D02*
X20814705Y-13992079D01*
X20814705Y-13992079D02*
X20824229Y-14030174D01*
X20824229Y-14030174D02*
X20824229Y-14077793D01*
X20824229Y-14077793D02*
X20814705Y-14115888D01*
X20814705Y-14115888D02*
X20805182Y-14134936D01*
X20805182Y-14134936D02*
X20795658Y-14144460D01*
X20795658Y-14144460D02*
X20776610Y-14153984D01*
X20776610Y-14153984D02*
X20757563Y-14153984D01*
X20757563Y-14153984D02*
X20738515Y-14144460D01*
X20738515Y-14144460D02*
X20728991Y-14134936D01*
X20728991Y-14134936D02*
X20719467Y-14115888D01*
X20719467Y-14115888D02*
X20709944Y-14077793D01*
X20709944Y-14077793D02*
X20709944Y-14030174D01*
X20709944Y-14030174D02*
X20719467Y-13992079D01*
X20719467Y-13992079D02*
X20728991Y-13973031D01*
X20728991Y-13973031D02*
X20738515Y-13963508D01*
X20738515Y-13963508D02*
X20757563Y-13953984D01*
X20948039Y-13953984D02*
X20967086Y-13953984D01*
X20967086Y-13953984D02*
X20986134Y-13963508D01*
X20986134Y-13963508D02*
X20995658Y-13973031D01*
X20995658Y-13973031D02*
X21005182Y-13992079D01*
X21005182Y-13992079D02*
X21014705Y-14030174D01*
X21014705Y-14030174D02*
X21014705Y-14077793D01*
X21014705Y-14077793D02*
X21005182Y-14115888D01*
X21005182Y-14115888D02*
X20995658Y-14134936D01*
X20995658Y-14134936D02*
X20986134Y-14144460D01*
X20986134Y-14144460D02*
X20967086Y-14153984D01*
X20967086Y-14153984D02*
X20948039Y-14153984D01*
X20948039Y-14153984D02*
X20928991Y-14144460D01*
X20928991Y-14144460D02*
X20919467Y-14134936D01*
X20919467Y-14134936D02*
X20909944Y-14115888D01*
X20909944Y-14115888D02*
X20900420Y-14077793D01*
X20900420Y-14077793D02*
X20900420Y-14030174D01*
X20900420Y-14030174D02*
X20909944Y-13992079D01*
X20909944Y-13992079D02*
X20919467Y-13973031D01*
X20919467Y-13973031D02*
X20928991Y-13963508D01*
X20928991Y-13963508D02*
X20948039Y-13953984D01*
X21100420Y-14153984D02*
X21100420Y-14020650D01*
X21100420Y-14039698D02*
X21109944Y-14030174D01*
X21109944Y-14030174D02*
X21128991Y-14020650D01*
X21128991Y-14020650D02*
X21157563Y-14020650D01*
X21157563Y-14020650D02*
X21176610Y-14030174D01*
X21176610Y-14030174D02*
X21186134Y-14049222D01*
X21186134Y-14049222D02*
X21186134Y-14153984D01*
X21186134Y-14049222D02*
X21195658Y-14030174D01*
X21195658Y-14030174D02*
X21214705Y-14020650D01*
X21214705Y-14020650D02*
X21243277Y-14020650D01*
X21243277Y-14020650D02*
X21262325Y-14030174D01*
X21262325Y-14030174D02*
X21271848Y-14049222D01*
X21271848Y-14049222D02*
X21271848Y-14153984D01*
X21367086Y-14153984D02*
X21367086Y-14020650D01*
X21367086Y-14039698D02*
X21376610Y-14030174D01*
X21376610Y-14030174D02*
X21395658Y-14020650D01*
X21395658Y-14020650D02*
X21424229Y-14020650D01*
X21424229Y-14020650D02*
X21443277Y-14030174D01*
X21443277Y-14030174D02*
X21452801Y-14049222D01*
X21452801Y-14049222D02*
X21452801Y-14153984D01*
X21452801Y-14049222D02*
X21462325Y-14030174D01*
X21462325Y-14030174D02*
X21481372Y-14020650D01*
X21481372Y-14020650D02*
X21509944Y-14020650D01*
X21509944Y-14020650D02*
X21528991Y-14030174D01*
X21528991Y-14030174D02*
X21538515Y-14049222D01*
X21538515Y-14049222D02*
X21538515Y-14153984D01*
X21928991Y-13944460D02*
X21757563Y-14201603D01*
X22186134Y-13953984D02*
X22205182Y-13953984D01*
X22205182Y-13953984D02*
X22224229Y-13963508D01*
X22224229Y-13963508D02*
X22233753Y-13973031D01*
X22233753Y-13973031D02*
X22243277Y-13992079D01*
X22243277Y-13992079D02*
X22252801Y-14030174D01*
X22252801Y-14030174D02*
X22252801Y-14077793D01*
X22252801Y-14077793D02*
X22243277Y-14115888D01*
X22243277Y-14115888D02*
X22233753Y-14134936D01*
X22233753Y-14134936D02*
X22224229Y-14144460D01*
X22224229Y-14144460D02*
X22205182Y-14153984D01*
X22205182Y-14153984D02*
X22186134Y-14153984D01*
X22186134Y-14153984D02*
X22167087Y-14144460D01*
X22167087Y-14144460D02*
X22157563Y-14134936D01*
X22157563Y-14134936D02*
X22148039Y-14115888D01*
X22148039Y-14115888D02*
X22138515Y-14077793D01*
X22138515Y-14077793D02*
X22138515Y-14030174D01*
X22138515Y-14030174D02*
X22148039Y-13992079D01*
X22148039Y-13992079D02*
X22157563Y-13973031D01*
X22157563Y-13973031D02*
X22167087Y-13963508D01*
X22167087Y-13963508D02*
X22186134Y-13953984D01*
X22338515Y-14134936D02*
X22348039Y-14144460D01*
X22348039Y-14144460D02*
X22338515Y-14153984D01*
X22338515Y-14153984D02*
X22328991Y-14144460D01*
X22328991Y-14144460D02*
X22338515Y-14134936D01*
X22338515Y-14134936D02*
X22338515Y-14153984D01*
X22471848Y-13953984D02*
X22490896Y-13953984D01*
X22490896Y-13953984D02*
X22509944Y-13963508D01*
X22509944Y-13963508D02*
X22519467Y-13973031D01*
X22519467Y-13973031D02*
X22528991Y-13992079D01*
X22528991Y-13992079D02*
X22538515Y-14030174D01*
X22538515Y-14030174D02*
X22538515Y-14077793D01*
X22538515Y-14077793D02*
X22528991Y-14115888D01*
X22528991Y-14115888D02*
X22519467Y-14134936D01*
X22519467Y-14134936D02*
X22509944Y-14144460D01*
X22509944Y-14144460D02*
X22490896Y-14153984D01*
X22490896Y-14153984D02*
X22471848Y-14153984D01*
X22471848Y-14153984D02*
X22452801Y-14144460D01*
X22452801Y-14144460D02*
X22443277Y-14134936D01*
X22443277Y-14134936D02*
X22433753Y-14115888D01*
X22433753Y-14115888D02*
X22424229Y-14077793D01*
X22424229Y-14077793D02*
X22424229Y-14030174D01*
X22424229Y-14030174D02*
X22433753Y-13992079D01*
X22433753Y-13992079D02*
X22443277Y-13973031D01*
X22443277Y-13973031D02*
X22452801Y-13963508D01*
X22452801Y-13963508D02*
X22471848Y-13953984D01*
X22709944Y-14020650D02*
X22709944Y-14153984D01*
X22662325Y-13944460D02*
X22614706Y-14087317D01*
X22614706Y-14087317D02*
X22738515Y-14087317D01*
X22795658Y-13953984D02*
X22928991Y-13953984D01*
X22928991Y-13953984D02*
X22843277Y-14153984D01*
X22995658Y-13973031D02*
X23005182Y-13963508D01*
X23005182Y-13963508D02*
X23024229Y-13953984D01*
X23024229Y-13953984D02*
X23071848Y-13953984D01*
X23071848Y-13953984D02*
X23090896Y-13963508D01*
X23090896Y-13963508D02*
X23100420Y-13973031D01*
X23100420Y-13973031D02*
X23109944Y-13992079D01*
X23109944Y-13992079D02*
X23109944Y-14011127D01*
X23109944Y-14011127D02*
X23100420Y-14039698D01*
X23100420Y-14039698D02*
X22986134Y-14153984D01*
X22986134Y-14153984D02*
X23109944Y-14153984D01*
X23186134Y-13953984D02*
X23186134Y-13992079D01*
X23262325Y-13953984D02*
X23262325Y-13992079D01*
X23557563Y-14230174D02*
X23548039Y-14220650D01*
X23548039Y-14220650D02*
X23528991Y-14192079D01*
X23528991Y-14192079D02*
X23519468Y-14173031D01*
X23519468Y-14173031D02*
X23509944Y-14144460D01*
X23509944Y-14144460D02*
X23500420Y-14096841D01*
X23500420Y-14096841D02*
X23500420Y-14058746D01*
X23500420Y-14058746D02*
X23509944Y-14011127D01*
X23509944Y-14011127D02*
X23519468Y-13982555D01*
X23519468Y-13982555D02*
X23528991Y-13963508D01*
X23528991Y-13963508D02*
X23548039Y-13934936D01*
X23548039Y-13934936D02*
X23557563Y-13925412D01*
X23624229Y-13973031D02*
X23633753Y-13963508D01*
X23633753Y-13963508D02*
X23652801Y-13953984D01*
X23652801Y-13953984D02*
X23700420Y-13953984D01*
X23700420Y-13953984D02*
X23719468Y-13963508D01*
X23719468Y-13963508D02*
X23728991Y-13973031D01*
X23728991Y-13973031D02*
X23738515Y-13992079D01*
X23738515Y-13992079D02*
X23738515Y-14011127D01*
X23738515Y-14011127D02*
X23728991Y-14039698D01*
X23728991Y-14039698D02*
X23614706Y-14153984D01*
X23614706Y-14153984D02*
X23738515Y-14153984D01*
X23976610Y-14153984D02*
X23976610Y-13953984D01*
X24062325Y-14153984D02*
X24062325Y-14049222D01*
X24062325Y-14049222D02*
X24052801Y-14030174D01*
X24052801Y-14030174D02*
X24033753Y-14020650D01*
X24033753Y-14020650D02*
X24005182Y-14020650D01*
X24005182Y-14020650D02*
X23986134Y-14030174D01*
X23986134Y-14030174D02*
X23976610Y-14039698D01*
X24186134Y-14153984D02*
X24167087Y-14144460D01*
X24167087Y-14144460D02*
X24157563Y-14134936D01*
X24157563Y-14134936D02*
X24148039Y-14115888D01*
X24148039Y-14115888D02*
X24148039Y-14058746D01*
X24148039Y-14058746D02*
X24157563Y-14039698D01*
X24157563Y-14039698D02*
X24167087Y-14030174D01*
X24167087Y-14030174D02*
X24186134Y-14020650D01*
X24186134Y-14020650D02*
X24214706Y-14020650D01*
X24214706Y-14020650D02*
X24233753Y-14030174D01*
X24233753Y-14030174D02*
X24243277Y-14039698D01*
X24243277Y-14039698D02*
X24252801Y-14058746D01*
X24252801Y-14058746D02*
X24252801Y-14115888D01*
X24252801Y-14115888D02*
X24243277Y-14134936D01*
X24243277Y-14134936D02*
X24233753Y-14144460D01*
X24233753Y-14144460D02*
X24214706Y-14153984D01*
X24214706Y-14153984D02*
X24186134Y-14153984D01*
X24367087Y-14153984D02*
X24348039Y-14144460D01*
X24348039Y-14144460D02*
X24338515Y-14125412D01*
X24338515Y-14125412D02*
X24338515Y-13953984D01*
X24519468Y-14144460D02*
X24500420Y-14153984D01*
X24500420Y-14153984D02*
X24462325Y-14153984D01*
X24462325Y-14153984D02*
X24443277Y-14144460D01*
X24443277Y-14144460D02*
X24433753Y-14125412D01*
X24433753Y-14125412D02*
X24433753Y-14049222D01*
X24433753Y-14049222D02*
X24443277Y-14030174D01*
X24443277Y-14030174D02*
X24462325Y-14020650D01*
X24462325Y-14020650D02*
X24500420Y-14020650D01*
X24500420Y-14020650D02*
X24519468Y-14030174D01*
X24519468Y-14030174D02*
X24528991Y-14049222D01*
X24528991Y-14049222D02*
X24528991Y-14068269D01*
X24528991Y-14068269D02*
X24433753Y-14087317D01*
X24605182Y-14144460D02*
X24624230Y-14153984D01*
X24624230Y-14153984D02*
X24662325Y-14153984D01*
X24662325Y-14153984D02*
X24681372Y-14144460D01*
X24681372Y-14144460D02*
X24690896Y-14125412D01*
X24690896Y-14125412D02*
X24690896Y-14115888D01*
X24690896Y-14115888D02*
X24681372Y-14096841D01*
X24681372Y-14096841D02*
X24662325Y-14087317D01*
X24662325Y-14087317D02*
X24633753Y-14087317D01*
X24633753Y-14087317D02*
X24614706Y-14077793D01*
X24614706Y-14077793D02*
X24605182Y-14058746D01*
X24605182Y-14058746D02*
X24605182Y-14049222D01*
X24605182Y-14049222D02*
X24614706Y-14030174D01*
X24614706Y-14030174D02*
X24633753Y-14020650D01*
X24633753Y-14020650D02*
X24662325Y-14020650D01*
X24662325Y-14020650D02*
X24681372Y-14030174D01*
X24757563Y-14230174D02*
X24767087Y-14220650D01*
X24767087Y-14220650D02*
X24786134Y-14192079D01*
X24786134Y-14192079D02*
X24795658Y-14173031D01*
X24795658Y-14173031D02*
X24805182Y-14144460D01*
X24805182Y-14144460D02*
X24814706Y-14096841D01*
X24814706Y-14096841D02*
X24814706Y-14058746D01*
X24814706Y-14058746D02*
X24805182Y-14011127D01*
X24805182Y-14011127D02*
X24795658Y-13982555D01*
X24795658Y-13982555D02*
X24786134Y-13963508D01*
X24786134Y-13963508D02*
X24767087Y-13934936D01*
X24767087Y-13934936D02*
X24757563Y-13925412D01*
X19782500Y-14226500D02*
X19982500Y-14426500D01*
X19982500Y-14226500D02*
X19782500Y-14426500D01*
X19882500Y-14226500D02*
X19882500Y-14426500D01*
X19782500Y-14326500D02*
X19982500Y-14326500D01*
X20233753Y-14237031D02*
X20243277Y-14227508D01*
X20243277Y-14227508D02*
X20262324Y-14217984D01*
X20262324Y-14217984D02*
X20309944Y-14217984D01*
X20309944Y-14217984D02*
X20328991Y-14227508D01*
X20328991Y-14227508D02*
X20338515Y-14237031D01*
X20338515Y-14237031D02*
X20348039Y-14256079D01*
X20348039Y-14256079D02*
X20348039Y-14275127D01*
X20348039Y-14275127D02*
X20338515Y-14303698D01*
X20338515Y-14303698D02*
X20224229Y-14417984D01*
X20224229Y-14417984D02*
X20348039Y-14417984D01*
X20433753Y-14398936D02*
X20443277Y-14408460D01*
X20443277Y-14408460D02*
X20433753Y-14417984D01*
X20433753Y-14417984D02*
X20424229Y-14408460D01*
X20424229Y-14408460D02*
X20433753Y-14398936D01*
X20433753Y-14398936D02*
X20433753Y-14417984D01*
X20624229Y-14217984D02*
X20528991Y-14217984D01*
X20528991Y-14217984D02*
X20519467Y-14313222D01*
X20519467Y-14313222D02*
X20528991Y-14303698D01*
X20528991Y-14303698D02*
X20548039Y-14294174D01*
X20548039Y-14294174D02*
X20595658Y-14294174D01*
X20595658Y-14294174D02*
X20614705Y-14303698D01*
X20614705Y-14303698D02*
X20624229Y-14313222D01*
X20624229Y-14313222D02*
X20633753Y-14332269D01*
X20633753Y-14332269D02*
X20633753Y-14379888D01*
X20633753Y-14379888D02*
X20624229Y-14398936D01*
X20624229Y-14398936D02*
X20614705Y-14408460D01*
X20614705Y-14408460D02*
X20595658Y-14417984D01*
X20595658Y-14417984D02*
X20548039Y-14417984D01*
X20548039Y-14417984D02*
X20528991Y-14408460D01*
X20528991Y-14408460D02*
X20519467Y-14398936D01*
X20757563Y-14217984D02*
X20776610Y-14217984D01*
X20776610Y-14217984D02*
X20795658Y-14227508D01*
X20795658Y-14227508D02*
X20805182Y-14237031D01*
X20805182Y-14237031D02*
X20814705Y-14256079D01*
X20814705Y-14256079D02*
X20824229Y-14294174D01*
X20824229Y-14294174D02*
X20824229Y-14341793D01*
X20824229Y-14341793D02*
X20814705Y-14379888D01*
X20814705Y-14379888D02*
X20805182Y-14398936D01*
X20805182Y-14398936D02*
X20795658Y-14408460D01*
X20795658Y-14408460D02*
X20776610Y-14417984D01*
X20776610Y-14417984D02*
X20757563Y-14417984D01*
X20757563Y-14417984D02*
X20738515Y-14408460D01*
X20738515Y-14408460D02*
X20728991Y-14398936D01*
X20728991Y-14398936D02*
X20719467Y-14379888D01*
X20719467Y-14379888D02*
X20709944Y-14341793D01*
X20709944Y-14341793D02*
X20709944Y-14294174D01*
X20709944Y-14294174D02*
X20719467Y-14256079D01*
X20719467Y-14256079D02*
X20728991Y-14237031D01*
X20728991Y-14237031D02*
X20738515Y-14227508D01*
X20738515Y-14227508D02*
X20757563Y-14217984D01*
X20948039Y-14217984D02*
X20967086Y-14217984D01*
X20967086Y-14217984D02*
X20986134Y-14227508D01*
X20986134Y-14227508D02*
X20995658Y-14237031D01*
X20995658Y-14237031D02*
X21005182Y-14256079D01*
X21005182Y-14256079D02*
X21014705Y-14294174D01*
X21014705Y-14294174D02*
X21014705Y-14341793D01*
X21014705Y-14341793D02*
X21005182Y-14379888D01*
X21005182Y-14379888D02*
X20995658Y-14398936D01*
X20995658Y-14398936D02*
X20986134Y-14408460D01*
X20986134Y-14408460D02*
X20967086Y-14417984D01*
X20967086Y-14417984D02*
X20948039Y-14417984D01*
X20948039Y-14417984D02*
X20928991Y-14408460D01*
X20928991Y-14408460D02*
X20919467Y-14398936D01*
X20919467Y-14398936D02*
X20909944Y-14379888D01*
X20909944Y-14379888D02*
X20900420Y-14341793D01*
X20900420Y-14341793D02*
X20900420Y-14294174D01*
X20900420Y-14294174D02*
X20909944Y-14256079D01*
X20909944Y-14256079D02*
X20919467Y-14237031D01*
X20919467Y-14237031D02*
X20928991Y-14227508D01*
X20928991Y-14227508D02*
X20948039Y-14217984D01*
X21100420Y-14417984D02*
X21100420Y-14284650D01*
X21100420Y-14303698D02*
X21109944Y-14294174D01*
X21109944Y-14294174D02*
X21128991Y-14284650D01*
X21128991Y-14284650D02*
X21157563Y-14284650D01*
X21157563Y-14284650D02*
X21176610Y-14294174D01*
X21176610Y-14294174D02*
X21186134Y-14313222D01*
X21186134Y-14313222D02*
X21186134Y-14417984D01*
X21186134Y-14313222D02*
X21195658Y-14294174D01*
X21195658Y-14294174D02*
X21214705Y-14284650D01*
X21214705Y-14284650D02*
X21243277Y-14284650D01*
X21243277Y-14284650D02*
X21262325Y-14294174D01*
X21262325Y-14294174D02*
X21271848Y-14313222D01*
X21271848Y-14313222D02*
X21271848Y-14417984D01*
X21367086Y-14417984D02*
X21367086Y-14284650D01*
X21367086Y-14303698D02*
X21376610Y-14294174D01*
X21376610Y-14294174D02*
X21395658Y-14284650D01*
X21395658Y-14284650D02*
X21424229Y-14284650D01*
X21424229Y-14284650D02*
X21443277Y-14294174D01*
X21443277Y-14294174D02*
X21452801Y-14313222D01*
X21452801Y-14313222D02*
X21452801Y-14417984D01*
X21452801Y-14313222D02*
X21462325Y-14294174D01*
X21462325Y-14294174D02*
X21481372Y-14284650D01*
X21481372Y-14284650D02*
X21509944Y-14284650D01*
X21509944Y-14284650D02*
X21528991Y-14294174D01*
X21528991Y-14294174D02*
X21538515Y-14313222D01*
X21538515Y-14313222D02*
X21538515Y-14417984D01*
X21928991Y-14208460D02*
X21757563Y-14465603D01*
X22186134Y-14217984D02*
X22205182Y-14217984D01*
X22205182Y-14217984D02*
X22224229Y-14227508D01*
X22224229Y-14227508D02*
X22233753Y-14237031D01*
X22233753Y-14237031D02*
X22243277Y-14256079D01*
X22243277Y-14256079D02*
X22252801Y-14294174D01*
X22252801Y-14294174D02*
X22252801Y-14341793D01*
X22252801Y-14341793D02*
X22243277Y-14379888D01*
X22243277Y-14379888D02*
X22233753Y-14398936D01*
X22233753Y-14398936D02*
X22224229Y-14408460D01*
X22224229Y-14408460D02*
X22205182Y-14417984D01*
X22205182Y-14417984D02*
X22186134Y-14417984D01*
X22186134Y-14417984D02*
X22167087Y-14408460D01*
X22167087Y-14408460D02*
X22157563Y-14398936D01*
X22157563Y-14398936D02*
X22148039Y-14379888D01*
X22148039Y-14379888D02*
X22138515Y-14341793D01*
X22138515Y-14341793D02*
X22138515Y-14294174D01*
X22138515Y-14294174D02*
X22148039Y-14256079D01*
X22148039Y-14256079D02*
X22157563Y-14237031D01*
X22157563Y-14237031D02*
X22167087Y-14227508D01*
X22167087Y-14227508D02*
X22186134Y-14217984D01*
X22338515Y-14398936D02*
X22348039Y-14408460D01*
X22348039Y-14408460D02*
X22338515Y-14417984D01*
X22338515Y-14417984D02*
X22328991Y-14408460D01*
X22328991Y-14408460D02*
X22338515Y-14398936D01*
X22338515Y-14398936D02*
X22338515Y-14417984D01*
X22471848Y-14217984D02*
X22490896Y-14217984D01*
X22490896Y-14217984D02*
X22509944Y-14227508D01*
X22509944Y-14227508D02*
X22519467Y-14237031D01*
X22519467Y-14237031D02*
X22528991Y-14256079D01*
X22528991Y-14256079D02*
X22538515Y-14294174D01*
X22538515Y-14294174D02*
X22538515Y-14341793D01*
X22538515Y-14341793D02*
X22528991Y-14379888D01*
X22528991Y-14379888D02*
X22519467Y-14398936D01*
X22519467Y-14398936D02*
X22509944Y-14408460D01*
X22509944Y-14408460D02*
X22490896Y-14417984D01*
X22490896Y-14417984D02*
X22471848Y-14417984D01*
X22471848Y-14417984D02*
X22452801Y-14408460D01*
X22452801Y-14408460D02*
X22443277Y-14398936D01*
X22443277Y-14398936D02*
X22433753Y-14379888D01*
X22433753Y-14379888D02*
X22424229Y-14341793D01*
X22424229Y-14341793D02*
X22424229Y-14294174D01*
X22424229Y-14294174D02*
X22433753Y-14256079D01*
X22433753Y-14256079D02*
X22443277Y-14237031D01*
X22443277Y-14237031D02*
X22452801Y-14227508D01*
X22452801Y-14227508D02*
X22471848Y-14217984D01*
X22633753Y-14417984D02*
X22671848Y-14417984D01*
X22671848Y-14417984D02*
X22690896Y-14408460D01*
X22690896Y-14408460D02*
X22700420Y-14398936D01*
X22700420Y-14398936D02*
X22719467Y-14370365D01*
X22719467Y-14370365D02*
X22728991Y-14332269D01*
X22728991Y-14332269D02*
X22728991Y-14256079D01*
X22728991Y-14256079D02*
X22719467Y-14237031D01*
X22719467Y-14237031D02*
X22709944Y-14227508D01*
X22709944Y-14227508D02*
X22690896Y-14217984D01*
X22690896Y-14217984D02*
X22652801Y-14217984D01*
X22652801Y-14217984D02*
X22633753Y-14227508D01*
X22633753Y-14227508D02*
X22624229Y-14237031D01*
X22624229Y-14237031D02*
X22614706Y-14256079D01*
X22614706Y-14256079D02*
X22614706Y-14303698D01*
X22614706Y-14303698D02*
X22624229Y-14322746D01*
X22624229Y-14322746D02*
X22633753Y-14332269D01*
X22633753Y-14332269D02*
X22652801Y-14341793D01*
X22652801Y-14341793D02*
X22690896Y-14341793D01*
X22690896Y-14341793D02*
X22709944Y-14332269D01*
X22709944Y-14332269D02*
X22719467Y-14322746D01*
X22719467Y-14322746D02*
X22728991Y-14303698D01*
X22843277Y-14303698D02*
X22824229Y-14294174D01*
X22824229Y-14294174D02*
X22814706Y-14284650D01*
X22814706Y-14284650D02*
X22805182Y-14265603D01*
X22805182Y-14265603D02*
X22805182Y-14256079D01*
X22805182Y-14256079D02*
X22814706Y-14237031D01*
X22814706Y-14237031D02*
X22824229Y-14227508D01*
X22824229Y-14227508D02*
X22843277Y-14217984D01*
X22843277Y-14217984D02*
X22881372Y-14217984D01*
X22881372Y-14217984D02*
X22900420Y-14227508D01*
X22900420Y-14227508D02*
X22909944Y-14237031D01*
X22909944Y-14237031D02*
X22919467Y-14256079D01*
X22919467Y-14256079D02*
X22919467Y-14265603D01*
X22919467Y-14265603D02*
X22909944Y-14284650D01*
X22909944Y-14284650D02*
X22900420Y-14294174D01*
X22900420Y-14294174D02*
X22881372Y-14303698D01*
X22881372Y-14303698D02*
X22843277Y-14303698D01*
X22843277Y-14303698D02*
X22824229Y-14313222D01*
X22824229Y-14313222D02*
X22814706Y-14322746D01*
X22814706Y-14322746D02*
X22805182Y-14341793D01*
X22805182Y-14341793D02*
X22805182Y-14379888D01*
X22805182Y-14379888D02*
X22814706Y-14398936D01*
X22814706Y-14398936D02*
X22824229Y-14408460D01*
X22824229Y-14408460D02*
X22843277Y-14417984D01*
X22843277Y-14417984D02*
X22881372Y-14417984D01*
X22881372Y-14417984D02*
X22900420Y-14408460D01*
X22900420Y-14408460D02*
X22909944Y-14398936D01*
X22909944Y-14398936D02*
X22919467Y-14379888D01*
X22919467Y-14379888D02*
X22919467Y-14341793D01*
X22919467Y-14341793D02*
X22909944Y-14322746D01*
X22909944Y-14322746D02*
X22900420Y-14313222D01*
X22900420Y-14313222D02*
X22881372Y-14303698D01*
X23090896Y-14284650D02*
X23090896Y-14417984D01*
X23043277Y-14208460D02*
X22995658Y-14351317D01*
X22995658Y-14351317D02*
X23119467Y-14351317D01*
X23186134Y-14217984D02*
X23186134Y-14256079D01*
X23262325Y-14217984D02*
X23262325Y-14256079D01*
X23557563Y-14494174D02*
X23548039Y-14484650D01*
X23548039Y-14484650D02*
X23528991Y-14456079D01*
X23528991Y-14456079D02*
X23519468Y-14437031D01*
X23519468Y-14437031D02*
X23509944Y-14408460D01*
X23509944Y-14408460D02*
X23500420Y-14360841D01*
X23500420Y-14360841D02*
X23500420Y-14322746D01*
X23500420Y-14322746D02*
X23509944Y-14275127D01*
X23509944Y-14275127D02*
X23519468Y-14246555D01*
X23519468Y-14246555D02*
X23528991Y-14227508D01*
X23528991Y-14227508D02*
X23548039Y-14198936D01*
X23548039Y-14198936D02*
X23557563Y-14189412D01*
X23624229Y-14237031D02*
X23633753Y-14227508D01*
X23633753Y-14227508D02*
X23652801Y-14217984D01*
X23652801Y-14217984D02*
X23700420Y-14217984D01*
X23700420Y-14217984D02*
X23719468Y-14227508D01*
X23719468Y-14227508D02*
X23728991Y-14237031D01*
X23728991Y-14237031D02*
X23738515Y-14256079D01*
X23738515Y-14256079D02*
X23738515Y-14275127D01*
X23738515Y-14275127D02*
X23728991Y-14303698D01*
X23728991Y-14303698D02*
X23614706Y-14417984D01*
X23614706Y-14417984D02*
X23738515Y-14417984D01*
X23976610Y-14417984D02*
X23976610Y-14217984D01*
X24062325Y-14417984D02*
X24062325Y-14313222D01*
X24062325Y-14313222D02*
X24052801Y-14294174D01*
X24052801Y-14294174D02*
X24033753Y-14284650D01*
X24033753Y-14284650D02*
X24005182Y-14284650D01*
X24005182Y-14284650D02*
X23986134Y-14294174D01*
X23986134Y-14294174D02*
X23976610Y-14303698D01*
X24186134Y-14417984D02*
X24167087Y-14408460D01*
X24167087Y-14408460D02*
X24157563Y-14398936D01*
X24157563Y-14398936D02*
X24148039Y-14379888D01*
X24148039Y-14379888D02*
X24148039Y-14322746D01*
X24148039Y-14322746D02*
X24157563Y-14303698D01*
X24157563Y-14303698D02*
X24167087Y-14294174D01*
X24167087Y-14294174D02*
X24186134Y-14284650D01*
X24186134Y-14284650D02*
X24214706Y-14284650D01*
X24214706Y-14284650D02*
X24233753Y-14294174D01*
X24233753Y-14294174D02*
X24243277Y-14303698D01*
X24243277Y-14303698D02*
X24252801Y-14322746D01*
X24252801Y-14322746D02*
X24252801Y-14379888D01*
X24252801Y-14379888D02*
X24243277Y-14398936D01*
X24243277Y-14398936D02*
X24233753Y-14408460D01*
X24233753Y-14408460D02*
X24214706Y-14417984D01*
X24214706Y-14417984D02*
X24186134Y-14417984D01*
X24367087Y-14417984D02*
X24348039Y-14408460D01*
X24348039Y-14408460D02*
X24338515Y-14389412D01*
X24338515Y-14389412D02*
X24338515Y-14217984D01*
X24519468Y-14408460D02*
X24500420Y-14417984D01*
X24500420Y-14417984D02*
X24462325Y-14417984D01*
X24462325Y-14417984D02*
X24443277Y-14408460D01*
X24443277Y-14408460D02*
X24433753Y-14389412D01*
X24433753Y-14389412D02*
X24433753Y-14313222D01*
X24433753Y-14313222D02*
X24443277Y-14294174D01*
X24443277Y-14294174D02*
X24462325Y-14284650D01*
X24462325Y-14284650D02*
X24500420Y-14284650D01*
X24500420Y-14284650D02*
X24519468Y-14294174D01*
X24519468Y-14294174D02*
X24528991Y-14313222D01*
X24528991Y-14313222D02*
X24528991Y-14332269D01*
X24528991Y-14332269D02*
X24433753Y-14351317D01*
X24605182Y-14408460D02*
X24624230Y-14417984D01*
X24624230Y-14417984D02*
X24662325Y-14417984D01*
X24662325Y-14417984D02*
X24681372Y-14408460D01*
X24681372Y-14408460D02*
X24690896Y-14389412D01*
X24690896Y-14389412D02*
X24690896Y-14379888D01*
X24690896Y-14379888D02*
X24681372Y-14360841D01*
X24681372Y-14360841D02*
X24662325Y-14351317D01*
X24662325Y-14351317D02*
X24633753Y-14351317D01*
X24633753Y-14351317D02*
X24614706Y-14341793D01*
X24614706Y-14341793D02*
X24605182Y-14322746D01*
X24605182Y-14322746D02*
X24605182Y-14313222D01*
X24605182Y-14313222D02*
X24614706Y-14294174D01*
X24614706Y-14294174D02*
X24633753Y-14284650D01*
X24633753Y-14284650D02*
X24662325Y-14284650D01*
X24662325Y-14284650D02*
X24681372Y-14294174D01*
X24757563Y-14494174D02*
X24767087Y-14484650D01*
X24767087Y-14484650D02*
X24786134Y-14456079D01*
X24786134Y-14456079D02*
X24795658Y-14437031D01*
X24795658Y-14437031D02*
X24805182Y-14408460D01*
X24805182Y-14408460D02*
X24814706Y-14360841D01*
X24814706Y-14360841D02*
X24814706Y-14322746D01*
X24814706Y-14322746D02*
X24805182Y-14275127D01*
X24805182Y-14275127D02*
X24795658Y-14246555D01*
X24795658Y-14246555D02*
X24786134Y-14227508D01*
X24786134Y-14227508D02*
X24767087Y-14198936D01*
X24767087Y-14198936D02*
X24757563Y-14189412D01*
M02*
