%TF.GenerationSoftware,KiCad,Pcbnew,8.0.4*%
%TF.CreationDate,2024-08-02T16:32:21-04:00*%
%TF.ProjectId,adcesp32,61646365-7370-4333-922e-6b696361645f,rev?*%
%TF.SameCoordinates,Original*%
%TF.FileFunction,Drillmap*%
%TF.FilePolarity,Positive*%
%FSLAX45Y45*%
G04 Gerber Fmt 4.5, Leading zero omitted, Abs format (unit mm)*
G04 Created by KiCad (PCBNEW 8.0.4) date 2024-08-02 16:32:21*
%MOMM*%
%LPD*%
G01*
G04 APERTURE LIST*
%ADD10C,0.050000*%
%ADD11C,0.200000*%
%ADD12C,0.100000*%
%ADD13C,0.110000*%
%ADD14C,0.489000*%
G04 APERTURE END LIST*
D10*
X21925000Y-9425000D02*
X21975000Y-9425000D01*
X21925000Y-9425000D01*
X19985000Y-5500000D02*
X23485000Y-5500000D01*
X23485000Y-12100000D01*
X19985000Y-12100000D01*
X19985000Y-5500000D01*
D11*
D12*
X21053500Y-11592500D02*
X21118500Y-11657500D01*
X21118500Y-11592500D02*
X21053500Y-11657500D01*
X21631500Y-11592500D02*
X21696500Y-11657500D01*
X21696500Y-11592500D02*
X21631500Y-11657500D01*
D13*
X20205000Y-9125000D02*
G75*
G02*
X20095000Y-9125000I-55000J0D01*
G01*
X20095000Y-9125000D02*
G75*
G02*
X20205000Y-9125000I55000J0D01*
G01*
X20705000Y-9125000D02*
G75*
G02*
X20595000Y-9125000I-55000J0D01*
G01*
X20595000Y-9125000D02*
G75*
G02*
X20705000Y-9125000I55000J0D01*
G01*
D14*
X23075000Y-6290500D02*
X23075000Y-6779500D01*
X22830500Y-6535000D02*
X23319500Y-6535000D01*
X23075000Y-8720500D02*
X23075000Y-9209500D01*
X22830500Y-8965000D02*
X23319500Y-8965000D01*
D11*
X20243277Y-12413984D02*
X20243277Y-12213984D01*
X20243277Y-12213984D02*
X20290896Y-12213984D01*
X20290896Y-12213984D02*
X20319467Y-12223508D01*
X20319467Y-12223508D02*
X20338515Y-12242555D01*
X20338515Y-12242555D02*
X20348039Y-12261603D01*
X20348039Y-12261603D02*
X20357563Y-12299698D01*
X20357563Y-12299698D02*
X20357563Y-12328269D01*
X20357563Y-12328269D02*
X20348039Y-12366365D01*
X20348039Y-12366365D02*
X20338515Y-12385412D01*
X20338515Y-12385412D02*
X20319467Y-12404460D01*
X20319467Y-12404460D02*
X20290896Y-12413984D01*
X20290896Y-12413984D02*
X20243277Y-12413984D01*
X20443277Y-12413984D02*
X20443277Y-12280650D01*
X20443277Y-12318746D02*
X20452801Y-12299698D01*
X20452801Y-12299698D02*
X20462324Y-12290174D01*
X20462324Y-12290174D02*
X20481372Y-12280650D01*
X20481372Y-12280650D02*
X20500420Y-12280650D01*
X20567086Y-12413984D02*
X20567086Y-12280650D01*
X20567086Y-12213984D02*
X20557563Y-12223508D01*
X20557563Y-12223508D02*
X20567086Y-12233031D01*
X20567086Y-12233031D02*
X20576610Y-12223508D01*
X20576610Y-12223508D02*
X20567086Y-12213984D01*
X20567086Y-12213984D02*
X20567086Y-12233031D01*
X20690896Y-12413984D02*
X20671848Y-12404460D01*
X20671848Y-12404460D02*
X20662324Y-12385412D01*
X20662324Y-12385412D02*
X20662324Y-12213984D01*
X20795658Y-12413984D02*
X20776610Y-12404460D01*
X20776610Y-12404460D02*
X20767086Y-12385412D01*
X20767086Y-12385412D02*
X20767086Y-12213984D01*
X21024229Y-12413984D02*
X21024229Y-12213984D01*
X21024229Y-12213984D02*
X21090896Y-12356841D01*
X21090896Y-12356841D02*
X21157563Y-12213984D01*
X21157563Y-12213984D02*
X21157563Y-12413984D01*
X21338515Y-12413984D02*
X21338515Y-12309222D01*
X21338515Y-12309222D02*
X21328991Y-12290174D01*
X21328991Y-12290174D02*
X21309944Y-12280650D01*
X21309944Y-12280650D02*
X21271848Y-12280650D01*
X21271848Y-12280650D02*
X21252801Y-12290174D01*
X21338515Y-12404460D02*
X21319467Y-12413984D01*
X21319467Y-12413984D02*
X21271848Y-12413984D01*
X21271848Y-12413984D02*
X21252801Y-12404460D01*
X21252801Y-12404460D02*
X21243277Y-12385412D01*
X21243277Y-12385412D02*
X21243277Y-12366365D01*
X21243277Y-12366365D02*
X21252801Y-12347317D01*
X21252801Y-12347317D02*
X21271848Y-12337793D01*
X21271848Y-12337793D02*
X21319467Y-12337793D01*
X21319467Y-12337793D02*
X21338515Y-12328269D01*
X21433753Y-12280650D02*
X21433753Y-12480650D01*
X21433753Y-12290174D02*
X21452801Y-12280650D01*
X21452801Y-12280650D02*
X21490896Y-12280650D01*
X21490896Y-12280650D02*
X21509944Y-12290174D01*
X21509944Y-12290174D02*
X21519467Y-12299698D01*
X21519467Y-12299698D02*
X21528991Y-12318746D01*
X21528991Y-12318746D02*
X21528991Y-12375888D01*
X21528991Y-12375888D02*
X21519467Y-12394936D01*
X21519467Y-12394936D02*
X21509944Y-12404460D01*
X21509944Y-12404460D02*
X21490896Y-12413984D01*
X21490896Y-12413984D02*
X21452801Y-12413984D01*
X21452801Y-12413984D02*
X21433753Y-12404460D01*
X21614705Y-12394936D02*
X21624229Y-12404460D01*
X21624229Y-12404460D02*
X21614705Y-12413984D01*
X21614705Y-12413984D02*
X21605182Y-12404460D01*
X21605182Y-12404460D02*
X21614705Y-12394936D01*
X21614705Y-12394936D02*
X21614705Y-12413984D01*
X21614705Y-12290174D02*
X21624229Y-12299698D01*
X21624229Y-12299698D02*
X21614705Y-12309222D01*
X21614705Y-12309222D02*
X21605182Y-12299698D01*
X21605182Y-12299698D02*
X21614705Y-12290174D01*
X21614705Y-12290174D02*
X21614705Y-12309222D01*
D12*
X19917500Y-12710000D02*
X19982500Y-12775000D01*
X19982500Y-12710000D02*
X19917500Y-12775000D01*
D11*
X20281372Y-12633984D02*
X20300420Y-12633984D01*
X20300420Y-12633984D02*
X20319467Y-12643508D01*
X20319467Y-12643508D02*
X20328991Y-12653031D01*
X20328991Y-12653031D02*
X20338515Y-12672079D01*
X20338515Y-12672079D02*
X20348039Y-12710174D01*
X20348039Y-12710174D02*
X20348039Y-12757793D01*
X20348039Y-12757793D02*
X20338515Y-12795888D01*
X20338515Y-12795888D02*
X20328991Y-12814936D01*
X20328991Y-12814936D02*
X20319467Y-12824460D01*
X20319467Y-12824460D02*
X20300420Y-12833984D01*
X20300420Y-12833984D02*
X20281372Y-12833984D01*
X20281372Y-12833984D02*
X20262324Y-12824460D01*
X20262324Y-12824460D02*
X20252801Y-12814936D01*
X20252801Y-12814936D02*
X20243277Y-12795888D01*
X20243277Y-12795888D02*
X20233753Y-12757793D01*
X20233753Y-12757793D02*
X20233753Y-12710174D01*
X20233753Y-12710174D02*
X20243277Y-12672079D01*
X20243277Y-12672079D02*
X20252801Y-12653031D01*
X20252801Y-12653031D02*
X20262324Y-12643508D01*
X20262324Y-12643508D02*
X20281372Y-12633984D01*
X20433753Y-12814936D02*
X20443277Y-12824460D01*
X20443277Y-12824460D02*
X20433753Y-12833984D01*
X20433753Y-12833984D02*
X20424229Y-12824460D01*
X20424229Y-12824460D02*
X20433753Y-12814936D01*
X20433753Y-12814936D02*
X20433753Y-12833984D01*
X20614705Y-12633984D02*
X20576610Y-12633984D01*
X20576610Y-12633984D02*
X20557563Y-12643508D01*
X20557563Y-12643508D02*
X20548039Y-12653031D01*
X20548039Y-12653031D02*
X20528991Y-12681603D01*
X20528991Y-12681603D02*
X20519467Y-12719698D01*
X20519467Y-12719698D02*
X20519467Y-12795888D01*
X20519467Y-12795888D02*
X20528991Y-12814936D01*
X20528991Y-12814936D02*
X20538515Y-12824460D01*
X20538515Y-12824460D02*
X20557563Y-12833984D01*
X20557563Y-12833984D02*
X20595658Y-12833984D01*
X20595658Y-12833984D02*
X20614705Y-12824460D01*
X20614705Y-12824460D02*
X20624229Y-12814936D01*
X20624229Y-12814936D02*
X20633753Y-12795888D01*
X20633753Y-12795888D02*
X20633753Y-12748269D01*
X20633753Y-12748269D02*
X20624229Y-12729222D01*
X20624229Y-12729222D02*
X20614705Y-12719698D01*
X20614705Y-12719698D02*
X20595658Y-12710174D01*
X20595658Y-12710174D02*
X20557563Y-12710174D01*
X20557563Y-12710174D02*
X20538515Y-12719698D01*
X20538515Y-12719698D02*
X20528991Y-12729222D01*
X20528991Y-12729222D02*
X20519467Y-12748269D01*
X20814705Y-12633984D02*
X20719467Y-12633984D01*
X20719467Y-12633984D02*
X20709944Y-12729222D01*
X20709944Y-12729222D02*
X20719467Y-12719698D01*
X20719467Y-12719698D02*
X20738515Y-12710174D01*
X20738515Y-12710174D02*
X20786134Y-12710174D01*
X20786134Y-12710174D02*
X20805182Y-12719698D01*
X20805182Y-12719698D02*
X20814705Y-12729222D01*
X20814705Y-12729222D02*
X20824229Y-12748269D01*
X20824229Y-12748269D02*
X20824229Y-12795888D01*
X20824229Y-12795888D02*
X20814705Y-12814936D01*
X20814705Y-12814936D02*
X20805182Y-12824460D01*
X20805182Y-12824460D02*
X20786134Y-12833984D01*
X20786134Y-12833984D02*
X20738515Y-12833984D01*
X20738515Y-12833984D02*
X20719467Y-12824460D01*
X20719467Y-12824460D02*
X20709944Y-12814936D01*
X20948039Y-12633984D02*
X20967086Y-12633984D01*
X20967086Y-12633984D02*
X20986134Y-12643508D01*
X20986134Y-12643508D02*
X20995658Y-12653031D01*
X20995658Y-12653031D02*
X21005182Y-12672079D01*
X21005182Y-12672079D02*
X21014705Y-12710174D01*
X21014705Y-12710174D02*
X21014705Y-12757793D01*
X21014705Y-12757793D02*
X21005182Y-12795888D01*
X21005182Y-12795888D02*
X20995658Y-12814936D01*
X20995658Y-12814936D02*
X20986134Y-12824460D01*
X20986134Y-12824460D02*
X20967086Y-12833984D01*
X20967086Y-12833984D02*
X20948039Y-12833984D01*
X20948039Y-12833984D02*
X20928991Y-12824460D01*
X20928991Y-12824460D02*
X20919467Y-12814936D01*
X20919467Y-12814936D02*
X20909944Y-12795888D01*
X20909944Y-12795888D02*
X20900420Y-12757793D01*
X20900420Y-12757793D02*
X20900420Y-12710174D01*
X20900420Y-12710174D02*
X20909944Y-12672079D01*
X20909944Y-12672079D02*
X20919467Y-12653031D01*
X20919467Y-12653031D02*
X20928991Y-12643508D01*
X20928991Y-12643508D02*
X20948039Y-12633984D01*
X21100420Y-12833984D02*
X21100420Y-12700650D01*
X21100420Y-12719698D02*
X21109944Y-12710174D01*
X21109944Y-12710174D02*
X21128991Y-12700650D01*
X21128991Y-12700650D02*
X21157563Y-12700650D01*
X21157563Y-12700650D02*
X21176610Y-12710174D01*
X21176610Y-12710174D02*
X21186134Y-12729222D01*
X21186134Y-12729222D02*
X21186134Y-12833984D01*
X21186134Y-12729222D02*
X21195658Y-12710174D01*
X21195658Y-12710174D02*
X21214705Y-12700650D01*
X21214705Y-12700650D02*
X21243277Y-12700650D01*
X21243277Y-12700650D02*
X21262325Y-12710174D01*
X21262325Y-12710174D02*
X21271848Y-12729222D01*
X21271848Y-12729222D02*
X21271848Y-12833984D01*
X21367086Y-12833984D02*
X21367086Y-12700650D01*
X21367086Y-12719698D02*
X21376610Y-12710174D01*
X21376610Y-12710174D02*
X21395658Y-12700650D01*
X21395658Y-12700650D02*
X21424229Y-12700650D01*
X21424229Y-12700650D02*
X21443277Y-12710174D01*
X21443277Y-12710174D02*
X21452801Y-12729222D01*
X21452801Y-12729222D02*
X21452801Y-12833984D01*
X21452801Y-12729222D02*
X21462325Y-12710174D01*
X21462325Y-12710174D02*
X21481372Y-12700650D01*
X21481372Y-12700650D02*
X21509944Y-12700650D01*
X21509944Y-12700650D02*
X21528991Y-12710174D01*
X21528991Y-12710174D02*
X21538515Y-12729222D01*
X21538515Y-12729222D02*
X21538515Y-12833984D01*
X21928991Y-12624460D02*
X21757563Y-12881603D01*
X22186134Y-12633984D02*
X22205182Y-12633984D01*
X22205182Y-12633984D02*
X22224229Y-12643508D01*
X22224229Y-12643508D02*
X22233753Y-12653031D01*
X22233753Y-12653031D02*
X22243277Y-12672079D01*
X22243277Y-12672079D02*
X22252801Y-12710174D01*
X22252801Y-12710174D02*
X22252801Y-12757793D01*
X22252801Y-12757793D02*
X22243277Y-12795888D01*
X22243277Y-12795888D02*
X22233753Y-12814936D01*
X22233753Y-12814936D02*
X22224229Y-12824460D01*
X22224229Y-12824460D02*
X22205182Y-12833984D01*
X22205182Y-12833984D02*
X22186134Y-12833984D01*
X22186134Y-12833984D02*
X22167087Y-12824460D01*
X22167087Y-12824460D02*
X22157563Y-12814936D01*
X22157563Y-12814936D02*
X22148039Y-12795888D01*
X22148039Y-12795888D02*
X22138515Y-12757793D01*
X22138515Y-12757793D02*
X22138515Y-12710174D01*
X22138515Y-12710174D02*
X22148039Y-12672079D01*
X22148039Y-12672079D02*
X22157563Y-12653031D01*
X22157563Y-12653031D02*
X22167087Y-12643508D01*
X22167087Y-12643508D02*
X22186134Y-12633984D01*
X22338515Y-12814936D02*
X22348039Y-12824460D01*
X22348039Y-12824460D02*
X22338515Y-12833984D01*
X22338515Y-12833984D02*
X22328991Y-12824460D01*
X22328991Y-12824460D02*
X22338515Y-12814936D01*
X22338515Y-12814936D02*
X22338515Y-12833984D01*
X22471848Y-12633984D02*
X22490896Y-12633984D01*
X22490896Y-12633984D02*
X22509944Y-12643508D01*
X22509944Y-12643508D02*
X22519467Y-12653031D01*
X22519467Y-12653031D02*
X22528991Y-12672079D01*
X22528991Y-12672079D02*
X22538515Y-12710174D01*
X22538515Y-12710174D02*
X22538515Y-12757793D01*
X22538515Y-12757793D02*
X22528991Y-12795888D01*
X22528991Y-12795888D02*
X22519467Y-12814936D01*
X22519467Y-12814936D02*
X22509944Y-12824460D01*
X22509944Y-12824460D02*
X22490896Y-12833984D01*
X22490896Y-12833984D02*
X22471848Y-12833984D01*
X22471848Y-12833984D02*
X22452801Y-12824460D01*
X22452801Y-12824460D02*
X22443277Y-12814936D01*
X22443277Y-12814936D02*
X22433753Y-12795888D01*
X22433753Y-12795888D02*
X22424229Y-12757793D01*
X22424229Y-12757793D02*
X22424229Y-12710174D01*
X22424229Y-12710174D02*
X22433753Y-12672079D01*
X22433753Y-12672079D02*
X22443277Y-12653031D01*
X22443277Y-12653031D02*
X22452801Y-12643508D01*
X22452801Y-12643508D02*
X22471848Y-12633984D01*
X22614706Y-12653031D02*
X22624229Y-12643508D01*
X22624229Y-12643508D02*
X22643277Y-12633984D01*
X22643277Y-12633984D02*
X22690896Y-12633984D01*
X22690896Y-12633984D02*
X22709944Y-12643508D01*
X22709944Y-12643508D02*
X22719467Y-12653031D01*
X22719467Y-12653031D02*
X22728991Y-12672079D01*
X22728991Y-12672079D02*
X22728991Y-12691127D01*
X22728991Y-12691127D02*
X22719467Y-12719698D01*
X22719467Y-12719698D02*
X22605182Y-12833984D01*
X22605182Y-12833984D02*
X22728991Y-12833984D01*
X22909944Y-12633984D02*
X22814706Y-12633984D01*
X22814706Y-12633984D02*
X22805182Y-12729222D01*
X22805182Y-12729222D02*
X22814706Y-12719698D01*
X22814706Y-12719698D02*
X22833753Y-12710174D01*
X22833753Y-12710174D02*
X22881372Y-12710174D01*
X22881372Y-12710174D02*
X22900420Y-12719698D01*
X22900420Y-12719698D02*
X22909944Y-12729222D01*
X22909944Y-12729222D02*
X22919467Y-12748269D01*
X22919467Y-12748269D02*
X22919467Y-12795888D01*
X22919467Y-12795888D02*
X22909944Y-12814936D01*
X22909944Y-12814936D02*
X22900420Y-12824460D01*
X22900420Y-12824460D02*
X22881372Y-12833984D01*
X22881372Y-12833984D02*
X22833753Y-12833984D01*
X22833753Y-12833984D02*
X22814706Y-12824460D01*
X22814706Y-12824460D02*
X22805182Y-12814936D01*
X23090896Y-12633984D02*
X23052801Y-12633984D01*
X23052801Y-12633984D02*
X23033753Y-12643508D01*
X23033753Y-12643508D02*
X23024229Y-12653031D01*
X23024229Y-12653031D02*
X23005182Y-12681603D01*
X23005182Y-12681603D02*
X22995658Y-12719698D01*
X22995658Y-12719698D02*
X22995658Y-12795888D01*
X22995658Y-12795888D02*
X23005182Y-12814936D01*
X23005182Y-12814936D02*
X23014706Y-12824460D01*
X23014706Y-12824460D02*
X23033753Y-12833984D01*
X23033753Y-12833984D02*
X23071848Y-12833984D01*
X23071848Y-12833984D02*
X23090896Y-12824460D01*
X23090896Y-12824460D02*
X23100420Y-12814936D01*
X23100420Y-12814936D02*
X23109944Y-12795888D01*
X23109944Y-12795888D02*
X23109944Y-12748269D01*
X23109944Y-12748269D02*
X23100420Y-12729222D01*
X23100420Y-12729222D02*
X23090896Y-12719698D01*
X23090896Y-12719698D02*
X23071848Y-12710174D01*
X23071848Y-12710174D02*
X23033753Y-12710174D01*
X23033753Y-12710174D02*
X23014706Y-12719698D01*
X23014706Y-12719698D02*
X23005182Y-12729222D01*
X23005182Y-12729222D02*
X22995658Y-12748269D01*
X23186134Y-12633984D02*
X23186134Y-12672079D01*
X23262325Y-12633984D02*
X23262325Y-12672079D01*
X23557563Y-12910174D02*
X23548039Y-12900650D01*
X23548039Y-12900650D02*
X23528991Y-12872079D01*
X23528991Y-12872079D02*
X23519468Y-12853031D01*
X23519468Y-12853031D02*
X23509944Y-12824460D01*
X23509944Y-12824460D02*
X23500420Y-12776841D01*
X23500420Y-12776841D02*
X23500420Y-12738746D01*
X23500420Y-12738746D02*
X23509944Y-12691127D01*
X23509944Y-12691127D02*
X23519468Y-12662555D01*
X23519468Y-12662555D02*
X23528991Y-12643508D01*
X23528991Y-12643508D02*
X23548039Y-12614936D01*
X23548039Y-12614936D02*
X23557563Y-12605412D01*
X23624229Y-12653031D02*
X23633753Y-12643508D01*
X23633753Y-12643508D02*
X23652801Y-12633984D01*
X23652801Y-12633984D02*
X23700420Y-12633984D01*
X23700420Y-12633984D02*
X23719468Y-12643508D01*
X23719468Y-12643508D02*
X23728991Y-12653031D01*
X23728991Y-12653031D02*
X23738515Y-12672079D01*
X23738515Y-12672079D02*
X23738515Y-12691127D01*
X23738515Y-12691127D02*
X23728991Y-12719698D01*
X23728991Y-12719698D02*
X23614706Y-12833984D01*
X23614706Y-12833984D02*
X23738515Y-12833984D01*
X23976610Y-12833984D02*
X23976610Y-12633984D01*
X24062325Y-12833984D02*
X24062325Y-12729222D01*
X24062325Y-12729222D02*
X24052801Y-12710174D01*
X24052801Y-12710174D02*
X24033753Y-12700650D01*
X24033753Y-12700650D02*
X24005182Y-12700650D01*
X24005182Y-12700650D02*
X23986134Y-12710174D01*
X23986134Y-12710174D02*
X23976610Y-12719698D01*
X24186134Y-12833984D02*
X24167087Y-12824460D01*
X24167087Y-12824460D02*
X24157563Y-12814936D01*
X24157563Y-12814936D02*
X24148039Y-12795888D01*
X24148039Y-12795888D02*
X24148039Y-12738746D01*
X24148039Y-12738746D02*
X24157563Y-12719698D01*
X24157563Y-12719698D02*
X24167087Y-12710174D01*
X24167087Y-12710174D02*
X24186134Y-12700650D01*
X24186134Y-12700650D02*
X24214706Y-12700650D01*
X24214706Y-12700650D02*
X24233753Y-12710174D01*
X24233753Y-12710174D02*
X24243277Y-12719698D01*
X24243277Y-12719698D02*
X24252801Y-12738746D01*
X24252801Y-12738746D02*
X24252801Y-12795888D01*
X24252801Y-12795888D02*
X24243277Y-12814936D01*
X24243277Y-12814936D02*
X24233753Y-12824460D01*
X24233753Y-12824460D02*
X24214706Y-12833984D01*
X24214706Y-12833984D02*
X24186134Y-12833984D01*
X24367087Y-12833984D02*
X24348039Y-12824460D01*
X24348039Y-12824460D02*
X24338515Y-12805412D01*
X24338515Y-12805412D02*
X24338515Y-12633984D01*
X24519468Y-12824460D02*
X24500420Y-12833984D01*
X24500420Y-12833984D02*
X24462325Y-12833984D01*
X24462325Y-12833984D02*
X24443277Y-12824460D01*
X24443277Y-12824460D02*
X24433753Y-12805412D01*
X24433753Y-12805412D02*
X24433753Y-12729222D01*
X24433753Y-12729222D02*
X24443277Y-12710174D01*
X24443277Y-12710174D02*
X24462325Y-12700650D01*
X24462325Y-12700650D02*
X24500420Y-12700650D01*
X24500420Y-12700650D02*
X24519468Y-12710174D01*
X24519468Y-12710174D02*
X24528991Y-12729222D01*
X24528991Y-12729222D02*
X24528991Y-12748269D01*
X24528991Y-12748269D02*
X24433753Y-12767317D01*
X24605182Y-12824460D02*
X24624230Y-12833984D01*
X24624230Y-12833984D02*
X24662325Y-12833984D01*
X24662325Y-12833984D02*
X24681372Y-12824460D01*
X24681372Y-12824460D02*
X24690896Y-12805412D01*
X24690896Y-12805412D02*
X24690896Y-12795888D01*
X24690896Y-12795888D02*
X24681372Y-12776841D01*
X24681372Y-12776841D02*
X24662325Y-12767317D01*
X24662325Y-12767317D02*
X24633753Y-12767317D01*
X24633753Y-12767317D02*
X24614706Y-12757793D01*
X24614706Y-12757793D02*
X24605182Y-12738746D01*
X24605182Y-12738746D02*
X24605182Y-12729222D01*
X24605182Y-12729222D02*
X24614706Y-12710174D01*
X24614706Y-12710174D02*
X24633753Y-12700650D01*
X24633753Y-12700650D02*
X24662325Y-12700650D01*
X24662325Y-12700650D02*
X24681372Y-12710174D01*
X24757563Y-12910174D02*
X24767087Y-12900650D01*
X24767087Y-12900650D02*
X24786134Y-12872079D01*
X24786134Y-12872079D02*
X24795658Y-12853031D01*
X24795658Y-12853031D02*
X24805182Y-12824460D01*
X24805182Y-12824460D02*
X24814706Y-12776841D01*
X24814706Y-12776841D02*
X24814706Y-12738746D01*
X24814706Y-12738746D02*
X24805182Y-12691127D01*
X24805182Y-12691127D02*
X24795658Y-12662555D01*
X24795658Y-12662555D02*
X24786134Y-12643508D01*
X24786134Y-12643508D02*
X24767087Y-12614936D01*
X24767087Y-12614936D02*
X24757563Y-12605412D01*
X25119468Y-12910174D02*
X25109944Y-12900650D01*
X25109944Y-12900650D02*
X25090896Y-12872079D01*
X25090896Y-12872079D02*
X25081372Y-12853031D01*
X25081372Y-12853031D02*
X25071849Y-12824460D01*
X25071849Y-12824460D02*
X25062325Y-12776841D01*
X25062325Y-12776841D02*
X25062325Y-12738746D01*
X25062325Y-12738746D02*
X25071849Y-12691127D01*
X25071849Y-12691127D02*
X25081372Y-12662555D01*
X25081372Y-12662555D02*
X25090896Y-12643508D01*
X25090896Y-12643508D02*
X25109944Y-12614936D01*
X25109944Y-12614936D02*
X25119468Y-12605412D01*
X25195658Y-12700650D02*
X25195658Y-12833984D01*
X25195658Y-12719698D02*
X25205182Y-12710174D01*
X25205182Y-12710174D02*
X25224230Y-12700650D01*
X25224230Y-12700650D02*
X25252801Y-12700650D01*
X25252801Y-12700650D02*
X25271849Y-12710174D01*
X25271849Y-12710174D02*
X25281372Y-12729222D01*
X25281372Y-12729222D02*
X25281372Y-12833984D01*
X25405182Y-12833984D02*
X25386134Y-12824460D01*
X25386134Y-12824460D02*
X25376611Y-12814936D01*
X25376611Y-12814936D02*
X25367087Y-12795888D01*
X25367087Y-12795888D02*
X25367087Y-12738746D01*
X25367087Y-12738746D02*
X25376611Y-12719698D01*
X25376611Y-12719698D02*
X25386134Y-12710174D01*
X25386134Y-12710174D02*
X25405182Y-12700650D01*
X25405182Y-12700650D02*
X25433753Y-12700650D01*
X25433753Y-12700650D02*
X25452801Y-12710174D01*
X25452801Y-12710174D02*
X25462325Y-12719698D01*
X25462325Y-12719698D02*
X25471849Y-12738746D01*
X25471849Y-12738746D02*
X25471849Y-12795888D01*
X25471849Y-12795888D02*
X25462325Y-12814936D01*
X25462325Y-12814936D02*
X25452801Y-12824460D01*
X25452801Y-12824460D02*
X25433753Y-12833984D01*
X25433753Y-12833984D02*
X25405182Y-12833984D01*
X25528992Y-12700650D02*
X25605182Y-12700650D01*
X25557563Y-12633984D02*
X25557563Y-12805412D01*
X25557563Y-12805412D02*
X25567087Y-12824460D01*
X25567087Y-12824460D02*
X25586134Y-12833984D01*
X25586134Y-12833984D02*
X25605182Y-12833984D01*
X25824230Y-12700650D02*
X25824230Y-12900650D01*
X25824230Y-12710174D02*
X25843277Y-12700650D01*
X25843277Y-12700650D02*
X25881373Y-12700650D01*
X25881373Y-12700650D02*
X25900420Y-12710174D01*
X25900420Y-12710174D02*
X25909944Y-12719698D01*
X25909944Y-12719698D02*
X25919468Y-12738746D01*
X25919468Y-12738746D02*
X25919468Y-12795888D01*
X25919468Y-12795888D02*
X25909944Y-12814936D01*
X25909944Y-12814936D02*
X25900420Y-12824460D01*
X25900420Y-12824460D02*
X25881373Y-12833984D01*
X25881373Y-12833984D02*
X25843277Y-12833984D01*
X25843277Y-12833984D02*
X25824230Y-12824460D01*
X26033753Y-12833984D02*
X26014706Y-12824460D01*
X26014706Y-12824460D02*
X26005182Y-12805412D01*
X26005182Y-12805412D02*
X26005182Y-12633984D01*
X26195658Y-12833984D02*
X26195658Y-12729222D01*
X26195658Y-12729222D02*
X26186134Y-12710174D01*
X26186134Y-12710174D02*
X26167087Y-12700650D01*
X26167087Y-12700650D02*
X26128992Y-12700650D01*
X26128992Y-12700650D02*
X26109944Y-12710174D01*
X26195658Y-12824460D02*
X26176611Y-12833984D01*
X26176611Y-12833984D02*
X26128992Y-12833984D01*
X26128992Y-12833984D02*
X26109944Y-12824460D01*
X26109944Y-12824460D02*
X26100420Y-12805412D01*
X26100420Y-12805412D02*
X26100420Y-12786365D01*
X26100420Y-12786365D02*
X26109944Y-12767317D01*
X26109944Y-12767317D02*
X26128992Y-12757793D01*
X26128992Y-12757793D02*
X26176611Y-12757793D01*
X26176611Y-12757793D02*
X26195658Y-12748269D01*
X26262325Y-12700650D02*
X26338515Y-12700650D01*
X26290896Y-12633984D02*
X26290896Y-12805412D01*
X26290896Y-12805412D02*
X26300420Y-12824460D01*
X26300420Y-12824460D02*
X26319468Y-12833984D01*
X26319468Y-12833984D02*
X26338515Y-12833984D01*
X26481373Y-12824460D02*
X26462325Y-12833984D01*
X26462325Y-12833984D02*
X26424230Y-12833984D01*
X26424230Y-12833984D02*
X26405182Y-12824460D01*
X26405182Y-12824460D02*
X26395658Y-12805412D01*
X26395658Y-12805412D02*
X26395658Y-12729222D01*
X26395658Y-12729222D02*
X26405182Y-12710174D01*
X26405182Y-12710174D02*
X26424230Y-12700650D01*
X26424230Y-12700650D02*
X26462325Y-12700650D01*
X26462325Y-12700650D02*
X26481373Y-12710174D01*
X26481373Y-12710174D02*
X26490896Y-12729222D01*
X26490896Y-12729222D02*
X26490896Y-12748269D01*
X26490896Y-12748269D02*
X26395658Y-12767317D01*
X26662325Y-12833984D02*
X26662325Y-12633984D01*
X26662325Y-12824460D02*
X26643277Y-12833984D01*
X26643277Y-12833984D02*
X26605182Y-12833984D01*
X26605182Y-12833984D02*
X26586134Y-12824460D01*
X26586134Y-12824460D02*
X26576611Y-12814936D01*
X26576611Y-12814936D02*
X26567087Y-12795888D01*
X26567087Y-12795888D02*
X26567087Y-12738746D01*
X26567087Y-12738746D02*
X26576611Y-12719698D01*
X26576611Y-12719698D02*
X26586134Y-12710174D01*
X26586134Y-12710174D02*
X26605182Y-12700650D01*
X26605182Y-12700650D02*
X26643277Y-12700650D01*
X26643277Y-12700650D02*
X26662325Y-12710174D01*
X26738515Y-12910174D02*
X26748039Y-12900650D01*
X26748039Y-12900650D02*
X26767087Y-12872079D01*
X26767087Y-12872079D02*
X26776611Y-12853031D01*
X26776611Y-12853031D02*
X26786134Y-12824460D01*
X26786134Y-12824460D02*
X26795658Y-12776841D01*
X26795658Y-12776841D02*
X26795658Y-12738746D01*
X26795658Y-12738746D02*
X26786134Y-12691127D01*
X26786134Y-12691127D02*
X26776611Y-12662555D01*
X26776611Y-12662555D02*
X26767087Y-12643508D01*
X26767087Y-12643508D02*
X26748039Y-12614936D01*
X26748039Y-12614936D02*
X26738515Y-12605412D01*
D13*
X19982500Y-13006500D02*
G75*
G02*
X19872500Y-13006500I-55000J0D01*
G01*
X19872500Y-13006500D02*
G75*
G02*
X19982500Y-13006500I55000J0D01*
G01*
D11*
X20348039Y-13097984D02*
X20233753Y-13097984D01*
X20290896Y-13097984D02*
X20290896Y-12897984D01*
X20290896Y-12897984D02*
X20271848Y-12926555D01*
X20271848Y-12926555D02*
X20252801Y-12945603D01*
X20252801Y-12945603D02*
X20233753Y-12955127D01*
X20433753Y-13078936D02*
X20443277Y-13088460D01*
X20443277Y-13088460D02*
X20433753Y-13097984D01*
X20433753Y-13097984D02*
X20424229Y-13088460D01*
X20424229Y-13088460D02*
X20433753Y-13078936D01*
X20433753Y-13078936D02*
X20433753Y-13097984D01*
X20633753Y-13097984D02*
X20519467Y-13097984D01*
X20576610Y-13097984D02*
X20576610Y-12897984D01*
X20576610Y-12897984D02*
X20557563Y-12926555D01*
X20557563Y-12926555D02*
X20538515Y-12945603D01*
X20538515Y-12945603D02*
X20519467Y-12955127D01*
X20757563Y-12897984D02*
X20776610Y-12897984D01*
X20776610Y-12897984D02*
X20795658Y-12907508D01*
X20795658Y-12907508D02*
X20805182Y-12917031D01*
X20805182Y-12917031D02*
X20814705Y-12936079D01*
X20814705Y-12936079D02*
X20824229Y-12974174D01*
X20824229Y-12974174D02*
X20824229Y-13021793D01*
X20824229Y-13021793D02*
X20814705Y-13059888D01*
X20814705Y-13059888D02*
X20805182Y-13078936D01*
X20805182Y-13078936D02*
X20795658Y-13088460D01*
X20795658Y-13088460D02*
X20776610Y-13097984D01*
X20776610Y-13097984D02*
X20757563Y-13097984D01*
X20757563Y-13097984D02*
X20738515Y-13088460D01*
X20738515Y-13088460D02*
X20728991Y-13078936D01*
X20728991Y-13078936D02*
X20719467Y-13059888D01*
X20719467Y-13059888D02*
X20709944Y-13021793D01*
X20709944Y-13021793D02*
X20709944Y-12974174D01*
X20709944Y-12974174D02*
X20719467Y-12936079D01*
X20719467Y-12936079D02*
X20728991Y-12917031D01*
X20728991Y-12917031D02*
X20738515Y-12907508D01*
X20738515Y-12907508D02*
X20757563Y-12897984D01*
X20948039Y-12897984D02*
X20967086Y-12897984D01*
X20967086Y-12897984D02*
X20986134Y-12907508D01*
X20986134Y-12907508D02*
X20995658Y-12917031D01*
X20995658Y-12917031D02*
X21005182Y-12936079D01*
X21005182Y-12936079D02*
X21014705Y-12974174D01*
X21014705Y-12974174D02*
X21014705Y-13021793D01*
X21014705Y-13021793D02*
X21005182Y-13059888D01*
X21005182Y-13059888D02*
X20995658Y-13078936D01*
X20995658Y-13078936D02*
X20986134Y-13088460D01*
X20986134Y-13088460D02*
X20967086Y-13097984D01*
X20967086Y-13097984D02*
X20948039Y-13097984D01*
X20948039Y-13097984D02*
X20928991Y-13088460D01*
X20928991Y-13088460D02*
X20919467Y-13078936D01*
X20919467Y-13078936D02*
X20909944Y-13059888D01*
X20909944Y-13059888D02*
X20900420Y-13021793D01*
X20900420Y-13021793D02*
X20900420Y-12974174D01*
X20900420Y-12974174D02*
X20909944Y-12936079D01*
X20909944Y-12936079D02*
X20919467Y-12917031D01*
X20919467Y-12917031D02*
X20928991Y-12907508D01*
X20928991Y-12907508D02*
X20948039Y-12897984D01*
X21100420Y-13097984D02*
X21100420Y-12964650D01*
X21100420Y-12983698D02*
X21109944Y-12974174D01*
X21109944Y-12974174D02*
X21128991Y-12964650D01*
X21128991Y-12964650D02*
X21157563Y-12964650D01*
X21157563Y-12964650D02*
X21176610Y-12974174D01*
X21176610Y-12974174D02*
X21186134Y-12993222D01*
X21186134Y-12993222D02*
X21186134Y-13097984D01*
X21186134Y-12993222D02*
X21195658Y-12974174D01*
X21195658Y-12974174D02*
X21214705Y-12964650D01*
X21214705Y-12964650D02*
X21243277Y-12964650D01*
X21243277Y-12964650D02*
X21262325Y-12974174D01*
X21262325Y-12974174D02*
X21271848Y-12993222D01*
X21271848Y-12993222D02*
X21271848Y-13097984D01*
X21367086Y-13097984D02*
X21367086Y-12964650D01*
X21367086Y-12983698D02*
X21376610Y-12974174D01*
X21376610Y-12974174D02*
X21395658Y-12964650D01*
X21395658Y-12964650D02*
X21424229Y-12964650D01*
X21424229Y-12964650D02*
X21443277Y-12974174D01*
X21443277Y-12974174D02*
X21452801Y-12993222D01*
X21452801Y-12993222D02*
X21452801Y-13097984D01*
X21452801Y-12993222D02*
X21462325Y-12974174D01*
X21462325Y-12974174D02*
X21481372Y-12964650D01*
X21481372Y-12964650D02*
X21509944Y-12964650D01*
X21509944Y-12964650D02*
X21528991Y-12974174D01*
X21528991Y-12974174D02*
X21538515Y-12993222D01*
X21538515Y-12993222D02*
X21538515Y-13097984D01*
X21928991Y-12888460D02*
X21757563Y-13145603D01*
X22186134Y-12897984D02*
X22205182Y-12897984D01*
X22205182Y-12897984D02*
X22224229Y-12907508D01*
X22224229Y-12907508D02*
X22233753Y-12917031D01*
X22233753Y-12917031D02*
X22243277Y-12936079D01*
X22243277Y-12936079D02*
X22252801Y-12974174D01*
X22252801Y-12974174D02*
X22252801Y-13021793D01*
X22252801Y-13021793D02*
X22243277Y-13059888D01*
X22243277Y-13059888D02*
X22233753Y-13078936D01*
X22233753Y-13078936D02*
X22224229Y-13088460D01*
X22224229Y-13088460D02*
X22205182Y-13097984D01*
X22205182Y-13097984D02*
X22186134Y-13097984D01*
X22186134Y-13097984D02*
X22167087Y-13088460D01*
X22167087Y-13088460D02*
X22157563Y-13078936D01*
X22157563Y-13078936D02*
X22148039Y-13059888D01*
X22148039Y-13059888D02*
X22138515Y-13021793D01*
X22138515Y-13021793D02*
X22138515Y-12974174D01*
X22138515Y-12974174D02*
X22148039Y-12936079D01*
X22148039Y-12936079D02*
X22157563Y-12917031D01*
X22157563Y-12917031D02*
X22167087Y-12907508D01*
X22167087Y-12907508D02*
X22186134Y-12897984D01*
X22338515Y-13078936D02*
X22348039Y-13088460D01*
X22348039Y-13088460D02*
X22338515Y-13097984D01*
X22338515Y-13097984D02*
X22328991Y-13088460D01*
X22328991Y-13088460D02*
X22338515Y-13078936D01*
X22338515Y-13078936D02*
X22338515Y-13097984D01*
X22471848Y-12897984D02*
X22490896Y-12897984D01*
X22490896Y-12897984D02*
X22509944Y-12907508D01*
X22509944Y-12907508D02*
X22519467Y-12917031D01*
X22519467Y-12917031D02*
X22528991Y-12936079D01*
X22528991Y-12936079D02*
X22538515Y-12974174D01*
X22538515Y-12974174D02*
X22538515Y-13021793D01*
X22538515Y-13021793D02*
X22528991Y-13059888D01*
X22528991Y-13059888D02*
X22519467Y-13078936D01*
X22519467Y-13078936D02*
X22509944Y-13088460D01*
X22509944Y-13088460D02*
X22490896Y-13097984D01*
X22490896Y-13097984D02*
X22471848Y-13097984D01*
X22471848Y-13097984D02*
X22452801Y-13088460D01*
X22452801Y-13088460D02*
X22443277Y-13078936D01*
X22443277Y-13078936D02*
X22433753Y-13059888D01*
X22433753Y-13059888D02*
X22424229Y-13021793D01*
X22424229Y-13021793D02*
X22424229Y-12974174D01*
X22424229Y-12974174D02*
X22433753Y-12936079D01*
X22433753Y-12936079D02*
X22443277Y-12917031D01*
X22443277Y-12917031D02*
X22452801Y-12907508D01*
X22452801Y-12907508D02*
X22471848Y-12897984D01*
X22709944Y-12964650D02*
X22709944Y-13097984D01*
X22662325Y-12888460D02*
X22614706Y-13031317D01*
X22614706Y-13031317D02*
X22738515Y-13031317D01*
X22795658Y-12897984D02*
X22919467Y-12897984D01*
X22919467Y-12897984D02*
X22852801Y-12974174D01*
X22852801Y-12974174D02*
X22881372Y-12974174D01*
X22881372Y-12974174D02*
X22900420Y-12983698D01*
X22900420Y-12983698D02*
X22909944Y-12993222D01*
X22909944Y-12993222D02*
X22919467Y-13012269D01*
X22919467Y-13012269D02*
X22919467Y-13059888D01*
X22919467Y-13059888D02*
X22909944Y-13078936D01*
X22909944Y-13078936D02*
X22900420Y-13088460D01*
X22900420Y-13088460D02*
X22881372Y-13097984D01*
X22881372Y-13097984D02*
X22824229Y-13097984D01*
X22824229Y-13097984D02*
X22805182Y-13088460D01*
X22805182Y-13088460D02*
X22795658Y-13078936D01*
X22986134Y-12897984D02*
X23109944Y-12897984D01*
X23109944Y-12897984D02*
X23043277Y-12974174D01*
X23043277Y-12974174D02*
X23071848Y-12974174D01*
X23071848Y-12974174D02*
X23090896Y-12983698D01*
X23090896Y-12983698D02*
X23100420Y-12993222D01*
X23100420Y-12993222D02*
X23109944Y-13012269D01*
X23109944Y-13012269D02*
X23109944Y-13059888D01*
X23109944Y-13059888D02*
X23100420Y-13078936D01*
X23100420Y-13078936D02*
X23090896Y-13088460D01*
X23090896Y-13088460D02*
X23071848Y-13097984D01*
X23071848Y-13097984D02*
X23014706Y-13097984D01*
X23014706Y-13097984D02*
X22995658Y-13088460D01*
X22995658Y-13088460D02*
X22986134Y-13078936D01*
X23186134Y-12897984D02*
X23186134Y-12936079D01*
X23262325Y-12897984D02*
X23262325Y-12936079D01*
X23557563Y-13174174D02*
X23548039Y-13164650D01*
X23548039Y-13164650D02*
X23528991Y-13136079D01*
X23528991Y-13136079D02*
X23519468Y-13117031D01*
X23519468Y-13117031D02*
X23509944Y-13088460D01*
X23509944Y-13088460D02*
X23500420Y-13040841D01*
X23500420Y-13040841D02*
X23500420Y-13002746D01*
X23500420Y-13002746D02*
X23509944Y-12955127D01*
X23509944Y-12955127D02*
X23519468Y-12926555D01*
X23519468Y-12926555D02*
X23528991Y-12907508D01*
X23528991Y-12907508D02*
X23548039Y-12878936D01*
X23548039Y-12878936D02*
X23557563Y-12869412D01*
X23624229Y-12917031D02*
X23633753Y-12907508D01*
X23633753Y-12907508D02*
X23652801Y-12897984D01*
X23652801Y-12897984D02*
X23700420Y-12897984D01*
X23700420Y-12897984D02*
X23719468Y-12907508D01*
X23719468Y-12907508D02*
X23728991Y-12917031D01*
X23728991Y-12917031D02*
X23738515Y-12936079D01*
X23738515Y-12936079D02*
X23738515Y-12955127D01*
X23738515Y-12955127D02*
X23728991Y-12983698D01*
X23728991Y-12983698D02*
X23614706Y-13097984D01*
X23614706Y-13097984D02*
X23738515Y-13097984D01*
X23976610Y-13097984D02*
X23976610Y-12897984D01*
X24062325Y-13097984D02*
X24062325Y-12993222D01*
X24062325Y-12993222D02*
X24052801Y-12974174D01*
X24052801Y-12974174D02*
X24033753Y-12964650D01*
X24033753Y-12964650D02*
X24005182Y-12964650D01*
X24005182Y-12964650D02*
X23986134Y-12974174D01*
X23986134Y-12974174D02*
X23976610Y-12983698D01*
X24186134Y-13097984D02*
X24167087Y-13088460D01*
X24167087Y-13088460D02*
X24157563Y-13078936D01*
X24157563Y-13078936D02*
X24148039Y-13059888D01*
X24148039Y-13059888D02*
X24148039Y-13002746D01*
X24148039Y-13002746D02*
X24157563Y-12983698D01*
X24157563Y-12983698D02*
X24167087Y-12974174D01*
X24167087Y-12974174D02*
X24186134Y-12964650D01*
X24186134Y-12964650D02*
X24214706Y-12964650D01*
X24214706Y-12964650D02*
X24233753Y-12974174D01*
X24233753Y-12974174D02*
X24243277Y-12983698D01*
X24243277Y-12983698D02*
X24252801Y-13002746D01*
X24252801Y-13002746D02*
X24252801Y-13059888D01*
X24252801Y-13059888D02*
X24243277Y-13078936D01*
X24243277Y-13078936D02*
X24233753Y-13088460D01*
X24233753Y-13088460D02*
X24214706Y-13097984D01*
X24214706Y-13097984D02*
X24186134Y-13097984D01*
X24367087Y-13097984D02*
X24348039Y-13088460D01*
X24348039Y-13088460D02*
X24338515Y-13069412D01*
X24338515Y-13069412D02*
X24338515Y-12897984D01*
X24519468Y-13088460D02*
X24500420Y-13097984D01*
X24500420Y-13097984D02*
X24462325Y-13097984D01*
X24462325Y-13097984D02*
X24443277Y-13088460D01*
X24443277Y-13088460D02*
X24433753Y-13069412D01*
X24433753Y-13069412D02*
X24433753Y-12993222D01*
X24433753Y-12993222D02*
X24443277Y-12974174D01*
X24443277Y-12974174D02*
X24462325Y-12964650D01*
X24462325Y-12964650D02*
X24500420Y-12964650D01*
X24500420Y-12964650D02*
X24519468Y-12974174D01*
X24519468Y-12974174D02*
X24528991Y-12993222D01*
X24528991Y-12993222D02*
X24528991Y-13012269D01*
X24528991Y-13012269D02*
X24433753Y-13031317D01*
X24605182Y-13088460D02*
X24624230Y-13097984D01*
X24624230Y-13097984D02*
X24662325Y-13097984D01*
X24662325Y-13097984D02*
X24681372Y-13088460D01*
X24681372Y-13088460D02*
X24690896Y-13069412D01*
X24690896Y-13069412D02*
X24690896Y-13059888D01*
X24690896Y-13059888D02*
X24681372Y-13040841D01*
X24681372Y-13040841D02*
X24662325Y-13031317D01*
X24662325Y-13031317D02*
X24633753Y-13031317D01*
X24633753Y-13031317D02*
X24614706Y-13021793D01*
X24614706Y-13021793D02*
X24605182Y-13002746D01*
X24605182Y-13002746D02*
X24605182Y-12993222D01*
X24605182Y-12993222D02*
X24614706Y-12974174D01*
X24614706Y-12974174D02*
X24633753Y-12964650D01*
X24633753Y-12964650D02*
X24662325Y-12964650D01*
X24662325Y-12964650D02*
X24681372Y-12974174D01*
X24757563Y-13174174D02*
X24767087Y-13164650D01*
X24767087Y-13164650D02*
X24786134Y-13136079D01*
X24786134Y-13136079D02*
X24795658Y-13117031D01*
X24795658Y-13117031D02*
X24805182Y-13088460D01*
X24805182Y-13088460D02*
X24814706Y-13040841D01*
X24814706Y-13040841D02*
X24814706Y-13002746D01*
X24814706Y-13002746D02*
X24805182Y-12955127D01*
X24805182Y-12955127D02*
X24795658Y-12926555D01*
X24795658Y-12926555D02*
X24786134Y-12907508D01*
X24786134Y-12907508D02*
X24767087Y-12878936D01*
X24767087Y-12878936D02*
X24757563Y-12869412D01*
X25119468Y-13174174D02*
X25109944Y-13164650D01*
X25109944Y-13164650D02*
X25090896Y-13136079D01*
X25090896Y-13136079D02*
X25081372Y-13117031D01*
X25081372Y-13117031D02*
X25071849Y-13088460D01*
X25071849Y-13088460D02*
X25062325Y-13040841D01*
X25062325Y-13040841D02*
X25062325Y-13002746D01*
X25062325Y-13002746D02*
X25071849Y-12955127D01*
X25071849Y-12955127D02*
X25081372Y-12926555D01*
X25081372Y-12926555D02*
X25090896Y-12907508D01*
X25090896Y-12907508D02*
X25109944Y-12878936D01*
X25109944Y-12878936D02*
X25119468Y-12869412D01*
X25195658Y-12964650D02*
X25195658Y-13097984D01*
X25195658Y-12983698D02*
X25205182Y-12974174D01*
X25205182Y-12974174D02*
X25224230Y-12964650D01*
X25224230Y-12964650D02*
X25252801Y-12964650D01*
X25252801Y-12964650D02*
X25271849Y-12974174D01*
X25271849Y-12974174D02*
X25281372Y-12993222D01*
X25281372Y-12993222D02*
X25281372Y-13097984D01*
X25405182Y-13097984D02*
X25386134Y-13088460D01*
X25386134Y-13088460D02*
X25376611Y-13078936D01*
X25376611Y-13078936D02*
X25367087Y-13059888D01*
X25367087Y-13059888D02*
X25367087Y-13002746D01*
X25367087Y-13002746D02*
X25376611Y-12983698D01*
X25376611Y-12983698D02*
X25386134Y-12974174D01*
X25386134Y-12974174D02*
X25405182Y-12964650D01*
X25405182Y-12964650D02*
X25433753Y-12964650D01*
X25433753Y-12964650D02*
X25452801Y-12974174D01*
X25452801Y-12974174D02*
X25462325Y-12983698D01*
X25462325Y-12983698D02*
X25471849Y-13002746D01*
X25471849Y-13002746D02*
X25471849Y-13059888D01*
X25471849Y-13059888D02*
X25462325Y-13078936D01*
X25462325Y-13078936D02*
X25452801Y-13088460D01*
X25452801Y-13088460D02*
X25433753Y-13097984D01*
X25433753Y-13097984D02*
X25405182Y-13097984D01*
X25528992Y-12964650D02*
X25605182Y-12964650D01*
X25557563Y-12897984D02*
X25557563Y-13069412D01*
X25557563Y-13069412D02*
X25567087Y-13088460D01*
X25567087Y-13088460D02*
X25586134Y-13097984D01*
X25586134Y-13097984D02*
X25605182Y-13097984D01*
X25824230Y-12964650D02*
X25824230Y-13164650D01*
X25824230Y-12974174D02*
X25843277Y-12964650D01*
X25843277Y-12964650D02*
X25881373Y-12964650D01*
X25881373Y-12964650D02*
X25900420Y-12974174D01*
X25900420Y-12974174D02*
X25909944Y-12983698D01*
X25909944Y-12983698D02*
X25919468Y-13002746D01*
X25919468Y-13002746D02*
X25919468Y-13059888D01*
X25919468Y-13059888D02*
X25909944Y-13078936D01*
X25909944Y-13078936D02*
X25900420Y-13088460D01*
X25900420Y-13088460D02*
X25881373Y-13097984D01*
X25881373Y-13097984D02*
X25843277Y-13097984D01*
X25843277Y-13097984D02*
X25824230Y-13088460D01*
X26033753Y-13097984D02*
X26014706Y-13088460D01*
X26014706Y-13088460D02*
X26005182Y-13069412D01*
X26005182Y-13069412D02*
X26005182Y-12897984D01*
X26195658Y-13097984D02*
X26195658Y-12993222D01*
X26195658Y-12993222D02*
X26186134Y-12974174D01*
X26186134Y-12974174D02*
X26167087Y-12964650D01*
X26167087Y-12964650D02*
X26128992Y-12964650D01*
X26128992Y-12964650D02*
X26109944Y-12974174D01*
X26195658Y-13088460D02*
X26176611Y-13097984D01*
X26176611Y-13097984D02*
X26128992Y-13097984D01*
X26128992Y-13097984D02*
X26109944Y-13088460D01*
X26109944Y-13088460D02*
X26100420Y-13069412D01*
X26100420Y-13069412D02*
X26100420Y-13050365D01*
X26100420Y-13050365D02*
X26109944Y-13031317D01*
X26109944Y-13031317D02*
X26128992Y-13021793D01*
X26128992Y-13021793D02*
X26176611Y-13021793D01*
X26176611Y-13021793D02*
X26195658Y-13012269D01*
X26262325Y-12964650D02*
X26338515Y-12964650D01*
X26290896Y-12897984D02*
X26290896Y-13069412D01*
X26290896Y-13069412D02*
X26300420Y-13088460D01*
X26300420Y-13088460D02*
X26319468Y-13097984D01*
X26319468Y-13097984D02*
X26338515Y-13097984D01*
X26481373Y-13088460D02*
X26462325Y-13097984D01*
X26462325Y-13097984D02*
X26424230Y-13097984D01*
X26424230Y-13097984D02*
X26405182Y-13088460D01*
X26405182Y-13088460D02*
X26395658Y-13069412D01*
X26395658Y-13069412D02*
X26395658Y-12993222D01*
X26395658Y-12993222D02*
X26405182Y-12974174D01*
X26405182Y-12974174D02*
X26424230Y-12964650D01*
X26424230Y-12964650D02*
X26462325Y-12964650D01*
X26462325Y-12964650D02*
X26481373Y-12974174D01*
X26481373Y-12974174D02*
X26490896Y-12993222D01*
X26490896Y-12993222D02*
X26490896Y-13012269D01*
X26490896Y-13012269D02*
X26395658Y-13031317D01*
X26662325Y-13097984D02*
X26662325Y-12897984D01*
X26662325Y-13088460D02*
X26643277Y-13097984D01*
X26643277Y-13097984D02*
X26605182Y-13097984D01*
X26605182Y-13097984D02*
X26586134Y-13088460D01*
X26586134Y-13088460D02*
X26576611Y-13078936D01*
X26576611Y-13078936D02*
X26567087Y-13059888D01*
X26567087Y-13059888D02*
X26567087Y-13002746D01*
X26567087Y-13002746D02*
X26576611Y-12983698D01*
X26576611Y-12983698D02*
X26586134Y-12974174D01*
X26586134Y-12974174D02*
X26605182Y-12964650D01*
X26605182Y-12964650D02*
X26643277Y-12964650D01*
X26643277Y-12964650D02*
X26662325Y-12974174D01*
X26738515Y-13174174D02*
X26748039Y-13164650D01*
X26748039Y-13164650D02*
X26767087Y-13136079D01*
X26767087Y-13136079D02*
X26776611Y-13117031D01*
X26776611Y-13117031D02*
X26786134Y-13088460D01*
X26786134Y-13088460D02*
X26795658Y-13040841D01*
X26795658Y-13040841D02*
X26795658Y-13002746D01*
X26795658Y-13002746D02*
X26786134Y-12955127D01*
X26786134Y-12955127D02*
X26776611Y-12926555D01*
X26776611Y-12926555D02*
X26767087Y-12907508D01*
X26767087Y-12907508D02*
X26748039Y-12878936D01*
X26748039Y-12878936D02*
X26738515Y-12869412D01*
X19882500Y-13170500D02*
X19882500Y-13370500D01*
X19782500Y-13270500D02*
X19982500Y-13270500D01*
X20328991Y-13228650D02*
X20328991Y-13361984D01*
X20281372Y-13152460D02*
X20233753Y-13295317D01*
X20233753Y-13295317D02*
X20357563Y-13295317D01*
X20433753Y-13342936D02*
X20443277Y-13352460D01*
X20443277Y-13352460D02*
X20433753Y-13361984D01*
X20433753Y-13361984D02*
X20424229Y-13352460D01*
X20424229Y-13352460D02*
X20433753Y-13342936D01*
X20433753Y-13342936D02*
X20433753Y-13361984D01*
X20557563Y-13247698D02*
X20538515Y-13238174D01*
X20538515Y-13238174D02*
X20528991Y-13228650D01*
X20528991Y-13228650D02*
X20519467Y-13209603D01*
X20519467Y-13209603D02*
X20519467Y-13200079D01*
X20519467Y-13200079D02*
X20528991Y-13181031D01*
X20528991Y-13181031D02*
X20538515Y-13171508D01*
X20538515Y-13171508D02*
X20557563Y-13161984D01*
X20557563Y-13161984D02*
X20595658Y-13161984D01*
X20595658Y-13161984D02*
X20614705Y-13171508D01*
X20614705Y-13171508D02*
X20624229Y-13181031D01*
X20624229Y-13181031D02*
X20633753Y-13200079D01*
X20633753Y-13200079D02*
X20633753Y-13209603D01*
X20633753Y-13209603D02*
X20624229Y-13228650D01*
X20624229Y-13228650D02*
X20614705Y-13238174D01*
X20614705Y-13238174D02*
X20595658Y-13247698D01*
X20595658Y-13247698D02*
X20557563Y-13247698D01*
X20557563Y-13247698D02*
X20538515Y-13257222D01*
X20538515Y-13257222D02*
X20528991Y-13266746D01*
X20528991Y-13266746D02*
X20519467Y-13285793D01*
X20519467Y-13285793D02*
X20519467Y-13323888D01*
X20519467Y-13323888D02*
X20528991Y-13342936D01*
X20528991Y-13342936D02*
X20538515Y-13352460D01*
X20538515Y-13352460D02*
X20557563Y-13361984D01*
X20557563Y-13361984D02*
X20595658Y-13361984D01*
X20595658Y-13361984D02*
X20614705Y-13352460D01*
X20614705Y-13352460D02*
X20624229Y-13342936D01*
X20624229Y-13342936D02*
X20633753Y-13323888D01*
X20633753Y-13323888D02*
X20633753Y-13285793D01*
X20633753Y-13285793D02*
X20624229Y-13266746D01*
X20624229Y-13266746D02*
X20614705Y-13257222D01*
X20614705Y-13257222D02*
X20595658Y-13247698D01*
X20728991Y-13361984D02*
X20767086Y-13361984D01*
X20767086Y-13361984D02*
X20786134Y-13352460D01*
X20786134Y-13352460D02*
X20795658Y-13342936D01*
X20795658Y-13342936D02*
X20814705Y-13314365D01*
X20814705Y-13314365D02*
X20824229Y-13276269D01*
X20824229Y-13276269D02*
X20824229Y-13200079D01*
X20824229Y-13200079D02*
X20814705Y-13181031D01*
X20814705Y-13181031D02*
X20805182Y-13171508D01*
X20805182Y-13171508D02*
X20786134Y-13161984D01*
X20786134Y-13161984D02*
X20748039Y-13161984D01*
X20748039Y-13161984D02*
X20728991Y-13171508D01*
X20728991Y-13171508D02*
X20719467Y-13181031D01*
X20719467Y-13181031D02*
X20709944Y-13200079D01*
X20709944Y-13200079D02*
X20709944Y-13247698D01*
X20709944Y-13247698D02*
X20719467Y-13266746D01*
X20719467Y-13266746D02*
X20728991Y-13276269D01*
X20728991Y-13276269D02*
X20748039Y-13285793D01*
X20748039Y-13285793D02*
X20786134Y-13285793D01*
X20786134Y-13285793D02*
X20805182Y-13276269D01*
X20805182Y-13276269D02*
X20814705Y-13266746D01*
X20814705Y-13266746D02*
X20824229Y-13247698D01*
X20948039Y-13161984D02*
X20967086Y-13161984D01*
X20967086Y-13161984D02*
X20986134Y-13171508D01*
X20986134Y-13171508D02*
X20995658Y-13181031D01*
X20995658Y-13181031D02*
X21005182Y-13200079D01*
X21005182Y-13200079D02*
X21014705Y-13238174D01*
X21014705Y-13238174D02*
X21014705Y-13285793D01*
X21014705Y-13285793D02*
X21005182Y-13323888D01*
X21005182Y-13323888D02*
X20995658Y-13342936D01*
X20995658Y-13342936D02*
X20986134Y-13352460D01*
X20986134Y-13352460D02*
X20967086Y-13361984D01*
X20967086Y-13361984D02*
X20948039Y-13361984D01*
X20948039Y-13361984D02*
X20928991Y-13352460D01*
X20928991Y-13352460D02*
X20919467Y-13342936D01*
X20919467Y-13342936D02*
X20909944Y-13323888D01*
X20909944Y-13323888D02*
X20900420Y-13285793D01*
X20900420Y-13285793D02*
X20900420Y-13238174D01*
X20900420Y-13238174D02*
X20909944Y-13200079D01*
X20909944Y-13200079D02*
X20919467Y-13181031D01*
X20919467Y-13181031D02*
X20928991Y-13171508D01*
X20928991Y-13171508D02*
X20948039Y-13161984D01*
X21100420Y-13361984D02*
X21100420Y-13228650D01*
X21100420Y-13247698D02*
X21109944Y-13238174D01*
X21109944Y-13238174D02*
X21128991Y-13228650D01*
X21128991Y-13228650D02*
X21157563Y-13228650D01*
X21157563Y-13228650D02*
X21176610Y-13238174D01*
X21176610Y-13238174D02*
X21186134Y-13257222D01*
X21186134Y-13257222D02*
X21186134Y-13361984D01*
X21186134Y-13257222D02*
X21195658Y-13238174D01*
X21195658Y-13238174D02*
X21214705Y-13228650D01*
X21214705Y-13228650D02*
X21243277Y-13228650D01*
X21243277Y-13228650D02*
X21262325Y-13238174D01*
X21262325Y-13238174D02*
X21271848Y-13257222D01*
X21271848Y-13257222D02*
X21271848Y-13361984D01*
X21367086Y-13361984D02*
X21367086Y-13228650D01*
X21367086Y-13247698D02*
X21376610Y-13238174D01*
X21376610Y-13238174D02*
X21395658Y-13228650D01*
X21395658Y-13228650D02*
X21424229Y-13228650D01*
X21424229Y-13228650D02*
X21443277Y-13238174D01*
X21443277Y-13238174D02*
X21452801Y-13257222D01*
X21452801Y-13257222D02*
X21452801Y-13361984D01*
X21452801Y-13257222D02*
X21462325Y-13238174D01*
X21462325Y-13238174D02*
X21481372Y-13228650D01*
X21481372Y-13228650D02*
X21509944Y-13228650D01*
X21509944Y-13228650D02*
X21528991Y-13238174D01*
X21528991Y-13238174D02*
X21538515Y-13257222D01*
X21538515Y-13257222D02*
X21538515Y-13361984D01*
X21928991Y-13152460D02*
X21757563Y-13409603D01*
X22186134Y-13161984D02*
X22205182Y-13161984D01*
X22205182Y-13161984D02*
X22224229Y-13171508D01*
X22224229Y-13171508D02*
X22233753Y-13181031D01*
X22233753Y-13181031D02*
X22243277Y-13200079D01*
X22243277Y-13200079D02*
X22252801Y-13238174D01*
X22252801Y-13238174D02*
X22252801Y-13285793D01*
X22252801Y-13285793D02*
X22243277Y-13323888D01*
X22243277Y-13323888D02*
X22233753Y-13342936D01*
X22233753Y-13342936D02*
X22224229Y-13352460D01*
X22224229Y-13352460D02*
X22205182Y-13361984D01*
X22205182Y-13361984D02*
X22186134Y-13361984D01*
X22186134Y-13361984D02*
X22167087Y-13352460D01*
X22167087Y-13352460D02*
X22157563Y-13342936D01*
X22157563Y-13342936D02*
X22148039Y-13323888D01*
X22148039Y-13323888D02*
X22138515Y-13285793D01*
X22138515Y-13285793D02*
X22138515Y-13238174D01*
X22138515Y-13238174D02*
X22148039Y-13200079D01*
X22148039Y-13200079D02*
X22157563Y-13181031D01*
X22157563Y-13181031D02*
X22167087Y-13171508D01*
X22167087Y-13171508D02*
X22186134Y-13161984D01*
X22338515Y-13342936D02*
X22348039Y-13352460D01*
X22348039Y-13352460D02*
X22338515Y-13361984D01*
X22338515Y-13361984D02*
X22328991Y-13352460D01*
X22328991Y-13352460D02*
X22338515Y-13342936D01*
X22338515Y-13342936D02*
X22338515Y-13361984D01*
X22538515Y-13361984D02*
X22424229Y-13361984D01*
X22481372Y-13361984D02*
X22481372Y-13161984D01*
X22481372Y-13161984D02*
X22462325Y-13190555D01*
X22462325Y-13190555D02*
X22443277Y-13209603D01*
X22443277Y-13209603D02*
X22424229Y-13219127D01*
X22633753Y-13361984D02*
X22671848Y-13361984D01*
X22671848Y-13361984D02*
X22690896Y-13352460D01*
X22690896Y-13352460D02*
X22700420Y-13342936D01*
X22700420Y-13342936D02*
X22719467Y-13314365D01*
X22719467Y-13314365D02*
X22728991Y-13276269D01*
X22728991Y-13276269D02*
X22728991Y-13200079D01*
X22728991Y-13200079D02*
X22719467Y-13181031D01*
X22719467Y-13181031D02*
X22709944Y-13171508D01*
X22709944Y-13171508D02*
X22690896Y-13161984D01*
X22690896Y-13161984D02*
X22652801Y-13161984D01*
X22652801Y-13161984D02*
X22633753Y-13171508D01*
X22633753Y-13171508D02*
X22624229Y-13181031D01*
X22624229Y-13181031D02*
X22614706Y-13200079D01*
X22614706Y-13200079D02*
X22614706Y-13247698D01*
X22614706Y-13247698D02*
X22624229Y-13266746D01*
X22624229Y-13266746D02*
X22633753Y-13276269D01*
X22633753Y-13276269D02*
X22652801Y-13285793D01*
X22652801Y-13285793D02*
X22690896Y-13285793D01*
X22690896Y-13285793D02*
X22709944Y-13276269D01*
X22709944Y-13276269D02*
X22719467Y-13266746D01*
X22719467Y-13266746D02*
X22728991Y-13247698D01*
X22805182Y-13181031D02*
X22814706Y-13171508D01*
X22814706Y-13171508D02*
X22833753Y-13161984D01*
X22833753Y-13161984D02*
X22881372Y-13161984D01*
X22881372Y-13161984D02*
X22900420Y-13171508D01*
X22900420Y-13171508D02*
X22909944Y-13181031D01*
X22909944Y-13181031D02*
X22919467Y-13200079D01*
X22919467Y-13200079D02*
X22919467Y-13219127D01*
X22919467Y-13219127D02*
X22909944Y-13247698D01*
X22909944Y-13247698D02*
X22795658Y-13361984D01*
X22795658Y-13361984D02*
X22919467Y-13361984D01*
X23100420Y-13161984D02*
X23005182Y-13161984D01*
X23005182Y-13161984D02*
X22995658Y-13257222D01*
X22995658Y-13257222D02*
X23005182Y-13247698D01*
X23005182Y-13247698D02*
X23024229Y-13238174D01*
X23024229Y-13238174D02*
X23071848Y-13238174D01*
X23071848Y-13238174D02*
X23090896Y-13247698D01*
X23090896Y-13247698D02*
X23100420Y-13257222D01*
X23100420Y-13257222D02*
X23109944Y-13276269D01*
X23109944Y-13276269D02*
X23109944Y-13323888D01*
X23109944Y-13323888D02*
X23100420Y-13342936D01*
X23100420Y-13342936D02*
X23090896Y-13352460D01*
X23090896Y-13352460D02*
X23071848Y-13361984D01*
X23071848Y-13361984D02*
X23024229Y-13361984D01*
X23024229Y-13361984D02*
X23005182Y-13352460D01*
X23005182Y-13352460D02*
X22995658Y-13342936D01*
X23186134Y-13161984D02*
X23186134Y-13200079D01*
X23262325Y-13161984D02*
X23262325Y-13200079D01*
X23557563Y-13438174D02*
X23548039Y-13428650D01*
X23548039Y-13428650D02*
X23528991Y-13400079D01*
X23528991Y-13400079D02*
X23519468Y-13381031D01*
X23519468Y-13381031D02*
X23509944Y-13352460D01*
X23509944Y-13352460D02*
X23500420Y-13304841D01*
X23500420Y-13304841D02*
X23500420Y-13266746D01*
X23500420Y-13266746D02*
X23509944Y-13219127D01*
X23509944Y-13219127D02*
X23519468Y-13190555D01*
X23519468Y-13190555D02*
X23528991Y-13171508D01*
X23528991Y-13171508D02*
X23548039Y-13142936D01*
X23548039Y-13142936D02*
X23557563Y-13133412D01*
X23624229Y-13181031D02*
X23633753Y-13171508D01*
X23633753Y-13171508D02*
X23652801Y-13161984D01*
X23652801Y-13161984D02*
X23700420Y-13161984D01*
X23700420Y-13161984D02*
X23719468Y-13171508D01*
X23719468Y-13171508D02*
X23728991Y-13181031D01*
X23728991Y-13181031D02*
X23738515Y-13200079D01*
X23738515Y-13200079D02*
X23738515Y-13219127D01*
X23738515Y-13219127D02*
X23728991Y-13247698D01*
X23728991Y-13247698D02*
X23614706Y-13361984D01*
X23614706Y-13361984D02*
X23738515Y-13361984D01*
X23976610Y-13361984D02*
X23976610Y-13161984D01*
X24062325Y-13361984D02*
X24062325Y-13257222D01*
X24062325Y-13257222D02*
X24052801Y-13238174D01*
X24052801Y-13238174D02*
X24033753Y-13228650D01*
X24033753Y-13228650D02*
X24005182Y-13228650D01*
X24005182Y-13228650D02*
X23986134Y-13238174D01*
X23986134Y-13238174D02*
X23976610Y-13247698D01*
X24186134Y-13361984D02*
X24167087Y-13352460D01*
X24167087Y-13352460D02*
X24157563Y-13342936D01*
X24157563Y-13342936D02*
X24148039Y-13323888D01*
X24148039Y-13323888D02*
X24148039Y-13266746D01*
X24148039Y-13266746D02*
X24157563Y-13247698D01*
X24157563Y-13247698D02*
X24167087Y-13238174D01*
X24167087Y-13238174D02*
X24186134Y-13228650D01*
X24186134Y-13228650D02*
X24214706Y-13228650D01*
X24214706Y-13228650D02*
X24233753Y-13238174D01*
X24233753Y-13238174D02*
X24243277Y-13247698D01*
X24243277Y-13247698D02*
X24252801Y-13266746D01*
X24252801Y-13266746D02*
X24252801Y-13323888D01*
X24252801Y-13323888D02*
X24243277Y-13342936D01*
X24243277Y-13342936D02*
X24233753Y-13352460D01*
X24233753Y-13352460D02*
X24214706Y-13361984D01*
X24214706Y-13361984D02*
X24186134Y-13361984D01*
X24367087Y-13361984D02*
X24348039Y-13352460D01*
X24348039Y-13352460D02*
X24338515Y-13333412D01*
X24338515Y-13333412D02*
X24338515Y-13161984D01*
X24519468Y-13352460D02*
X24500420Y-13361984D01*
X24500420Y-13361984D02*
X24462325Y-13361984D01*
X24462325Y-13361984D02*
X24443277Y-13352460D01*
X24443277Y-13352460D02*
X24433753Y-13333412D01*
X24433753Y-13333412D02*
X24433753Y-13257222D01*
X24433753Y-13257222D02*
X24443277Y-13238174D01*
X24443277Y-13238174D02*
X24462325Y-13228650D01*
X24462325Y-13228650D02*
X24500420Y-13228650D01*
X24500420Y-13228650D02*
X24519468Y-13238174D01*
X24519468Y-13238174D02*
X24528991Y-13257222D01*
X24528991Y-13257222D02*
X24528991Y-13276269D01*
X24528991Y-13276269D02*
X24433753Y-13295317D01*
X24605182Y-13352460D02*
X24624230Y-13361984D01*
X24624230Y-13361984D02*
X24662325Y-13361984D01*
X24662325Y-13361984D02*
X24681372Y-13352460D01*
X24681372Y-13352460D02*
X24690896Y-13333412D01*
X24690896Y-13333412D02*
X24690896Y-13323888D01*
X24690896Y-13323888D02*
X24681372Y-13304841D01*
X24681372Y-13304841D02*
X24662325Y-13295317D01*
X24662325Y-13295317D02*
X24633753Y-13295317D01*
X24633753Y-13295317D02*
X24614706Y-13285793D01*
X24614706Y-13285793D02*
X24605182Y-13266746D01*
X24605182Y-13266746D02*
X24605182Y-13257222D01*
X24605182Y-13257222D02*
X24614706Y-13238174D01*
X24614706Y-13238174D02*
X24633753Y-13228650D01*
X24633753Y-13228650D02*
X24662325Y-13228650D01*
X24662325Y-13228650D02*
X24681372Y-13238174D01*
X24757563Y-13438174D02*
X24767087Y-13428650D01*
X24767087Y-13428650D02*
X24786134Y-13400079D01*
X24786134Y-13400079D02*
X24795658Y-13381031D01*
X24795658Y-13381031D02*
X24805182Y-13352460D01*
X24805182Y-13352460D02*
X24814706Y-13304841D01*
X24814706Y-13304841D02*
X24814706Y-13266746D01*
X24814706Y-13266746D02*
X24805182Y-13219127D01*
X24805182Y-13219127D02*
X24795658Y-13190555D01*
X24795658Y-13190555D02*
X24786134Y-13171508D01*
X24786134Y-13171508D02*
X24767087Y-13142936D01*
X24767087Y-13142936D02*
X24757563Y-13133412D01*
X25119468Y-13438174D02*
X25109944Y-13428650D01*
X25109944Y-13428650D02*
X25090896Y-13400079D01*
X25090896Y-13400079D02*
X25081372Y-13381031D01*
X25081372Y-13381031D02*
X25071849Y-13352460D01*
X25071849Y-13352460D02*
X25062325Y-13304841D01*
X25062325Y-13304841D02*
X25062325Y-13266746D01*
X25062325Y-13266746D02*
X25071849Y-13219127D01*
X25071849Y-13219127D02*
X25081372Y-13190555D01*
X25081372Y-13190555D02*
X25090896Y-13171508D01*
X25090896Y-13171508D02*
X25109944Y-13142936D01*
X25109944Y-13142936D02*
X25119468Y-13133412D01*
X25195658Y-13228650D02*
X25195658Y-13361984D01*
X25195658Y-13247698D02*
X25205182Y-13238174D01*
X25205182Y-13238174D02*
X25224230Y-13228650D01*
X25224230Y-13228650D02*
X25252801Y-13228650D01*
X25252801Y-13228650D02*
X25271849Y-13238174D01*
X25271849Y-13238174D02*
X25281372Y-13257222D01*
X25281372Y-13257222D02*
X25281372Y-13361984D01*
X25405182Y-13361984D02*
X25386134Y-13352460D01*
X25386134Y-13352460D02*
X25376611Y-13342936D01*
X25376611Y-13342936D02*
X25367087Y-13323888D01*
X25367087Y-13323888D02*
X25367087Y-13266746D01*
X25367087Y-13266746D02*
X25376611Y-13247698D01*
X25376611Y-13247698D02*
X25386134Y-13238174D01*
X25386134Y-13238174D02*
X25405182Y-13228650D01*
X25405182Y-13228650D02*
X25433753Y-13228650D01*
X25433753Y-13228650D02*
X25452801Y-13238174D01*
X25452801Y-13238174D02*
X25462325Y-13247698D01*
X25462325Y-13247698D02*
X25471849Y-13266746D01*
X25471849Y-13266746D02*
X25471849Y-13323888D01*
X25471849Y-13323888D02*
X25462325Y-13342936D01*
X25462325Y-13342936D02*
X25452801Y-13352460D01*
X25452801Y-13352460D02*
X25433753Y-13361984D01*
X25433753Y-13361984D02*
X25405182Y-13361984D01*
X25528992Y-13228650D02*
X25605182Y-13228650D01*
X25557563Y-13161984D02*
X25557563Y-13333412D01*
X25557563Y-13333412D02*
X25567087Y-13352460D01*
X25567087Y-13352460D02*
X25586134Y-13361984D01*
X25586134Y-13361984D02*
X25605182Y-13361984D01*
X25824230Y-13228650D02*
X25824230Y-13428650D01*
X25824230Y-13238174D02*
X25843277Y-13228650D01*
X25843277Y-13228650D02*
X25881373Y-13228650D01*
X25881373Y-13228650D02*
X25900420Y-13238174D01*
X25900420Y-13238174D02*
X25909944Y-13247698D01*
X25909944Y-13247698D02*
X25919468Y-13266746D01*
X25919468Y-13266746D02*
X25919468Y-13323888D01*
X25919468Y-13323888D02*
X25909944Y-13342936D01*
X25909944Y-13342936D02*
X25900420Y-13352460D01*
X25900420Y-13352460D02*
X25881373Y-13361984D01*
X25881373Y-13361984D02*
X25843277Y-13361984D01*
X25843277Y-13361984D02*
X25824230Y-13352460D01*
X26033753Y-13361984D02*
X26014706Y-13352460D01*
X26014706Y-13352460D02*
X26005182Y-13333412D01*
X26005182Y-13333412D02*
X26005182Y-13161984D01*
X26195658Y-13361984D02*
X26195658Y-13257222D01*
X26195658Y-13257222D02*
X26186134Y-13238174D01*
X26186134Y-13238174D02*
X26167087Y-13228650D01*
X26167087Y-13228650D02*
X26128992Y-13228650D01*
X26128992Y-13228650D02*
X26109944Y-13238174D01*
X26195658Y-13352460D02*
X26176611Y-13361984D01*
X26176611Y-13361984D02*
X26128992Y-13361984D01*
X26128992Y-13361984D02*
X26109944Y-13352460D01*
X26109944Y-13352460D02*
X26100420Y-13333412D01*
X26100420Y-13333412D02*
X26100420Y-13314365D01*
X26100420Y-13314365D02*
X26109944Y-13295317D01*
X26109944Y-13295317D02*
X26128992Y-13285793D01*
X26128992Y-13285793D02*
X26176611Y-13285793D01*
X26176611Y-13285793D02*
X26195658Y-13276269D01*
X26262325Y-13228650D02*
X26338515Y-13228650D01*
X26290896Y-13161984D02*
X26290896Y-13333412D01*
X26290896Y-13333412D02*
X26300420Y-13352460D01*
X26300420Y-13352460D02*
X26319468Y-13361984D01*
X26319468Y-13361984D02*
X26338515Y-13361984D01*
X26481373Y-13352460D02*
X26462325Y-13361984D01*
X26462325Y-13361984D02*
X26424230Y-13361984D01*
X26424230Y-13361984D02*
X26405182Y-13352460D01*
X26405182Y-13352460D02*
X26395658Y-13333412D01*
X26395658Y-13333412D02*
X26395658Y-13257222D01*
X26395658Y-13257222D02*
X26405182Y-13238174D01*
X26405182Y-13238174D02*
X26424230Y-13228650D01*
X26424230Y-13228650D02*
X26462325Y-13228650D01*
X26462325Y-13228650D02*
X26481373Y-13238174D01*
X26481373Y-13238174D02*
X26490896Y-13257222D01*
X26490896Y-13257222D02*
X26490896Y-13276269D01*
X26490896Y-13276269D02*
X26395658Y-13295317D01*
X26662325Y-13361984D02*
X26662325Y-13161984D01*
X26662325Y-13352460D02*
X26643277Y-13361984D01*
X26643277Y-13361984D02*
X26605182Y-13361984D01*
X26605182Y-13361984D02*
X26586134Y-13352460D01*
X26586134Y-13352460D02*
X26576611Y-13342936D01*
X26576611Y-13342936D02*
X26567087Y-13323888D01*
X26567087Y-13323888D02*
X26567087Y-13266746D01*
X26567087Y-13266746D02*
X26576611Y-13247698D01*
X26576611Y-13247698D02*
X26586134Y-13238174D01*
X26586134Y-13238174D02*
X26605182Y-13228650D01*
X26605182Y-13228650D02*
X26643277Y-13228650D01*
X26643277Y-13228650D02*
X26662325Y-13238174D01*
X26738515Y-13438174D02*
X26748039Y-13428650D01*
X26748039Y-13428650D02*
X26767087Y-13400079D01*
X26767087Y-13400079D02*
X26776611Y-13381031D01*
X26776611Y-13381031D02*
X26786134Y-13352460D01*
X26786134Y-13352460D02*
X26795658Y-13304841D01*
X26795658Y-13304841D02*
X26795658Y-13266746D01*
X26795658Y-13266746D02*
X26786134Y-13219127D01*
X26786134Y-13219127D02*
X26776611Y-13190555D01*
X26776611Y-13190555D02*
X26767087Y-13171508D01*
X26767087Y-13171508D02*
X26748039Y-13142936D01*
X26748039Y-13142936D02*
X26738515Y-13133412D01*
M02*
