G04 #@! TF.GenerationSoftware,KiCad,Pcbnew,8.0.4*
G04 #@! TF.CreationDate,2024-08-02T16:29:59-04:00*
G04 #@! TF.ProjectId,adcesp32,61646365-7370-4333-922e-6b696361645f,rev?*
G04 #@! TF.SameCoordinates,Original*
G04 #@! TF.FileFunction,Soldermask,Bot*
G04 #@! TF.FilePolarity,Negative*
%FSLAX46Y46*%
G04 Gerber Fmt 4.6, Leading zero omitted, Abs format (unit mm)*
G04 Created by KiCad (PCBNEW 8.0.4) date 2024-08-02 16:29:59*
%MOMM*%
%LPD*%
G01*
G04 APERTURE LIST*
%ADD10R,0.850000X0.850000*%
%ADD11O,0.850000X0.850000*%
%ADD12C,1.100000*%
%ADD13R,1.650000X1.650000*%
%ADD14C,1.650000*%
%ADD15C,0.650000*%
%ADD16O,1.000000X2.100000*%
%ADD17O,1.000000X1.600000*%
%ADD18C,4.890000*%
%ADD19R,3.750000X3.750000*%
%ADD20C,1.800000*%
%ADD21C,3.750000*%
G04 APERTURE END LIST*
D10*
X228250000Y-96000000D03*
D11*
X229250000Y-96000000D03*
X230250000Y-96000000D03*
X231250000Y-96000000D03*
X232250000Y-96000000D03*
D12*
X201500000Y-91250000D03*
X206500000Y-91250000D03*
D13*
X201500000Y-86450000D03*
D14*
X206500000Y-94850000D03*
X209600000Y-89650000D03*
X201500000Y-95750000D03*
D10*
X231500000Y-99000000D03*
D11*
X230500000Y-99000000D03*
X229500000Y-99000000D03*
X228500000Y-99000000D03*
D10*
X231505700Y-103294300D03*
D11*
X231505700Y-104294300D03*
X231505700Y-105294300D03*
X231505700Y-106294300D03*
X231505700Y-107294300D03*
D10*
X231505700Y-111294300D03*
D11*
X231505700Y-112294300D03*
X231505700Y-113294300D03*
X231505700Y-114294300D03*
D15*
X210860000Y-116250000D03*
X216640000Y-116250000D03*
D16*
X209430000Y-115720000D03*
D17*
X209430000Y-119900000D03*
D16*
X218070000Y-115720000D03*
D17*
X218070000Y-119900000D03*
D10*
X221500000Y-84250000D03*
D11*
X221500000Y-85250000D03*
X221500000Y-86250000D03*
X221500000Y-87250000D03*
D18*
X230750000Y-65350000D03*
X230750000Y-89650000D03*
D19*
X230750000Y-84500000D03*
D20*
X226000000Y-80500000D03*
D21*
X230750000Y-70500000D03*
D20*
X226000000Y-66500000D03*
M02*
