G04 #@! TF.GenerationSoftware,KiCad,Pcbnew,8.0.4*
G04 #@! TF.CreationDate,2024-08-02T16:29:59-04:00*
G04 #@! TF.ProjectId,adcesp32,61646365-7370-4333-922e-6b696361645f,rev?*
G04 #@! TF.SameCoordinates,Original*
G04 #@! TF.FileFunction,Copper,L2,Bot*
G04 #@! TF.FilePolarity,Positive*
%FSLAX46Y46*%
G04 Gerber Fmt 4.6, Leading zero omitted, Abs format (unit mm)*
G04 Created by KiCad (PCBNEW 8.0.4) date 2024-08-02 16:29:59*
%MOMM*%
%LPD*%
G01*
G04 APERTURE LIST*
G04 #@! TA.AperFunction,ComponentPad*
%ADD10R,0.850000X0.850000*%
G04 #@! TD*
G04 #@! TA.AperFunction,ComponentPad*
%ADD11O,0.850000X0.850000*%
G04 #@! TD*
G04 #@! TA.AperFunction,ComponentPad*
%ADD12R,1.650000X1.650000*%
G04 #@! TD*
G04 #@! TA.AperFunction,ComponentPad*
%ADD13C,1.650000*%
G04 #@! TD*
G04 #@! TA.AperFunction,ComponentPad*
%ADD14O,1.000000X2.100000*%
G04 #@! TD*
G04 #@! TA.AperFunction,ComponentPad*
%ADD15O,1.000000X1.600000*%
G04 #@! TD*
G04 #@! TA.AperFunction,HeatsinkPad*
%ADD16C,0.600000*%
G04 #@! TD*
G04 #@! TA.AperFunction,ComponentPad*
%ADD17R,3.750000X3.750000*%
G04 #@! TD*
G04 #@! TA.AperFunction,ComponentPad*
%ADD18C,1.800000*%
G04 #@! TD*
G04 #@! TA.AperFunction,ComponentPad*
%ADD19C,3.750000*%
G04 #@! TD*
G04 #@! TA.AperFunction,ViaPad*
%ADD20C,0.600000*%
G04 #@! TD*
G04 #@! TA.AperFunction,Conductor*
%ADD21C,0.200000*%
G04 #@! TD*
G04 APERTURE END LIST*
D10*
X228250000Y-96000000D03*
D11*
X229250000Y-96000000D03*
X230250000Y-96000000D03*
X231250000Y-96000000D03*
X232250000Y-96000000D03*
D12*
X201500000Y-86450000D03*
D13*
X206500000Y-94850000D03*
X209600000Y-89650000D03*
X201500000Y-95750000D03*
D10*
X231500000Y-99000000D03*
D11*
X230500000Y-99000000D03*
X229500000Y-99000000D03*
X228500000Y-99000000D03*
D10*
X231505700Y-103294300D03*
D11*
X231505700Y-104294300D03*
X231505700Y-105294300D03*
X231505700Y-106294300D03*
X231505700Y-107294300D03*
D10*
X231505700Y-111294300D03*
D11*
X231505700Y-112294300D03*
X231505700Y-113294300D03*
X231505700Y-114294300D03*
D14*
X209430000Y-115720000D03*
D15*
X209430000Y-119900000D03*
D14*
X218070000Y-115720000D03*
D15*
X218070000Y-119900000D03*
D10*
X221500000Y-84250000D03*
D11*
X221500000Y-85250000D03*
X221500000Y-86250000D03*
X221500000Y-87250000D03*
D16*
X211100000Y-70130000D03*
X211100000Y-71530000D03*
X211800000Y-69430000D03*
X211800000Y-70830000D03*
X211800000Y-72230000D03*
X212500000Y-70130000D03*
X212500000Y-71530000D03*
X213200000Y-69430000D03*
X213200000Y-70830000D03*
X213200000Y-72230000D03*
X213900000Y-70130000D03*
X213900000Y-71530000D03*
D17*
X230750000Y-84500000D03*
D18*
X226000000Y-80500000D03*
D19*
X230750000Y-70500000D03*
D18*
X226000000Y-66500000D03*
D20*
X215280800Y-92275100D03*
X213552700Y-106372600D03*
X216200000Y-113575900D03*
X211300000Y-113567100D03*
X216563100Y-87291600D03*
X218423700Y-93925900D03*
X219724500Y-89088300D03*
X222164400Y-96071100D03*
X216574300Y-88611600D03*
X217857600Y-92979600D03*
X212140400Y-101679900D03*
X216500000Y-98162200D03*
X221093500Y-90122200D03*
X218000000Y-89760600D03*
X216905300Y-92283400D03*
X220651900Y-91344000D03*
X205250000Y-102351600D03*
X213699900Y-111102900D03*
X213136000Y-112974200D03*
X204198300Y-102228200D03*
X219729700Y-86655200D03*
X221478900Y-74445100D03*
X226355800Y-99724000D03*
X207268800Y-79599600D03*
X203998200Y-77733400D03*
X220750000Y-117027200D03*
X206513200Y-67080200D03*
D21*
X222476700Y-84500000D02*
X222226700Y-84250000D01*
X209430000Y-119900000D02*
X209430000Y-118798300D01*
X215280800Y-87709100D02*
X215280800Y-92275100D01*
X218070000Y-114547700D02*
X218070000Y-114368300D01*
X209430000Y-115720000D02*
X209430000Y-118798300D01*
X218070000Y-115345800D02*
X218070000Y-115720000D01*
X213200000Y-69430000D02*
X213900000Y-70130000D01*
X218070000Y-114971600D02*
X218070000Y-114547700D01*
X230750000Y-84500000D02*
X222476700Y-84500000D01*
X221500000Y-84250000D02*
X218739900Y-84250000D01*
X218070000Y-114368300D02*
X213552700Y-109851000D01*
X218739900Y-84250000D02*
X215280800Y-87709100D01*
X212500000Y-70130000D02*
X213200000Y-69430000D01*
X218070000Y-119349100D02*
X218070000Y-118798300D01*
X218070000Y-115345800D02*
X218070000Y-114971600D01*
X218070000Y-119900000D02*
X218070000Y-119349100D01*
X218070000Y-119349100D02*
X217519200Y-118798300D01*
X218070000Y-115720000D02*
X218070000Y-118798300D01*
X213552700Y-109851000D02*
X213552700Y-106372600D01*
X221500000Y-84250000D02*
X222226700Y-84250000D01*
X217519200Y-118798300D02*
X209430000Y-118798300D01*
X211100000Y-70130000D02*
X211800000Y-69430000D01*
X211300000Y-113567100D02*
X211308800Y-113575900D01*
X211308800Y-113575900D02*
X216200000Y-113575900D01*
X232418200Y-95048600D02*
X231858400Y-95048600D01*
X232977800Y-95608200D02*
X232418200Y-95048600D01*
X231505700Y-114294300D02*
X232232400Y-114294300D01*
X222226700Y-85416900D02*
X222226700Y-85250000D01*
X232232400Y-114294300D02*
X232977800Y-113548900D01*
X221628800Y-85250000D02*
X221500000Y-85250000D01*
X218604700Y-85250000D02*
X221500000Y-85250000D01*
X232977800Y-113548900D02*
X232977800Y-95608200D01*
X216563100Y-87291600D02*
X218604700Y-85250000D01*
X231858400Y-95048600D02*
X222226700Y-85416900D01*
X221628800Y-85250000D02*
X222226700Y-85250000D01*
X207661000Y-90452200D02*
X207661000Y-93689000D01*
X207661000Y-93689000D02*
X206500000Y-94850000D01*
X226000000Y-66500000D02*
X213876800Y-66500000D01*
X213876800Y-66500000D02*
X206665300Y-73711500D01*
X206665300Y-89456500D02*
X207661000Y-90452200D01*
X206665300Y-73711500D02*
X206665300Y-89456500D01*
X218750000Y-80500000D02*
X209600000Y-89650000D01*
X226000000Y-80500000D02*
X218750000Y-80500000D01*
X221582700Y-97476200D02*
X220759300Y-96652800D01*
X227773300Y-99000000D02*
X227472000Y-98698700D01*
X220759300Y-96261500D02*
X218423700Y-93925900D01*
X228500000Y-99000000D02*
X227773300Y-99000000D01*
X221974000Y-97476200D02*
X221582700Y-97476200D01*
X227472000Y-98698700D02*
X223196500Y-98698700D01*
X223196500Y-98698700D02*
X221974000Y-97476200D01*
X220759300Y-96652800D02*
X220759300Y-96261500D01*
X219773500Y-89137300D02*
X219724500Y-89088300D01*
X224114100Y-89137400D02*
X224114100Y-89137300D01*
X224114100Y-89137300D02*
X219773500Y-89137300D01*
X230250000Y-96000000D02*
X230250000Y-95273300D01*
X230250000Y-95273300D02*
X224114100Y-89137400D01*
X222820400Y-96071100D02*
X222164400Y-96071100D01*
X231815700Y-97161000D02*
X223910300Y-97161000D01*
X232250000Y-96726700D02*
X231815700Y-97161000D01*
X223910300Y-97161000D02*
X222820400Y-96071100D01*
X232250000Y-96000000D02*
X232250000Y-96726700D01*
X220576700Y-86053400D02*
X220773300Y-86250000D01*
X216574300Y-88611600D02*
X219132500Y-86053400D01*
X219132500Y-86053400D02*
X220576700Y-86053400D01*
X221500000Y-86250000D02*
X220773300Y-86250000D01*
X221161000Y-95719500D02*
X221161000Y-96486500D01*
X221749000Y-97074500D02*
X222394300Y-97074500D01*
X222394300Y-97074500D02*
X223593100Y-98273300D01*
X218421100Y-92979600D02*
X221161000Y-95719500D01*
X230500000Y-99000000D02*
X230500000Y-98273300D01*
X223593100Y-98273300D02*
X230500000Y-98273300D01*
X217857600Y-92979600D02*
X218421100Y-92979600D01*
X221161000Y-96486500D02*
X221749000Y-97074500D01*
X212140400Y-101679900D02*
X215658100Y-98162200D01*
X215658100Y-98162200D02*
X216500000Y-98162200D01*
X224098900Y-90122200D02*
X221093500Y-90122200D01*
X229250000Y-95273300D02*
X224098900Y-90122200D01*
X229250000Y-96000000D02*
X229250000Y-95273300D01*
X216275200Y-92736700D02*
X222660700Y-99122200D01*
X218000000Y-89760600D02*
X216275200Y-91485400D01*
X222660700Y-99122200D02*
X226737600Y-99122200D01*
X216275200Y-91485400D02*
X216275200Y-92736700D01*
X226737600Y-99122200D02*
X227342100Y-99726700D01*
X227342100Y-99726700D02*
X229500000Y-99726700D01*
X229500000Y-99000000D02*
X229500000Y-99726700D01*
X221915300Y-96672800D02*
X222568500Y-96672800D01*
X223517700Y-97622000D02*
X230848700Y-97622000D01*
X231500000Y-99000000D02*
X231500000Y-98273300D01*
X216905300Y-92283400D02*
X218322000Y-92283400D01*
X221562700Y-95524100D02*
X221562700Y-96320200D01*
X230848700Y-97622000D02*
X231500000Y-98273300D01*
X218322000Y-92283400D02*
X221562700Y-95524100D01*
X222568500Y-96672800D02*
X223517700Y-97622000D01*
X221562700Y-96320200D02*
X221915300Y-96672800D01*
X231250000Y-96000000D02*
X231250000Y-96726700D01*
X226034600Y-96726700D02*
X220651900Y-91344000D01*
X231250000Y-96726700D02*
X226034600Y-96726700D01*
X213699900Y-111102900D02*
X213699900Y-110801500D01*
X213699900Y-110801500D02*
X205250000Y-102351600D01*
X204198300Y-104036500D02*
X204198300Y-102228200D01*
X213136000Y-112974200D02*
X204198300Y-104036500D01*
X222247300Y-90724000D02*
X220497800Y-90724000D01*
X219115300Y-89341500D02*
X219115300Y-87269600D01*
X227523300Y-96000000D02*
X222247300Y-90724000D01*
X219115300Y-87269600D02*
X219729700Y-86655200D01*
X220497800Y-90724000D02*
X219115300Y-89341500D01*
X228250000Y-96000000D02*
X227523300Y-96000000D01*
X208455500Y-90108500D02*
X208455500Y-87468500D01*
X212698500Y-91817100D02*
X210164100Y-91817100D01*
X208455500Y-87468500D02*
X221478900Y-74445100D01*
X210164100Y-91817100D02*
X208455500Y-90108500D01*
X230779000Y-103294300D02*
X224175700Y-103294300D01*
X224175700Y-103294300D02*
X212698500Y-91817100D01*
X231505700Y-103294300D02*
X230779000Y-103294300D01*
X226760200Y-100128400D02*
X226355800Y-99724000D01*
X231505700Y-106294300D02*
X232232400Y-106294300D01*
X232232400Y-106294300D02*
X232232400Y-102728500D01*
X229632300Y-100128400D02*
X226760200Y-100128400D01*
X232232400Y-102728500D02*
X229632300Y-100128400D01*
X210279300Y-92502400D02*
X207268800Y-89491900D01*
X224348400Y-104294300D02*
X212556500Y-92502400D01*
X207268800Y-89491900D02*
X207268800Y-79599600D01*
X212556500Y-92502400D02*
X210279300Y-92502400D01*
X231505700Y-104294300D02*
X224348400Y-104294300D01*
X224521000Y-105294300D02*
X216676500Y-97449800D01*
X231505700Y-105294300D02*
X224521000Y-105294300D01*
X203998200Y-93958000D02*
X203998200Y-77733400D01*
X216676500Y-97449800D02*
X207490000Y-97449800D01*
X207490000Y-97449800D02*
X203998200Y-93958000D01*
X220750000Y-117027200D02*
X220750000Y-111346400D01*
X220750000Y-111346400D02*
X203358300Y-93954700D01*
X203358300Y-93954700D02*
X203358300Y-70235100D01*
X203358300Y-70235100D02*
X206513200Y-67080200D01*
G04 #@! TA.AperFunction,Conductor*
G36*
X208350945Y-61620014D02*
G01*
X233878359Y-61998197D01*
X233945097Y-62018872D01*
X233990065Y-62072348D01*
X234000519Y-62121653D01*
X234175993Y-103182300D01*
X234248504Y-120150000D01*
X234249466Y-120374970D01*
X234230068Y-120442093D01*
X234177460Y-120488073D01*
X234125467Y-120499500D01*
X219181112Y-120499500D01*
X219114073Y-120479815D01*
X219068318Y-120427011D01*
X219058374Y-120357853D01*
X219059494Y-120351310D01*
X219070000Y-120298489D01*
X219070000Y-120150000D01*
X218370000Y-120150000D01*
X218370000Y-119650000D01*
X219070000Y-119650000D01*
X219070000Y-119501508D01*
X219069999Y-119501504D01*
X219031572Y-119308318D01*
X219031569Y-119308306D01*
X218956192Y-119126328D01*
X218956185Y-119126315D01*
X218846751Y-118962537D01*
X218846748Y-118962533D01*
X218707466Y-118823251D01*
X218707462Y-118823248D01*
X218543684Y-118713814D01*
X218543671Y-118713807D01*
X218361691Y-118638429D01*
X218361683Y-118638427D01*
X218320000Y-118630135D01*
X218320000Y-119433011D01*
X218310060Y-119415795D01*
X218254205Y-119359940D01*
X218185796Y-119320444D01*
X218109496Y-119300000D01*
X218030504Y-119300000D01*
X217954204Y-119320444D01*
X217885795Y-119359940D01*
X217829940Y-119415795D01*
X217820000Y-119433011D01*
X217820000Y-118630136D01*
X217819999Y-118630135D01*
X217778316Y-118638427D01*
X217778308Y-118638429D01*
X217596328Y-118713807D01*
X217596315Y-118713814D01*
X217432537Y-118823248D01*
X217432533Y-118823251D01*
X217293251Y-118962533D01*
X217293248Y-118962537D01*
X217183814Y-119126315D01*
X217183807Y-119126328D01*
X217108430Y-119308306D01*
X217108427Y-119308318D01*
X217070000Y-119501504D01*
X217070000Y-119650000D01*
X217770000Y-119650000D01*
X217770000Y-120150000D01*
X217070000Y-120150000D01*
X217070000Y-120298489D01*
X217080506Y-120351310D01*
X217074277Y-120420902D01*
X217031414Y-120476078D01*
X216965524Y-120499322D01*
X216958888Y-120499500D01*
X210541112Y-120499500D01*
X210474073Y-120479815D01*
X210428318Y-120427011D01*
X210418374Y-120357853D01*
X210419494Y-120351310D01*
X210430000Y-120298489D01*
X210430000Y-120150000D01*
X209730000Y-120150000D01*
X209730000Y-119650000D01*
X210430000Y-119650000D01*
X210430000Y-119501508D01*
X210429999Y-119501504D01*
X210391572Y-119308318D01*
X210391569Y-119308306D01*
X210316192Y-119126328D01*
X210316185Y-119126315D01*
X210206751Y-118962537D01*
X210206748Y-118962533D01*
X210067466Y-118823251D01*
X210067462Y-118823248D01*
X209903684Y-118713814D01*
X209903671Y-118713807D01*
X209721691Y-118638429D01*
X209721683Y-118638427D01*
X209680000Y-118630135D01*
X209680000Y-119433011D01*
X209670060Y-119415795D01*
X209614205Y-119359940D01*
X209545796Y-119320444D01*
X209469496Y-119300000D01*
X209390504Y-119300000D01*
X209314204Y-119320444D01*
X209245795Y-119359940D01*
X209189940Y-119415795D01*
X209180000Y-119433011D01*
X209180000Y-118630136D01*
X209179999Y-118630135D01*
X209138316Y-118638427D01*
X209138308Y-118638429D01*
X208956328Y-118713807D01*
X208956315Y-118713814D01*
X208792537Y-118823248D01*
X208792533Y-118823251D01*
X208653251Y-118962533D01*
X208653248Y-118962537D01*
X208543814Y-119126315D01*
X208543807Y-119126328D01*
X208468430Y-119308306D01*
X208468427Y-119308318D01*
X208430000Y-119501504D01*
X208430000Y-119650000D01*
X209130000Y-119650000D01*
X209130000Y-120150000D01*
X208430000Y-120150000D01*
X208430000Y-120298489D01*
X208440506Y-120351310D01*
X208434277Y-120420902D01*
X208391414Y-120476078D01*
X208325524Y-120499322D01*
X208318888Y-120499500D01*
X200474500Y-120499500D01*
X200407461Y-120479815D01*
X200361706Y-120427011D01*
X200350500Y-120375500D01*
X200350500Y-115071504D01*
X208430000Y-115071504D01*
X208430000Y-115470000D01*
X209130000Y-115470000D01*
X209130000Y-115970000D01*
X208430000Y-115970000D01*
X208430000Y-116368495D01*
X208468427Y-116561681D01*
X208468430Y-116561693D01*
X208543807Y-116743671D01*
X208543814Y-116743684D01*
X208653248Y-116907462D01*
X208653251Y-116907466D01*
X208792533Y-117046748D01*
X208792537Y-117046751D01*
X208956315Y-117156185D01*
X208956328Y-117156192D01*
X209138308Y-117231569D01*
X209180000Y-117239862D01*
X209180000Y-116436988D01*
X209189940Y-116454205D01*
X209245795Y-116510060D01*
X209314204Y-116549556D01*
X209390504Y-116570000D01*
X209469496Y-116570000D01*
X209545796Y-116549556D01*
X209614205Y-116510060D01*
X209670060Y-116454205D01*
X209680000Y-116436988D01*
X209680000Y-117239862D01*
X209721690Y-117231569D01*
X209721692Y-117231569D01*
X209903671Y-117156192D01*
X209903684Y-117156185D01*
X210067462Y-117046751D01*
X210067466Y-117046748D01*
X210206748Y-116907466D01*
X210206751Y-116907462D01*
X210319574Y-116738613D01*
X210321007Y-116739570D01*
X210364198Y-116695580D01*
X210432332Y-116680103D01*
X210498018Y-116703919D01*
X210500089Y-116705697D01*
X210500189Y-116705568D01*
X210506630Y-116710510D01*
X210506635Y-116710515D01*
X210637865Y-116786281D01*
X210784234Y-116825500D01*
X210784236Y-116825500D01*
X210935764Y-116825500D01*
X210935766Y-116825500D01*
X211082135Y-116786281D01*
X211213365Y-116710515D01*
X211320515Y-116603365D01*
X211396281Y-116472135D01*
X211435500Y-116325766D01*
X211435500Y-116174234D01*
X216064500Y-116174234D01*
X216064500Y-116325765D01*
X216103719Y-116472136D01*
X216130745Y-116518945D01*
X216179485Y-116603365D01*
X216286635Y-116710515D01*
X216417865Y-116786281D01*
X216564234Y-116825500D01*
X216564236Y-116825500D01*
X216715764Y-116825500D01*
X216715766Y-116825500D01*
X216862135Y-116786281D01*
X216993365Y-116710515D01*
X216993372Y-116710507D01*
X216999811Y-116705568D01*
X217002044Y-116708478D01*
X217048258Y-116682865D01*
X217117980Y-116687411D01*
X217174176Y-116728930D01*
X217180394Y-116738634D01*
X217180426Y-116738613D01*
X217293248Y-116907462D01*
X217293251Y-116907466D01*
X217432533Y-117046748D01*
X217432537Y-117046751D01*
X217596315Y-117156185D01*
X217596328Y-117156192D01*
X217778308Y-117231569D01*
X217820000Y-117239862D01*
X217820000Y-116436988D01*
X217829940Y-116454205D01*
X217885795Y-116510060D01*
X217954204Y-116549556D01*
X218030504Y-116570000D01*
X218109496Y-116570000D01*
X218185796Y-116549556D01*
X218254205Y-116510060D01*
X218310060Y-116454205D01*
X218320000Y-116436988D01*
X218320000Y-117239862D01*
X218361690Y-117231569D01*
X218361692Y-117231569D01*
X218543671Y-117156192D01*
X218543684Y-117156185D01*
X218707462Y-117046751D01*
X218707466Y-117046748D01*
X218846748Y-116907466D01*
X218846751Y-116907462D01*
X218956185Y-116743684D01*
X218956192Y-116743671D01*
X219031569Y-116561693D01*
X219031572Y-116561681D01*
X219069999Y-116368495D01*
X219070000Y-116368492D01*
X219070000Y-115970000D01*
X218370000Y-115970000D01*
X218370000Y-115470000D01*
X219070000Y-115470000D01*
X219070000Y-115071508D01*
X219069999Y-115071504D01*
X219031572Y-114878318D01*
X219031569Y-114878306D01*
X218956192Y-114696328D01*
X218956185Y-114696315D01*
X218846751Y-114532537D01*
X218846748Y-114532533D01*
X218707466Y-114393251D01*
X218707462Y-114393248D01*
X218543684Y-114283814D01*
X218543671Y-114283807D01*
X218361691Y-114208429D01*
X218361683Y-114208427D01*
X218320000Y-114200135D01*
X218320000Y-115003011D01*
X218310060Y-114985795D01*
X218254205Y-114929940D01*
X218185796Y-114890444D01*
X218109496Y-114870000D01*
X218030504Y-114870000D01*
X217954204Y-114890444D01*
X217885795Y-114929940D01*
X217829940Y-114985795D01*
X217820000Y-115003011D01*
X217820000Y-114200136D01*
X217819999Y-114200135D01*
X217778316Y-114208427D01*
X217778308Y-114208429D01*
X217596328Y-114283807D01*
X217596315Y-114283814D01*
X217432537Y-114393248D01*
X217432533Y-114393251D01*
X217293251Y-114532533D01*
X217293248Y-114532537D01*
X217183814Y-114696315D01*
X217183807Y-114696328D01*
X217108430Y-114878306D01*
X217108427Y-114878318D01*
X217070000Y-115071504D01*
X217070000Y-115618955D01*
X217050315Y-115685994D01*
X216997511Y-115731749D01*
X216928353Y-115741693D01*
X216884000Y-115726342D01*
X216862138Y-115713720D01*
X216862135Y-115713719D01*
X216715766Y-115674500D01*
X216564234Y-115674500D01*
X216417863Y-115713719D01*
X216286635Y-115789485D01*
X216286632Y-115789487D01*
X216179487Y-115896632D01*
X216179485Y-115896635D01*
X216103719Y-116027863D01*
X216064500Y-116174234D01*
X211435500Y-116174234D01*
X211396281Y-116027865D01*
X211320515Y-115896635D01*
X211213365Y-115789485D01*
X211103999Y-115726342D01*
X211082136Y-115713719D01*
X211008950Y-115694109D01*
X210935766Y-115674500D01*
X210784234Y-115674500D01*
X210637865Y-115713719D01*
X210637864Y-115713719D01*
X210637862Y-115713720D01*
X210637861Y-115713720D01*
X210616000Y-115726342D01*
X210548099Y-115742815D01*
X210482073Y-115719962D01*
X210438882Y-115665041D01*
X210430000Y-115618955D01*
X210430000Y-115071508D01*
X210429999Y-115071504D01*
X210391572Y-114878318D01*
X210391569Y-114878306D01*
X210316192Y-114696328D01*
X210316185Y-114696315D01*
X210206751Y-114532537D01*
X210206748Y-114532533D01*
X210067466Y-114393251D01*
X210067462Y-114393248D01*
X209903684Y-114283814D01*
X209903671Y-114283807D01*
X209721691Y-114208429D01*
X209721683Y-114208427D01*
X209680000Y-114200135D01*
X209680000Y-115003011D01*
X209670060Y-114985795D01*
X209614205Y-114929940D01*
X209545796Y-114890444D01*
X209469496Y-114870000D01*
X209390504Y-114870000D01*
X209314204Y-114890444D01*
X209245795Y-114929940D01*
X209189940Y-114985795D01*
X209180000Y-115003011D01*
X209180000Y-114200136D01*
X209179999Y-114200135D01*
X209138316Y-114208427D01*
X209138308Y-114208429D01*
X208956328Y-114283807D01*
X208956315Y-114283814D01*
X208792537Y-114393248D01*
X208792533Y-114393251D01*
X208653251Y-114532533D01*
X208653248Y-114532537D01*
X208543814Y-114696315D01*
X208543807Y-114696328D01*
X208468430Y-114878306D01*
X208468427Y-114878318D01*
X208430000Y-115071504D01*
X200350500Y-115071504D01*
X200350500Y-102228196D01*
X203392735Y-102228196D01*
X203392735Y-102228203D01*
X203412930Y-102407449D01*
X203412931Y-102407454D01*
X203472511Y-102577723D01*
X203568485Y-102730463D01*
X203570745Y-102733297D01*
X203571634Y-102735475D01*
X203572189Y-102736358D01*
X203572034Y-102736455D01*
X203597155Y-102797983D01*
X203597800Y-102810612D01*
X203597800Y-103949830D01*
X203597799Y-103949848D01*
X203597799Y-104115554D01*
X203597798Y-104115554D01*
X203638723Y-104268285D01*
X203653743Y-104294300D01*
X203653742Y-104294300D01*
X203653743Y-104294301D01*
X203717775Y-104405209D01*
X203717781Y-104405217D01*
X203836649Y-104524085D01*
X203836655Y-104524090D01*
X212076283Y-112763719D01*
X212109768Y-112825042D01*
X212104784Y-112894734D01*
X212062912Y-112950667D01*
X211997448Y-112975084D01*
X211988602Y-112975400D01*
X211891740Y-112975400D01*
X211824701Y-112955715D01*
X211804059Y-112939081D01*
X211802262Y-112937284D01*
X211649523Y-112841311D01*
X211479254Y-112781731D01*
X211479249Y-112781730D01*
X211300004Y-112761535D01*
X211299996Y-112761535D01*
X211120750Y-112781730D01*
X211120745Y-112781731D01*
X210950476Y-112841311D01*
X210797737Y-112937284D01*
X210670184Y-113064837D01*
X210574211Y-113217576D01*
X210514631Y-113387845D01*
X210514630Y-113387850D01*
X210494435Y-113567096D01*
X210494435Y-113567103D01*
X210514630Y-113746349D01*
X210514631Y-113746354D01*
X210574211Y-113916623D01*
X210665882Y-114062516D01*
X210670184Y-114069362D01*
X210797738Y-114196916D01*
X210950478Y-114292889D01*
X211120745Y-114352468D01*
X211120750Y-114352469D01*
X211299996Y-114372665D01*
X211300000Y-114372665D01*
X211300004Y-114372665D01*
X211479249Y-114352469D01*
X211479252Y-114352468D01*
X211479255Y-114352468D01*
X211649522Y-114292889D01*
X211802262Y-114196916D01*
X211802262Y-114196915D01*
X211804665Y-114195406D01*
X211870637Y-114176400D01*
X215617588Y-114176400D01*
X215684627Y-114196085D01*
X215694903Y-114203455D01*
X215697736Y-114205714D01*
X215697738Y-114205716D01*
X215850478Y-114301689D01*
X215995596Y-114352468D01*
X216020745Y-114361268D01*
X216020750Y-114361269D01*
X216199996Y-114381465D01*
X216200000Y-114381465D01*
X216200004Y-114381465D01*
X216379249Y-114361269D01*
X216379252Y-114361268D01*
X216379255Y-114361268D01*
X216549522Y-114301689D01*
X216702262Y-114205716D01*
X216829816Y-114078162D01*
X216925789Y-113925422D01*
X216985368Y-113755155D01*
X216986360Y-113746354D01*
X217005565Y-113575903D01*
X217005565Y-113575896D01*
X216985369Y-113396650D01*
X216985368Y-113396645D01*
X216982289Y-113387845D01*
X216925789Y-113226378D01*
X216920258Y-113217576D01*
X216879485Y-113152686D01*
X216829816Y-113073638D01*
X216702262Y-112946084D01*
X216688257Y-112937284D01*
X216549523Y-112850111D01*
X216379254Y-112790531D01*
X216379249Y-112790530D01*
X216200004Y-112770335D01*
X216199996Y-112770335D01*
X216020750Y-112790530D01*
X216020745Y-112790531D01*
X215850476Y-112850111D01*
X215697736Y-112946085D01*
X215694903Y-112948345D01*
X215692724Y-112949234D01*
X215691842Y-112949789D01*
X215691744Y-112949634D01*
X215630217Y-112974755D01*
X215617588Y-112975400D01*
X214052514Y-112975400D01*
X213985475Y-112955715D01*
X213939720Y-112902911D01*
X213929294Y-112865284D01*
X213921369Y-112794949D01*
X213921368Y-112794945D01*
X213912757Y-112770335D01*
X213861789Y-112624678D01*
X213861316Y-112623926D01*
X213765815Y-112471937D01*
X213638262Y-112344384D01*
X213485521Y-112248410D01*
X213315249Y-112188830D01*
X213228331Y-112179037D01*
X213163917Y-112151970D01*
X213154534Y-112143498D01*
X204835119Y-103824083D01*
X204801634Y-103762760D01*
X204798800Y-103736402D01*
X204798800Y-103216572D01*
X204818485Y-103149533D01*
X204871289Y-103103778D01*
X204940447Y-103093834D01*
X204963755Y-103099531D01*
X205070741Y-103136967D01*
X205070742Y-103136967D01*
X205070745Y-103136968D01*
X205157669Y-103146761D01*
X205222080Y-103173826D01*
X205231465Y-103182300D01*
X212878207Y-110829042D01*
X212911692Y-110890365D01*
X212913746Y-110930606D01*
X212894335Y-111102895D01*
X212894335Y-111102903D01*
X212914530Y-111282149D01*
X212914531Y-111282154D01*
X212974111Y-111452423D01*
X213040963Y-111558816D01*
X213070084Y-111605162D01*
X213197638Y-111732716D01*
X213350378Y-111828689D01*
X213520645Y-111888268D01*
X213520650Y-111888269D01*
X213699896Y-111908465D01*
X213699900Y-111908465D01*
X213699904Y-111908465D01*
X213879149Y-111888269D01*
X213879152Y-111888268D01*
X213879155Y-111888268D01*
X214049422Y-111828689D01*
X214202162Y-111732716D01*
X214329716Y-111605162D01*
X214425689Y-111452422D01*
X214485268Y-111282155D01*
X214504145Y-111114615D01*
X214505465Y-111102903D01*
X214505465Y-111102896D01*
X214485269Y-110923650D01*
X214485268Y-110923645D01*
X214425688Y-110753376D01*
X214329715Y-110600637D01*
X214217313Y-110488235D01*
X214197610Y-110462559D01*
X214180420Y-110432784D01*
X214068616Y-110320980D01*
X214068615Y-110320979D01*
X214064285Y-110316649D01*
X214064274Y-110316639D01*
X206080700Y-102333065D01*
X206047215Y-102271742D01*
X206045163Y-102259286D01*
X206035368Y-102172345D01*
X205975789Y-102002078D01*
X205879816Y-101849338D01*
X205752262Y-101721784D01*
X205705450Y-101692370D01*
X205599523Y-101625811D01*
X205429254Y-101566231D01*
X205429249Y-101566230D01*
X205250004Y-101546035D01*
X205249996Y-101546035D01*
X205070750Y-101566230D01*
X205070737Y-101566233D01*
X204900482Y-101625808D01*
X204888883Y-101633096D01*
X204878275Y-101639761D01*
X204811040Y-101658760D01*
X204744205Y-101638391D01*
X204724625Y-101622447D01*
X204700562Y-101598384D01*
X204547823Y-101502411D01*
X204377554Y-101442831D01*
X204377549Y-101442830D01*
X204198304Y-101422635D01*
X204198296Y-101422635D01*
X204019050Y-101442830D01*
X204019045Y-101442831D01*
X203848776Y-101502411D01*
X203696037Y-101598384D01*
X203568484Y-101725937D01*
X203472511Y-101878676D01*
X203412931Y-102048945D01*
X203412930Y-102048950D01*
X203392735Y-102228196D01*
X200350500Y-102228196D01*
X200350500Y-96597308D01*
X200370185Y-96530269D01*
X200386819Y-96509627D01*
X200976212Y-95920233D01*
X200987482Y-95962292D01*
X201059890Y-96087708D01*
X201162292Y-96190110D01*
X201287708Y-96262518D01*
X201329765Y-96273787D01*
X200756576Y-96846975D01*
X200834969Y-96901867D01*
X201045090Y-96999847D01*
X201045099Y-96999851D01*
X201269031Y-97059852D01*
X201269041Y-97059854D01*
X201499999Y-97080061D01*
X201500001Y-97080061D01*
X201730958Y-97059854D01*
X201730968Y-97059852D01*
X201954900Y-96999851D01*
X201954909Y-96999847D01*
X202165030Y-96901867D01*
X202165034Y-96901865D01*
X202243422Y-96846976D01*
X202243422Y-96846975D01*
X201670235Y-96273787D01*
X201712292Y-96262518D01*
X201837708Y-96190110D01*
X201940110Y-96087708D01*
X202012518Y-95962292D01*
X202023787Y-95920234D01*
X202596975Y-96493422D01*
X202596976Y-96493422D01*
X202651865Y-96415034D01*
X202651867Y-96415030D01*
X202749847Y-96204909D01*
X202749851Y-96204900D01*
X202809852Y-95980968D01*
X202809854Y-95980958D01*
X202830061Y-95750000D01*
X202830061Y-95749999D01*
X202809854Y-95519041D01*
X202809852Y-95519031D01*
X202749851Y-95295099D01*
X202749847Y-95295090D01*
X202651867Y-95084971D01*
X202651866Y-95084969D01*
X202596975Y-95006577D01*
X202596975Y-95006576D01*
X202023787Y-95579764D01*
X202012518Y-95537708D01*
X201940110Y-95412292D01*
X201837708Y-95309890D01*
X201712292Y-95237482D01*
X201670234Y-95226212D01*
X202243422Y-94653023D01*
X202165030Y-94598133D01*
X201954909Y-94500152D01*
X201954900Y-94500148D01*
X201730968Y-94440147D01*
X201730958Y-94440145D01*
X201500001Y-94419939D01*
X201499999Y-94419939D01*
X201269041Y-94440145D01*
X201269031Y-94440147D01*
X201045099Y-94500148D01*
X201045090Y-94500152D01*
X200834967Y-94598134D01*
X200756576Y-94653022D01*
X201329766Y-95226212D01*
X201287708Y-95237482D01*
X201162292Y-95309890D01*
X201059890Y-95412292D01*
X200987482Y-95537708D01*
X200976212Y-95579765D01*
X200386819Y-94990372D01*
X200353334Y-94929049D01*
X200350500Y-94902691D01*
X200350500Y-91171153D01*
X200699500Y-91171153D01*
X200699500Y-91328846D01*
X200730261Y-91483489D01*
X200730264Y-91483501D01*
X200790602Y-91629172D01*
X200790609Y-91629185D01*
X200878210Y-91760288D01*
X200878213Y-91760292D01*
X200989707Y-91871786D01*
X200989711Y-91871789D01*
X201120814Y-91959390D01*
X201120827Y-91959397D01*
X201266498Y-92019735D01*
X201266503Y-92019737D01*
X201421153Y-92050499D01*
X201421156Y-92050500D01*
X201421158Y-92050500D01*
X201578844Y-92050500D01*
X201578845Y-92050499D01*
X201733497Y-92019737D01*
X201879179Y-91959394D01*
X202010289Y-91871789D01*
X202121789Y-91760289D01*
X202209394Y-91629179D01*
X202269737Y-91483497D01*
X202300500Y-91328842D01*
X202300500Y-91171158D01*
X202300500Y-91171155D01*
X202300499Y-91171153D01*
X202299224Y-91164745D01*
X202269737Y-91016503D01*
X202264922Y-91004878D01*
X202209397Y-90870827D01*
X202209390Y-90870814D01*
X202121789Y-90739711D01*
X202121786Y-90739707D01*
X202010292Y-90628213D01*
X202010288Y-90628210D01*
X201879185Y-90540609D01*
X201879172Y-90540602D01*
X201733501Y-90480264D01*
X201733489Y-90480261D01*
X201578845Y-90449500D01*
X201578842Y-90449500D01*
X201421158Y-90449500D01*
X201421155Y-90449500D01*
X201266510Y-90480261D01*
X201266498Y-90480264D01*
X201120827Y-90540602D01*
X201120814Y-90540609D01*
X200989711Y-90628210D01*
X200989707Y-90628213D01*
X200878213Y-90739707D01*
X200878210Y-90739711D01*
X200790609Y-90870814D01*
X200790602Y-90870827D01*
X200730264Y-91016498D01*
X200730261Y-91016510D01*
X200699500Y-91171153D01*
X200350500Y-91171153D01*
X200350500Y-87866742D01*
X200370185Y-87799703D01*
X200422989Y-87753948D01*
X200492147Y-87744004D01*
X200517830Y-87750559D01*
X200567517Y-87769091D01*
X200627127Y-87775500D01*
X202372872Y-87775499D01*
X202432483Y-87769091D01*
X202567331Y-87718796D01*
X202567333Y-87718793D01*
X202574371Y-87714952D01*
X202642644Y-87700099D01*
X202708108Y-87724514D01*
X202749981Y-87780447D01*
X202757800Y-87823783D01*
X202757800Y-93868030D01*
X202757799Y-93868048D01*
X202757799Y-94033754D01*
X202757798Y-94033754D01*
X202757799Y-94033757D01*
X202798723Y-94186485D01*
X202824091Y-94230423D01*
X202877779Y-94323414D01*
X202877781Y-94323417D01*
X202996649Y-94442285D01*
X202996655Y-94442290D01*
X220113181Y-111558816D01*
X220146666Y-111620139D01*
X220149500Y-111646497D01*
X220149500Y-116444787D01*
X220129815Y-116511826D01*
X220122450Y-116522096D01*
X220120186Y-116524934D01*
X220024211Y-116677676D01*
X219964631Y-116847945D01*
X219964630Y-116847950D01*
X219944435Y-117027196D01*
X219944435Y-117027203D01*
X219964630Y-117206449D01*
X219964631Y-117206454D01*
X220024211Y-117376723D01*
X220120184Y-117529462D01*
X220247738Y-117657016D01*
X220400478Y-117752989D01*
X220570745Y-117812568D01*
X220570750Y-117812569D01*
X220749996Y-117832765D01*
X220750000Y-117832765D01*
X220750004Y-117832765D01*
X220929249Y-117812569D01*
X220929252Y-117812568D01*
X220929255Y-117812568D01*
X221099522Y-117752989D01*
X221252262Y-117657016D01*
X221379816Y-117529462D01*
X221475789Y-117376722D01*
X221535368Y-117206455D01*
X221535369Y-117206449D01*
X221555565Y-117027203D01*
X221555565Y-117027196D01*
X221535369Y-116847950D01*
X221535368Y-116847945D01*
X221482053Y-116695580D01*
X221475789Y-116677678D01*
X221379816Y-116524938D01*
X221379814Y-116524936D01*
X221379813Y-116524934D01*
X221377550Y-116522096D01*
X221376659Y-116519915D01*
X221376111Y-116519042D01*
X221376264Y-116518945D01*
X221351144Y-116457409D01*
X221350500Y-116444787D01*
X221350500Y-111435459D01*
X221350501Y-111435446D01*
X221350501Y-111267345D01*
X221350501Y-111267343D01*
X221309577Y-111114615D01*
X221235890Y-110986986D01*
X221230520Y-110977684D01*
X221118716Y-110865880D01*
X221118715Y-110865879D01*
X221114385Y-110861549D01*
X221114374Y-110861539D01*
X212690287Y-102437452D01*
X212656802Y-102376129D01*
X212661786Y-102306437D01*
X212690283Y-102262094D01*
X212770216Y-102182162D01*
X212866189Y-102029422D01*
X212925768Y-101859155D01*
X212935561Y-101772229D01*
X212962626Y-101707818D01*
X212971090Y-101698443D01*
X215853987Y-98815547D01*
X215915308Y-98782064D01*
X215985000Y-98787048D01*
X216007638Y-98798237D01*
X216150473Y-98887987D01*
X216150477Y-98887988D01*
X216150478Y-98887989D01*
X216320745Y-98947568D01*
X216320750Y-98947569D01*
X216499996Y-98967765D01*
X216500000Y-98967765D01*
X216500004Y-98967765D01*
X216679249Y-98947569D01*
X216679252Y-98947568D01*
X216679255Y-98947568D01*
X216849522Y-98887989D01*
X217002262Y-98792016D01*
X217002265Y-98792013D01*
X217007710Y-98787672D01*
X217009513Y-98789933D01*
X217059371Y-98762633D01*
X217129068Y-98767535D01*
X217173552Y-98796087D01*
X224036139Y-105658674D01*
X224036149Y-105658685D01*
X224040479Y-105663015D01*
X224040480Y-105663016D01*
X224152284Y-105774820D01*
X224239095Y-105824939D01*
X224239097Y-105824941D01*
X224289213Y-105853876D01*
X224289215Y-105853877D01*
X224441942Y-105894800D01*
X224441943Y-105894800D01*
X230830014Y-105894800D01*
X230897053Y-105914485D01*
X230942808Y-105967289D01*
X230952752Y-106036447D01*
X230947787Y-106054547D01*
X230948227Y-106054665D01*
X230905200Y-106215243D01*
X230905200Y-106373356D01*
X230946123Y-106526083D01*
X230946126Y-106526090D01*
X231025175Y-106663009D01*
X231025181Y-106663017D01*
X231139493Y-106777329D01*
X231172978Y-106838652D01*
X231167994Y-106908344D01*
X231139495Y-106952689D01*
X231105203Y-106986981D01*
X231105200Y-106986986D01*
X231039308Y-107101112D01*
X231005200Y-107228408D01*
X231005200Y-107360191D01*
X231039308Y-107487487D01*
X231072254Y-107544550D01*
X231105200Y-107601614D01*
X231198386Y-107694800D01*
X231312514Y-107760692D01*
X231439808Y-107794800D01*
X231439810Y-107794800D01*
X231571590Y-107794800D01*
X231571592Y-107794800D01*
X231698886Y-107760692D01*
X231813014Y-107694800D01*
X231906200Y-107601614D01*
X231972092Y-107487486D01*
X232006200Y-107360192D01*
X232006200Y-107228408D01*
X231972092Y-107101114D01*
X231960363Y-107080800D01*
X231943891Y-107012901D01*
X231966743Y-106946874D01*
X232021664Y-106903683D01*
X232067751Y-106894800D01*
X232253300Y-106894800D01*
X232320339Y-106914485D01*
X232366094Y-106967289D01*
X232377300Y-107018800D01*
X232377300Y-112556887D01*
X232357615Y-112623926D01*
X232304811Y-112669681D01*
X232235653Y-112679625D01*
X232172097Y-112650600D01*
X232161151Y-112639860D01*
X232128061Y-112603110D01*
X232128057Y-112603107D01*
X232040520Y-112539507D01*
X231997855Y-112484177D01*
X231991876Y-112414563D01*
X231993626Y-112407117D01*
X232006200Y-112360192D01*
X232006200Y-112228408D01*
X231972092Y-112101114D01*
X231906200Y-111986986D01*
X231893977Y-111974763D01*
X231860492Y-111913440D01*
X231865476Y-111843748D01*
X231907348Y-111787815D01*
X231939857Y-111773322D01*
X231939120Y-111771543D01*
X231950397Y-111766871D01*
X231950404Y-111766870D01*
X231967108Y-111755708D01*
X231978270Y-111739004D01*
X231981200Y-111724273D01*
X231981199Y-111469819D01*
X231985424Y-111437726D01*
X232006200Y-111360192D01*
X232006200Y-111228408D01*
X231985424Y-111150870D01*
X231981199Y-111118777D01*
X231981199Y-110864332D01*
X231981199Y-110864328D01*
X231978270Y-110849596D01*
X231978267Y-110849591D01*
X231967109Y-110832892D01*
X231950404Y-110821730D01*
X231950405Y-110821730D01*
X231945493Y-110820753D01*
X231935673Y-110818800D01*
X231935671Y-110818800D01*
X231681220Y-110818800D01*
X231649128Y-110814575D01*
X231571593Y-110793800D01*
X231571592Y-110793800D01*
X231439808Y-110793800D01*
X231439806Y-110793800D01*
X231362271Y-110814575D01*
X231330179Y-110818800D01*
X231075732Y-110818800D01*
X231075721Y-110818802D01*
X231060997Y-110821729D01*
X231060991Y-110821732D01*
X231044292Y-110832890D01*
X231033130Y-110849594D01*
X231031665Y-110856961D01*
X231030202Y-110864321D01*
X231030200Y-110864329D01*
X231030200Y-111118779D01*
X231025975Y-111150871D01*
X231005200Y-111228406D01*
X231005200Y-111360193D01*
X231025975Y-111437728D01*
X231030200Y-111469820D01*
X231030200Y-111724267D01*
X231030202Y-111724278D01*
X231033129Y-111739002D01*
X231033132Y-111739008D01*
X231044290Y-111755707D01*
X231044293Y-111755709D01*
X231060996Y-111766870D01*
X231060998Y-111766870D01*
X231072282Y-111771545D01*
X231071083Y-111774437D01*
X231115835Y-111797842D01*
X231150415Y-111858555D01*
X231146681Y-111928325D01*
X231117425Y-111974761D01*
X231105200Y-111986986D01*
X231039308Y-112101112D01*
X231027951Y-112143498D01*
X231005200Y-112228408D01*
X231005200Y-112360192D01*
X231014308Y-112394187D01*
X231017768Y-112407098D01*
X231016103Y-112476948D01*
X230976939Y-112534810D01*
X230970879Y-112539506D01*
X230883344Y-112603105D01*
X230883339Y-112603109D01*
X230753236Y-112747605D01*
X230656017Y-112915992D01*
X230656016Y-112915993D01*
X230614328Y-113044299D01*
X230614328Y-113044300D01*
X231455972Y-113044300D01*
X231364086Y-113082360D01*
X231293760Y-113152686D01*
X231255700Y-113244572D01*
X231255700Y-113344028D01*
X231293760Y-113435914D01*
X231364086Y-113506240D01*
X231455972Y-113544300D01*
X230614328Y-113544300D01*
X230656016Y-113672606D01*
X230656017Y-113672607D01*
X230753236Y-113840994D01*
X230753235Y-113840994D01*
X230883339Y-113985490D01*
X230884215Y-113986126D01*
X230884599Y-113986623D01*
X230888169Y-113989838D01*
X230887581Y-113990490D01*
X230926884Y-114041453D01*
X230932868Y-114111066D01*
X230931111Y-114118542D01*
X230905200Y-114215243D01*
X230905200Y-114373356D01*
X230946123Y-114526083D01*
X230946126Y-114526090D01*
X231025175Y-114663009D01*
X231025178Y-114663013D01*
X231025180Y-114663016D01*
X231136984Y-114774820D01*
X231136986Y-114774821D01*
X231136990Y-114774824D01*
X231273909Y-114853873D01*
X231273916Y-114853877D01*
X231426643Y-114894800D01*
X232145731Y-114894800D01*
X232145747Y-114894801D01*
X232153343Y-114894801D01*
X232311454Y-114894801D01*
X232311457Y-114894801D01*
X232464185Y-114853877D01*
X232514304Y-114824939D01*
X232601116Y-114774820D01*
X232712920Y-114663016D01*
X232712920Y-114663014D01*
X232723128Y-114652807D01*
X232723129Y-114652804D01*
X233458320Y-113917616D01*
X233537377Y-113780685D01*
X233578301Y-113627957D01*
X233578301Y-113469842D01*
X233578301Y-113462247D01*
X233578300Y-113462229D01*
X233578300Y-95697259D01*
X233578301Y-95697246D01*
X233578301Y-95529144D01*
X233578301Y-95529143D01*
X233537377Y-95376415D01*
X233488822Y-95292316D01*
X233458320Y-95239484D01*
X233346516Y-95127680D01*
X233346515Y-95127679D01*
X233342185Y-95123349D01*
X233342174Y-95123339D01*
X232905790Y-94686955D01*
X232905788Y-94686952D01*
X232786917Y-94568081D01*
X232786909Y-94568075D01*
X232693727Y-94514277D01*
X232693725Y-94514276D01*
X232649990Y-94489025D01*
X232649989Y-94489024D01*
X232637463Y-94485667D01*
X232497257Y-94448099D01*
X232339143Y-94448099D01*
X232331547Y-94448099D01*
X232331531Y-94448100D01*
X232158498Y-94448100D01*
X232091459Y-94428415D01*
X232070817Y-94411781D01*
X230178236Y-92519200D01*
X230144751Y-92457877D01*
X230149735Y-92388185D01*
X230191607Y-92332252D01*
X230257071Y-92307835D01*
X230293507Y-92310627D01*
X230297776Y-92311602D01*
X230598619Y-92345499D01*
X230598620Y-92345500D01*
X230598624Y-92345500D01*
X230901380Y-92345500D01*
X230901380Y-92345499D01*
X231202224Y-92311602D01*
X231497386Y-92244234D01*
X231783148Y-92144241D01*
X231814033Y-92129368D01*
X232055913Y-92012885D01*
X232055913Y-92012884D01*
X232055919Y-92012882D01*
X232312266Y-91851808D01*
X232548967Y-91663045D01*
X232763045Y-91448967D01*
X232951808Y-91212266D01*
X233112882Y-90955919D01*
X233244241Y-90683148D01*
X233344234Y-90397386D01*
X233411602Y-90102224D01*
X233445500Y-89801376D01*
X233445500Y-89498624D01*
X233411602Y-89197776D01*
X233344234Y-88902614D01*
X233244241Y-88616852D01*
X233244237Y-88616845D01*
X233244234Y-88616836D01*
X233112885Y-88344086D01*
X233087026Y-88302932D01*
X232951808Y-88087734D01*
X232763045Y-87851033D01*
X232548967Y-87636955D01*
X232543438Y-87632546D01*
X232449099Y-87557313D01*
X232312266Y-87448192D01*
X232133827Y-87336071D01*
X232055913Y-87287114D01*
X231783163Y-87155765D01*
X231783141Y-87155756D01*
X231669642Y-87116041D01*
X231612866Y-87075320D01*
X231587119Y-87010367D01*
X231600575Y-86941805D01*
X231648963Y-86891402D01*
X231710597Y-86875000D01*
X232672828Y-86875000D01*
X232672844Y-86874999D01*
X232732372Y-86868598D01*
X232732379Y-86868596D01*
X232867086Y-86818354D01*
X232867093Y-86818350D01*
X232982187Y-86732190D01*
X232982190Y-86732187D01*
X233068350Y-86617093D01*
X233068354Y-86617086D01*
X233118596Y-86482379D01*
X233118598Y-86482372D01*
X233124999Y-86422844D01*
X233125000Y-86422827D01*
X233125000Y-84750000D01*
X231975985Y-84750000D01*
X232000000Y-84598377D01*
X232000000Y-84401623D01*
X231975985Y-84250000D01*
X233125000Y-84250000D01*
X233125000Y-82577172D01*
X233124999Y-82577155D01*
X233118598Y-82517627D01*
X233118596Y-82517620D01*
X233068354Y-82382913D01*
X233068350Y-82382906D01*
X232982190Y-82267812D01*
X232982187Y-82267809D01*
X232867093Y-82181649D01*
X232867086Y-82181645D01*
X232732379Y-82131403D01*
X232732372Y-82131401D01*
X232672844Y-82125000D01*
X231000000Y-82125000D01*
X231000000Y-83274014D01*
X230848377Y-83250000D01*
X230651623Y-83250000D01*
X230500000Y-83274014D01*
X230500000Y-82125000D01*
X228827155Y-82125000D01*
X228767627Y-82131401D01*
X228767620Y-82131403D01*
X228632913Y-82181645D01*
X228632906Y-82181649D01*
X228517812Y-82267809D01*
X228517809Y-82267812D01*
X228431649Y-82382906D01*
X228431645Y-82382913D01*
X228381403Y-82517620D01*
X228381401Y-82517627D01*
X228375000Y-82577155D01*
X228375000Y-84250000D01*
X229524015Y-84250000D01*
X229500000Y-84401623D01*
X229500000Y-84598377D01*
X229524015Y-84750000D01*
X228375000Y-84750000D01*
X228375000Y-86422844D01*
X228381401Y-86482372D01*
X228381403Y-86482379D01*
X228431645Y-86617086D01*
X228431649Y-86617093D01*
X228517809Y-86732187D01*
X228517812Y-86732190D01*
X228632906Y-86818350D01*
X228632913Y-86818354D01*
X228767620Y-86868596D01*
X228767627Y-86868598D01*
X228827155Y-86874999D01*
X228827172Y-86875000D01*
X229789403Y-86875000D01*
X229856442Y-86894685D01*
X229902197Y-86947489D01*
X229912141Y-87016647D01*
X229883116Y-87080203D01*
X229830358Y-87116041D01*
X229716858Y-87155756D01*
X229716836Y-87155765D01*
X229444086Y-87287114D01*
X229187735Y-87448191D01*
X228951033Y-87636954D01*
X228736954Y-87851033D01*
X228548191Y-88087735D01*
X228387114Y-88344086D01*
X228255765Y-88616836D01*
X228255756Y-88616858D01*
X228155769Y-88902602D01*
X228155765Y-88902614D01*
X228088398Y-89197772D01*
X228088396Y-89197788D01*
X228054500Y-89498619D01*
X228054500Y-89801380D01*
X228088396Y-90102211D01*
X228088399Y-90102232D01*
X228089372Y-90106493D01*
X228085098Y-90176232D01*
X228043799Y-90232589D01*
X227978586Y-90257672D01*
X227910166Y-90243516D01*
X227880800Y-90221765D01*
X222849677Y-85190642D01*
X222817583Y-85135054D01*
X222786277Y-85018216D01*
X222764117Y-84979833D01*
X222707224Y-84881290D01*
X222707218Y-84881282D01*
X222595417Y-84769481D01*
X222595412Y-84769477D01*
X222487000Y-84706886D01*
X222438785Y-84656319D01*
X222425000Y-84599499D01*
X222425000Y-84500000D01*
X221549728Y-84500000D01*
X221641614Y-84461940D01*
X221711940Y-84391614D01*
X221750000Y-84299728D01*
X221750000Y-84200272D01*
X221711940Y-84108386D01*
X221641614Y-84038060D01*
X221549728Y-84000000D01*
X221750000Y-84000000D01*
X222425000Y-84000000D01*
X222425000Y-83777172D01*
X222424999Y-83777155D01*
X222418598Y-83717627D01*
X222418596Y-83717620D01*
X222368354Y-83582913D01*
X222368350Y-83582906D01*
X222282190Y-83467812D01*
X222282187Y-83467809D01*
X222167093Y-83381649D01*
X222167086Y-83381645D01*
X222032379Y-83331403D01*
X222032372Y-83331401D01*
X221972844Y-83325000D01*
X221750000Y-83325000D01*
X221750000Y-84000000D01*
X221549728Y-84000000D01*
X221450272Y-84000000D01*
X221358386Y-84038060D01*
X221288060Y-84108386D01*
X221250000Y-84200272D01*
X221250000Y-84299728D01*
X221288060Y-84391614D01*
X221358386Y-84461940D01*
X221450272Y-84500000D01*
X220575000Y-84500000D01*
X220575000Y-84525500D01*
X220555315Y-84592539D01*
X220502511Y-84638294D01*
X220451000Y-84649500D01*
X218525640Y-84649500D01*
X218484719Y-84660464D01*
X218484719Y-84660465D01*
X218447451Y-84670451D01*
X218372914Y-84690423D01*
X218372909Y-84690426D01*
X218235990Y-84769475D01*
X218235982Y-84769481D01*
X218124178Y-84881286D01*
X216544565Y-86460898D01*
X216483242Y-86494383D01*
X216470768Y-86496437D01*
X216383850Y-86506230D01*
X216213578Y-86565810D01*
X216060837Y-86661784D01*
X215933284Y-86789337D01*
X215837311Y-86942076D01*
X215777731Y-87112345D01*
X215777730Y-87112350D01*
X215757535Y-87291596D01*
X215757535Y-87291603D01*
X215777730Y-87470849D01*
X215777731Y-87470854D01*
X215837311Y-87641123D01*
X215933284Y-87793862D01*
X216008940Y-87869518D01*
X216042425Y-87930841D01*
X216037441Y-88000533D01*
X216008942Y-88044879D01*
X215944483Y-88109339D01*
X215848511Y-88262076D01*
X215788931Y-88432345D01*
X215788930Y-88432350D01*
X215768735Y-88611596D01*
X215768735Y-88611603D01*
X215788930Y-88790849D01*
X215788931Y-88790854D01*
X215848511Y-88961123D01*
X215894813Y-89034811D01*
X215944484Y-89113862D01*
X216072038Y-89241416D01*
X216224778Y-89337389D01*
X216339246Y-89377443D01*
X216395045Y-89396968D01*
X216395050Y-89396969D01*
X216574296Y-89417165D01*
X216574300Y-89417165D01*
X216574304Y-89417165D01*
X216753549Y-89396969D01*
X216753552Y-89396968D01*
X216753555Y-89396968D01*
X216923822Y-89337389D01*
X217076562Y-89241416D01*
X217117011Y-89200966D01*
X217178332Y-89167482D01*
X217248023Y-89172466D01*
X217303957Y-89214336D01*
X217328375Y-89279801D01*
X217313524Y-89348074D01*
X217309685Y-89354619D01*
X217274211Y-89411075D01*
X217214630Y-89581350D01*
X217204837Y-89668267D01*
X217177770Y-89732681D01*
X217169298Y-89742064D01*
X215906486Y-91004878D01*
X215794681Y-91116682D01*
X215794679Y-91116685D01*
X215744561Y-91203494D01*
X215744559Y-91203496D01*
X215715625Y-91253609D01*
X215715624Y-91253610D01*
X215707594Y-91283578D01*
X215674699Y-91406343D01*
X215674699Y-91406345D01*
X215674699Y-91574446D01*
X215674700Y-91574459D01*
X215674700Y-92650030D01*
X215674699Y-92650048D01*
X215674699Y-92815754D01*
X215674698Y-92815754D01*
X215689532Y-92871116D01*
X215715623Y-92968485D01*
X215739124Y-93009189D01*
X215793228Y-93102901D01*
X215794679Y-93105414D01*
X215794681Y-93105417D01*
X215913549Y-93224285D01*
X215913554Y-93224289D01*
X222291984Y-99602720D01*
X222291986Y-99602721D01*
X222291990Y-99602724D01*
X222418364Y-99675685D01*
X222428916Y-99681777D01*
X222581643Y-99722701D01*
X222581645Y-99722701D01*
X222747354Y-99722701D01*
X222747370Y-99722700D01*
X225439275Y-99722700D01*
X225506314Y-99742385D01*
X225552069Y-99795189D01*
X225562495Y-99832817D01*
X225570430Y-99903249D01*
X225570431Y-99903254D01*
X225630011Y-100073523D01*
X225725984Y-100226262D01*
X225853538Y-100353816D01*
X226006278Y-100449789D01*
X226176545Y-100509368D01*
X226263468Y-100519161D01*
X226327879Y-100546226D01*
X226337264Y-100554700D01*
X226391484Y-100608920D01*
X226478295Y-100659039D01*
X226478297Y-100659041D01*
X226516351Y-100681011D01*
X226528415Y-100687977D01*
X226681143Y-100728901D01*
X226681146Y-100728901D01*
X226846853Y-100728901D01*
X226846869Y-100728900D01*
X229332203Y-100728900D01*
X229399242Y-100748585D01*
X229419884Y-100765219D01*
X231136783Y-102482119D01*
X231170268Y-102543442D01*
X231165284Y-102613134D01*
X231123412Y-102669067D01*
X231057948Y-102693484D01*
X231049102Y-102693800D01*
X224475797Y-102693800D01*
X224408758Y-102674115D01*
X224388116Y-102657481D01*
X213186090Y-91455455D01*
X213186088Y-91455452D01*
X213067217Y-91336581D01*
X213067216Y-91336580D01*
X212975411Y-91283577D01*
X212975410Y-91283576D01*
X212930283Y-91257522D01*
X212874381Y-91242543D01*
X212777557Y-91216599D01*
X212619443Y-91216599D01*
X212611847Y-91216599D01*
X212611831Y-91216600D01*
X210464197Y-91216600D01*
X210397158Y-91196915D01*
X210376516Y-91180281D01*
X210208586Y-91012351D01*
X210175101Y-90951028D01*
X210180085Y-90881336D01*
X210221957Y-90825403D01*
X210243855Y-90812292D01*
X210265282Y-90802301D01*
X210455269Y-90669270D01*
X210619270Y-90505269D01*
X210752301Y-90315282D01*
X210850320Y-90105079D01*
X210910349Y-89881050D01*
X210930563Y-89650000D01*
X210910349Y-89418950D01*
X210880259Y-89306654D01*
X210881922Y-89236805D01*
X210912351Y-89186882D01*
X216322079Y-83777155D01*
X220575000Y-83777155D01*
X220575000Y-84000000D01*
X221250000Y-84000000D01*
X221250000Y-83325000D01*
X221027155Y-83325000D01*
X220967627Y-83331401D01*
X220967620Y-83331403D01*
X220832913Y-83381645D01*
X220832906Y-83381649D01*
X220717812Y-83467809D01*
X220717809Y-83467812D01*
X220631649Y-83582906D01*
X220631645Y-83582913D01*
X220581403Y-83717620D01*
X220581401Y-83717627D01*
X220575000Y-83777155D01*
X216322079Y-83777155D01*
X218962416Y-81136819D01*
X219023739Y-81103334D01*
X219050097Y-81100500D01*
X224653199Y-81100500D01*
X224720238Y-81120185D01*
X224762253Y-81165481D01*
X224764075Y-81168848D01*
X224891016Y-81363147D01*
X224891019Y-81363151D01*
X224891021Y-81363153D01*
X225048216Y-81533913D01*
X225048219Y-81533915D01*
X225048222Y-81533918D01*
X225231365Y-81676464D01*
X225231371Y-81676468D01*
X225231374Y-81676470D01*
X225435497Y-81786936D01*
X225549487Y-81826068D01*
X225655015Y-81862297D01*
X225655017Y-81862297D01*
X225655019Y-81862298D01*
X225883951Y-81900500D01*
X225883952Y-81900500D01*
X226116048Y-81900500D01*
X226116049Y-81900500D01*
X226344981Y-81862298D01*
X226564503Y-81786936D01*
X226768626Y-81676470D01*
X226951784Y-81533913D01*
X227108979Y-81363153D01*
X227235924Y-81168849D01*
X227329157Y-80956300D01*
X227386134Y-80731305D01*
X227405300Y-80500000D01*
X227405300Y-80499993D01*
X227386135Y-80268702D01*
X227386133Y-80268691D01*
X227329157Y-80043699D01*
X227235924Y-79831151D01*
X227108983Y-79636852D01*
X227108980Y-79636849D01*
X227108979Y-79636847D01*
X226951784Y-79466087D01*
X226951779Y-79466083D01*
X226951777Y-79466081D01*
X226768634Y-79323535D01*
X226768628Y-79323531D01*
X226564504Y-79213064D01*
X226564495Y-79213061D01*
X226344984Y-79137702D01*
X226173282Y-79109050D01*
X226116049Y-79099500D01*
X225883951Y-79099500D01*
X225838164Y-79107140D01*
X225655015Y-79137702D01*
X225435504Y-79213061D01*
X225435495Y-79213064D01*
X225231371Y-79323531D01*
X225231365Y-79323535D01*
X225048222Y-79466081D01*
X225048219Y-79466084D01*
X224891016Y-79636852D01*
X224764075Y-79831151D01*
X224762253Y-79834519D01*
X224713033Y-79884109D01*
X224653199Y-79899500D01*
X218829057Y-79899500D01*
X218670943Y-79899500D01*
X218518215Y-79940423D01*
X218518214Y-79940423D01*
X218518212Y-79940424D01*
X218518209Y-79940425D01*
X218468096Y-79969359D01*
X218468095Y-79969360D01*
X218424689Y-79994420D01*
X218381285Y-80019479D01*
X218381282Y-80019481D01*
X218269478Y-80131286D01*
X210063118Y-88337645D01*
X210001795Y-88371130D01*
X209943345Y-88369739D01*
X209831058Y-88339653D01*
X209831055Y-88339652D01*
X209831050Y-88339651D01*
X209831047Y-88339650D01*
X209831044Y-88339650D01*
X209600002Y-88319437D01*
X209599998Y-88319437D01*
X209368955Y-88339650D01*
X209368944Y-88339652D01*
X209212093Y-88381680D01*
X209142243Y-88380017D01*
X209084381Y-88340854D01*
X209056877Y-88276626D01*
X209056000Y-88261905D01*
X209056000Y-87768596D01*
X209075685Y-87701557D01*
X209092314Y-87680920D01*
X221497435Y-75275798D01*
X221558756Y-75242315D01*
X221571211Y-75240263D01*
X221658155Y-75230468D01*
X221828422Y-75170889D01*
X221981162Y-75074916D01*
X222108716Y-74947362D01*
X222204689Y-74794622D01*
X222264268Y-74624355D01*
X222284465Y-74445100D01*
X222281319Y-74417182D01*
X222264269Y-74265850D01*
X222264268Y-74265845D01*
X222204688Y-74095576D01*
X222119647Y-73960235D01*
X222108716Y-73942838D01*
X221981162Y-73815284D01*
X221941814Y-73790560D01*
X221828423Y-73719311D01*
X221658154Y-73659731D01*
X221658149Y-73659730D01*
X221478904Y-73639535D01*
X221478896Y-73639535D01*
X221299650Y-73659730D01*
X221299645Y-73659731D01*
X221129376Y-73719311D01*
X220976637Y-73815284D01*
X220849084Y-73942837D01*
X220753110Y-74095578D01*
X220693530Y-74265850D01*
X220683737Y-74352768D01*
X220656670Y-74417182D01*
X220648198Y-74426565D01*
X208086786Y-86987978D01*
X208080981Y-86993783D01*
X208019658Y-87027268D01*
X207949966Y-87022284D01*
X207894033Y-86980412D01*
X207869616Y-86914948D01*
X207869300Y-86906102D01*
X207869300Y-80182012D01*
X207888985Y-80114973D01*
X207896355Y-80104697D01*
X207898610Y-80101867D01*
X207898616Y-80101862D01*
X207994589Y-79949122D01*
X208054168Y-79778855D01*
X208070168Y-79636852D01*
X208074365Y-79599603D01*
X208074365Y-79599596D01*
X208054169Y-79420350D01*
X208054168Y-79420345D01*
X207994588Y-79250076D01*
X207898615Y-79097337D01*
X207771062Y-78969784D01*
X207618323Y-78873811D01*
X207448054Y-78814231D01*
X207448050Y-78814230D01*
X207375916Y-78806103D01*
X207311502Y-78779036D01*
X207271947Y-78721441D01*
X207265800Y-78682883D01*
X207265800Y-74011597D01*
X207285485Y-73944558D01*
X207302119Y-73923916D01*
X208279375Y-72946660D01*
X211436892Y-72946660D01*
X211436892Y-72946661D01*
X211450692Y-72955333D01*
X211450691Y-72955333D01*
X211620861Y-73014878D01*
X211799997Y-73035062D01*
X211800003Y-73035062D01*
X211979138Y-73014878D01*
X211979141Y-73014877D01*
X212149305Y-72955334D01*
X212149306Y-72955334D01*
X212163106Y-72946661D01*
X212163106Y-72946660D01*
X212836892Y-72946660D01*
X212836892Y-72946661D01*
X212850692Y-72955333D01*
X212850691Y-72955333D01*
X213020861Y-73014878D01*
X213199997Y-73035062D01*
X213200003Y-73035062D01*
X213379138Y-73014878D01*
X213379141Y-73014877D01*
X213549305Y-72955334D01*
X213549306Y-72955334D01*
X213563106Y-72946661D01*
X213563106Y-72946660D01*
X213200001Y-72583553D01*
X213200000Y-72583553D01*
X212836892Y-72946660D01*
X212163106Y-72946660D01*
X211800001Y-72583553D01*
X211800000Y-72583553D01*
X211436892Y-72946660D01*
X208279375Y-72946660D01*
X208664815Y-72561220D01*
X208979375Y-72246660D01*
X210736892Y-72246660D01*
X210736892Y-72246661D01*
X210750692Y-72255333D01*
X210750691Y-72255333D01*
X210920862Y-72314878D01*
X210921644Y-72315057D01*
X210922097Y-72315310D01*
X210927431Y-72317177D01*
X210927104Y-72318111D01*
X210982623Y-72349166D01*
X211011952Y-72402874D01*
X211012822Y-72402570D01*
X211014670Y-72407852D01*
X211014940Y-72408346D01*
X211015121Y-72409142D01*
X211074663Y-72579300D01*
X211074663Y-72579301D01*
X211083338Y-72593107D01*
X211446446Y-72230000D01*
X211426555Y-72210109D01*
X211700000Y-72210109D01*
X211700000Y-72249891D01*
X211715224Y-72286645D01*
X211743355Y-72314776D01*
X211780109Y-72330000D01*
X211819891Y-72330000D01*
X211856645Y-72314776D01*
X211884776Y-72286645D01*
X211900000Y-72249891D01*
X211900000Y-72229999D01*
X212153553Y-72229999D01*
X212153553Y-72230000D01*
X212500000Y-72576446D01*
X212500001Y-72576446D01*
X212846446Y-72230000D01*
X212826555Y-72210109D01*
X213100000Y-72210109D01*
X213100000Y-72249891D01*
X213115224Y-72286645D01*
X213143355Y-72314776D01*
X213180109Y-72330000D01*
X213219891Y-72330000D01*
X213256645Y-72314776D01*
X213284776Y-72286645D01*
X213300000Y-72249891D01*
X213300000Y-72229999D01*
X213553553Y-72229999D01*
X213553553Y-72230000D01*
X213916660Y-72593106D01*
X213916661Y-72593106D01*
X213925334Y-72579306D01*
X213925334Y-72579305D01*
X213984876Y-72409144D01*
X213985056Y-72408358D01*
X213985311Y-72407901D01*
X213987177Y-72402570D01*
X213988110Y-72402896D01*
X214019164Y-72347379D01*
X214072875Y-72318049D01*
X214072570Y-72317177D01*
X214077870Y-72315322D01*
X214078358Y-72315056D01*
X214079144Y-72314876D01*
X214249305Y-72255334D01*
X214249306Y-72255334D01*
X214263106Y-72246661D01*
X214263106Y-72246660D01*
X213900000Y-71883553D01*
X213834643Y-71948911D01*
X213834642Y-71948911D01*
X213553553Y-72229999D01*
X213300000Y-72229999D01*
X213300000Y-72210109D01*
X213284776Y-72173355D01*
X213256645Y-72145224D01*
X213219891Y-72130000D01*
X213180109Y-72130000D01*
X213143355Y-72145224D01*
X213115224Y-72173355D01*
X213100000Y-72210109D01*
X212826555Y-72210109D01*
X212565357Y-71948911D01*
X212500000Y-71883553D01*
X212434643Y-71948911D01*
X212434642Y-71948911D01*
X212153553Y-72229999D01*
X211900000Y-72229999D01*
X211900000Y-72210109D01*
X211884776Y-72173355D01*
X211856645Y-72145224D01*
X211819891Y-72130000D01*
X211780109Y-72130000D01*
X211743355Y-72145224D01*
X211715224Y-72173355D01*
X211700000Y-72210109D01*
X211426555Y-72210109D01*
X211099999Y-71883553D01*
X211099998Y-71883553D01*
X210736892Y-72246660D01*
X208979375Y-72246660D01*
X210167772Y-71058262D01*
X210229093Y-71024779D01*
X210298785Y-71029763D01*
X210354718Y-71071635D01*
X210379135Y-71137099D01*
X210372493Y-71186899D01*
X210315122Y-71350857D01*
X210315121Y-71350861D01*
X210294938Y-71529997D01*
X210294938Y-71530002D01*
X210315121Y-71709138D01*
X210374665Y-71879304D01*
X210383338Y-71893107D01*
X210766336Y-71510109D01*
X211000000Y-71510109D01*
X211000000Y-71549891D01*
X211015224Y-71586645D01*
X211043355Y-71614776D01*
X211080109Y-71630000D01*
X211119891Y-71630000D01*
X211156645Y-71614776D01*
X211184776Y-71586645D01*
X211200000Y-71549891D01*
X211200000Y-71529999D01*
X211453553Y-71529999D01*
X211800000Y-71876446D01*
X212146446Y-71530000D01*
X212126555Y-71510109D01*
X212400000Y-71510109D01*
X212400000Y-71549891D01*
X212415224Y-71586645D01*
X212443355Y-71614776D01*
X212480109Y-71630000D01*
X212519891Y-71630000D01*
X212556645Y-71614776D01*
X212584776Y-71586645D01*
X212600000Y-71549891D01*
X212600000Y-71529999D01*
X212853553Y-71529999D01*
X213200000Y-71876446D01*
X213546446Y-71530000D01*
X213526555Y-71510109D01*
X213800000Y-71510109D01*
X213800000Y-71549891D01*
X213815224Y-71586645D01*
X213843355Y-71614776D01*
X213880109Y-71630000D01*
X213919891Y-71630000D01*
X213956645Y-71614776D01*
X213984776Y-71586645D01*
X214000000Y-71549891D01*
X214000000Y-71530000D01*
X214253553Y-71530000D01*
X214616660Y-71893106D01*
X214616661Y-71893106D01*
X214625334Y-71879306D01*
X214625334Y-71879305D01*
X214684877Y-71709141D01*
X214684878Y-71709138D01*
X214705062Y-71530002D01*
X214705062Y-71529997D01*
X214684878Y-71350861D01*
X214625333Y-71180692D01*
X214616661Y-71166892D01*
X214616660Y-71166892D01*
X214253553Y-71530000D01*
X214000000Y-71530000D01*
X214000000Y-71510109D01*
X213984776Y-71473355D01*
X213956645Y-71445224D01*
X213919891Y-71430000D01*
X213880109Y-71430000D01*
X213843355Y-71445224D01*
X213815224Y-71473355D01*
X213800000Y-71510109D01*
X213526555Y-71510109D01*
X213265760Y-71249314D01*
X213200000Y-71183553D01*
X213134240Y-71249314D01*
X213134239Y-71249314D01*
X212853553Y-71529999D01*
X212600000Y-71529999D01*
X212600000Y-71510109D01*
X212584776Y-71473355D01*
X212556645Y-71445224D01*
X212519891Y-71430000D01*
X212480109Y-71430000D01*
X212443355Y-71445224D01*
X212415224Y-71473355D01*
X212400000Y-71510109D01*
X212126555Y-71510109D01*
X211865760Y-71249314D01*
X211800000Y-71183553D01*
X211734240Y-71249314D01*
X211734239Y-71249314D01*
X211453553Y-71529999D01*
X211200000Y-71529999D01*
X211200000Y-71510109D01*
X211184776Y-71473355D01*
X211156645Y-71445224D01*
X211119891Y-71430000D01*
X211080109Y-71430000D01*
X211043355Y-71445224D01*
X211015224Y-71473355D01*
X211000000Y-71510109D01*
X210766336Y-71510109D01*
X211446446Y-70830000D01*
X211426555Y-70810109D01*
X211700000Y-70810109D01*
X211700000Y-70849891D01*
X211715224Y-70886645D01*
X211743355Y-70914776D01*
X211780109Y-70930000D01*
X211819891Y-70930000D01*
X211856645Y-70914776D01*
X211884776Y-70886645D01*
X211900000Y-70849891D01*
X211900000Y-70829999D01*
X212153553Y-70829999D01*
X212500000Y-71176446D01*
X212846446Y-70830000D01*
X212826555Y-70810109D01*
X213100000Y-70810109D01*
X213100000Y-70849891D01*
X213115224Y-70886645D01*
X213143355Y-70914776D01*
X213180109Y-70930000D01*
X213219891Y-70930000D01*
X213256645Y-70914776D01*
X213284776Y-70886645D01*
X213300000Y-70849891D01*
X213300000Y-70829999D01*
X213553553Y-70829999D01*
X213900000Y-71176446D01*
X214246446Y-70830000D01*
X214246446Y-70829999D01*
X213900000Y-70483553D01*
X213834240Y-70549314D01*
X213834239Y-70549314D01*
X213553553Y-70829999D01*
X213300000Y-70829999D01*
X213300000Y-70810109D01*
X213284776Y-70773355D01*
X213256645Y-70745224D01*
X213219891Y-70730000D01*
X213180109Y-70730000D01*
X213143355Y-70745224D01*
X213115224Y-70773355D01*
X213100000Y-70810109D01*
X212826555Y-70810109D01*
X212565760Y-70549314D01*
X212500000Y-70483553D01*
X212434240Y-70549314D01*
X212434239Y-70549314D01*
X212153553Y-70829999D01*
X211900000Y-70829999D01*
X211900000Y-70810109D01*
X211884776Y-70773355D01*
X211856645Y-70745224D01*
X211819891Y-70730000D01*
X211780109Y-70730000D01*
X211743355Y-70745224D01*
X211715224Y-70773355D01*
X211700000Y-70810109D01*
X211426555Y-70810109D01*
X211044574Y-70428128D01*
X211044570Y-70428122D01*
X211008922Y-70392475D01*
X210975436Y-70331153D01*
X210980420Y-70261461D01*
X211008917Y-70217117D01*
X211027307Y-70198728D01*
X211043355Y-70214776D01*
X211080109Y-70230000D01*
X211119891Y-70230000D01*
X211156645Y-70214776D01*
X211184776Y-70186645D01*
X211200000Y-70149891D01*
X211200000Y-70129999D01*
X211453553Y-70129999D01*
X211800000Y-70476446D01*
X212146446Y-70130000D01*
X212126555Y-70110109D01*
X212400000Y-70110109D01*
X212400000Y-70149891D01*
X212415224Y-70186645D01*
X212443355Y-70214776D01*
X212480109Y-70230000D01*
X212519891Y-70230000D01*
X212556645Y-70214776D01*
X212584776Y-70186645D01*
X212600000Y-70149891D01*
X212600000Y-70129999D01*
X212853553Y-70129999D01*
X213200000Y-70476446D01*
X213546446Y-70130000D01*
X213526555Y-70110109D01*
X213800000Y-70110109D01*
X213800000Y-70149891D01*
X213815224Y-70186645D01*
X213843355Y-70214776D01*
X213880109Y-70230000D01*
X213919891Y-70230000D01*
X213956645Y-70214776D01*
X213984776Y-70186645D01*
X214000000Y-70149891D01*
X214000000Y-70130000D01*
X214253553Y-70130000D01*
X214616660Y-70493106D01*
X214616661Y-70493106D01*
X214625334Y-70479306D01*
X214625334Y-70479305D01*
X214684877Y-70309141D01*
X214684878Y-70309138D01*
X214705062Y-70130002D01*
X214705062Y-70129997D01*
X214684878Y-69950861D01*
X214625333Y-69780692D01*
X214616661Y-69766892D01*
X214616660Y-69766892D01*
X214253553Y-70130000D01*
X214000000Y-70130000D01*
X214000000Y-70110109D01*
X213984776Y-70073355D01*
X213956645Y-70045224D01*
X213919891Y-70030000D01*
X213880109Y-70030000D01*
X213843355Y-70045224D01*
X213815224Y-70073355D01*
X213800000Y-70110109D01*
X213526555Y-70110109D01*
X213265760Y-69849314D01*
X213200000Y-69783553D01*
X213134240Y-69849314D01*
X213134239Y-69849314D01*
X212853553Y-70129999D01*
X212600000Y-70129999D01*
X212600000Y-70110109D01*
X212584776Y-70073355D01*
X212556645Y-70045224D01*
X212519891Y-70030000D01*
X212480109Y-70030000D01*
X212443355Y-70045224D01*
X212415224Y-70073355D01*
X212400000Y-70110109D01*
X212126555Y-70110109D01*
X211865760Y-69849314D01*
X211800000Y-69783553D01*
X211734240Y-69849314D01*
X211734239Y-69849314D01*
X211453553Y-70129999D01*
X211200000Y-70129999D01*
X211200000Y-70110109D01*
X211184776Y-70073355D01*
X211168728Y-70057307D01*
X211727307Y-69498728D01*
X211743355Y-69514776D01*
X211780109Y-69530000D01*
X211819891Y-69530000D01*
X211856645Y-69514776D01*
X211884776Y-69486645D01*
X211900000Y-69449891D01*
X211900000Y-69410109D01*
X211884776Y-69373355D01*
X211868728Y-69357307D01*
X211887116Y-69338918D01*
X211948435Y-69305436D01*
X212018127Y-69310420D01*
X212062475Y-69338922D01*
X212098122Y-69374570D01*
X212098128Y-69374574D01*
X212500000Y-69776446D01*
X212866337Y-69410109D01*
X213100000Y-69410109D01*
X213100000Y-69449891D01*
X213115224Y-69486645D01*
X213143355Y-69514776D01*
X213180109Y-69530000D01*
X213219891Y-69530000D01*
X213256645Y-69514776D01*
X213284776Y-69486645D01*
X213300000Y-69449891D01*
X213300000Y-69429998D01*
X213553553Y-69429998D01*
X213553553Y-69429999D01*
X213900000Y-69776446D01*
X213900001Y-69776446D01*
X214263107Y-69413338D01*
X214249301Y-69404663D01*
X214079142Y-69345121D01*
X214078346Y-69344940D01*
X214077883Y-69344681D01*
X214072570Y-69342822D01*
X214072895Y-69341890D01*
X214017370Y-69310827D01*
X213988049Y-69257125D01*
X213987177Y-69257431D01*
X213985321Y-69252128D01*
X213985057Y-69251644D01*
X213984878Y-69250862D01*
X213925333Y-69080692D01*
X213916661Y-69066892D01*
X213916660Y-69066892D01*
X213553553Y-69429998D01*
X213300000Y-69429998D01*
X213300000Y-69410109D01*
X213284776Y-69373355D01*
X213256645Y-69345224D01*
X213219891Y-69330000D01*
X213180109Y-69330000D01*
X213143355Y-69345224D01*
X213115224Y-69373355D01*
X213100000Y-69410109D01*
X212866337Y-69410109D01*
X212919314Y-69357132D01*
X213200000Y-69076447D01*
X213563106Y-68713338D01*
X213549304Y-68704665D01*
X213379138Y-68645121D01*
X213200003Y-68624938D01*
X213199997Y-68624938D01*
X213020861Y-68645121D01*
X213020857Y-68645122D01*
X212856899Y-68702493D01*
X212787120Y-68706054D01*
X212726493Y-68671325D01*
X212694266Y-68609331D01*
X212700672Y-68539756D01*
X212728262Y-68497772D01*
X214089216Y-67136819D01*
X214150539Y-67103334D01*
X214176897Y-67100500D01*
X224653199Y-67100500D01*
X224720238Y-67120185D01*
X224762253Y-67165481D01*
X224764075Y-67168848D01*
X224891016Y-67363147D01*
X224891019Y-67363151D01*
X224891021Y-67363153D01*
X225048216Y-67533913D01*
X225048219Y-67533915D01*
X225048222Y-67533918D01*
X225231365Y-67676464D01*
X225231371Y-67676468D01*
X225231374Y-67676470D01*
X225435497Y-67786936D01*
X225549487Y-67826068D01*
X225655015Y-67862297D01*
X225655017Y-67862297D01*
X225655019Y-67862298D01*
X225883951Y-67900500D01*
X225883952Y-67900500D01*
X226116048Y-67900500D01*
X226116049Y-67900500D01*
X226344981Y-67862298D01*
X226564503Y-67786936D01*
X226768626Y-67676470D01*
X226951784Y-67533913D01*
X227108979Y-67363153D01*
X227235924Y-67168849D01*
X227329157Y-66956300D01*
X227386134Y-66731305D01*
X227398842Y-66577938D01*
X227405300Y-66500006D01*
X227405300Y-66499993D01*
X227386135Y-66268702D01*
X227386133Y-66268691D01*
X227329157Y-66043699D01*
X227235924Y-65831151D01*
X227108983Y-65636852D01*
X227108980Y-65636849D01*
X227108979Y-65636847D01*
X226951784Y-65466087D01*
X226951779Y-65466083D01*
X226951777Y-65466081D01*
X226768634Y-65323535D01*
X226768628Y-65323531D01*
X226564504Y-65213064D01*
X226564495Y-65213061D01*
X226522427Y-65198619D01*
X228054500Y-65198619D01*
X228054500Y-65501380D01*
X228088396Y-65802211D01*
X228088398Y-65802227D01*
X228155765Y-66097385D01*
X228155769Y-66097397D01*
X228255756Y-66383141D01*
X228255765Y-66383163D01*
X228387114Y-66655913D01*
X228387118Y-66655919D01*
X228548192Y-66912266D01*
X228736955Y-67148967D01*
X228951033Y-67363045D01*
X229187734Y-67551808D01*
X229386129Y-67676468D01*
X229444086Y-67712885D01*
X229716836Y-67844234D01*
X229716845Y-67844237D01*
X229716852Y-67844241D01*
X229716858Y-67844243D01*
X230002602Y-67944230D01*
X230002617Y-67944235D01*
X230053513Y-67955851D01*
X230106348Y-67967910D01*
X230167327Y-68002018D01*
X230200186Y-68063679D01*
X230194491Y-68133316D01*
X230152052Y-68188820D01*
X230118616Y-68206220D01*
X229839180Y-68301076D01*
X229839174Y-68301078D01*
X229559959Y-68438772D01*
X229559946Y-68438779D01*
X229301088Y-68611743D01*
X229255380Y-68651827D01*
X230059873Y-69456320D01*
X229935680Y-69546554D01*
X229796554Y-69685680D01*
X229706320Y-69809873D01*
X228901827Y-69005380D01*
X228861743Y-69051088D01*
X228688779Y-69309946D01*
X228688772Y-69309959D01*
X228551078Y-69589174D01*
X228551074Y-69589184D01*
X228451007Y-69883973D01*
X228451002Y-69883993D01*
X228390267Y-70189324D01*
X228390266Y-70189336D01*
X228369904Y-70500000D01*
X228390266Y-70810663D01*
X228390267Y-70810675D01*
X228451002Y-71116006D01*
X228451007Y-71116026D01*
X228551074Y-71410815D01*
X228551078Y-71410825D01*
X228688772Y-71690040D01*
X228688779Y-71690053D01*
X228861740Y-71948908D01*
X228901827Y-71994618D01*
X228901828Y-71994618D01*
X229706320Y-71190125D01*
X229796554Y-71314320D01*
X229935680Y-71453446D01*
X230059873Y-71543678D01*
X229255379Y-72348171D01*
X229301091Y-72388258D01*
X229559946Y-72561220D01*
X229559959Y-72561227D01*
X229839174Y-72698921D01*
X229839184Y-72698925D01*
X230133973Y-72798992D01*
X230133993Y-72798997D01*
X230439324Y-72859732D01*
X230439336Y-72859733D01*
X230750000Y-72880095D01*
X231060663Y-72859733D01*
X231060675Y-72859732D01*
X231366006Y-72798997D01*
X231366026Y-72798992D01*
X231660815Y-72698925D01*
X231660825Y-72698921D01*
X231940040Y-72561227D01*
X231940053Y-72561220D01*
X232198912Y-72388256D01*
X232244618Y-72348172D01*
X232244618Y-72348171D01*
X231440126Y-71543679D01*
X231564320Y-71453446D01*
X231703446Y-71314320D01*
X231793679Y-71190126D01*
X232598171Y-71994618D01*
X232598172Y-71994618D01*
X232638257Y-71948911D01*
X232811220Y-71690053D01*
X232811227Y-71690040D01*
X232948921Y-71410825D01*
X232948925Y-71410815D01*
X233048992Y-71116026D01*
X233048997Y-71116006D01*
X233109732Y-70810675D01*
X233109733Y-70810663D01*
X233130095Y-70500000D01*
X233109733Y-70189336D01*
X233109732Y-70189324D01*
X233048997Y-69883993D01*
X233048992Y-69883973D01*
X232948925Y-69589184D01*
X232948921Y-69589174D01*
X232811227Y-69309959D01*
X232811220Y-69309946D01*
X232638258Y-69051091D01*
X232598171Y-69005379D01*
X231793678Y-69809872D01*
X231703446Y-69685680D01*
X231564320Y-69546554D01*
X231440126Y-69456320D01*
X232244618Y-68651828D01*
X232244618Y-68651827D01*
X232198908Y-68611740D01*
X231940053Y-68438779D01*
X231940040Y-68438772D01*
X231660825Y-68301078D01*
X231660819Y-68301076D01*
X231381383Y-68206220D01*
X231324229Y-68166031D01*
X231297876Y-68101322D01*
X231310690Y-68032638D01*
X231358604Y-67981785D01*
X231393647Y-67967911D01*
X231497386Y-67944234D01*
X231783148Y-67844241D01*
X231862580Y-67805989D01*
X232055913Y-67712885D01*
X232055913Y-67712884D01*
X232055919Y-67712882D01*
X232312266Y-67551808D01*
X232548967Y-67363045D01*
X232763045Y-67148967D01*
X232951808Y-66912266D01*
X233112882Y-66655919D01*
X233150436Y-66577937D01*
X233244234Y-66383163D01*
X233244235Y-66383159D01*
X233244241Y-66383148D01*
X233344234Y-66097386D01*
X233411602Y-65802224D01*
X233445500Y-65501376D01*
X233445500Y-65198624D01*
X233411602Y-64897776D01*
X233344234Y-64602614D01*
X233244241Y-64316852D01*
X233244237Y-64316845D01*
X233244234Y-64316836D01*
X233112885Y-64044086D01*
X233112882Y-64044081D01*
X232951808Y-63787734D01*
X232763045Y-63551033D01*
X232548967Y-63336955D01*
X232312266Y-63148192D01*
X232055919Y-62987118D01*
X232055920Y-62987118D01*
X232055913Y-62987114D01*
X231783163Y-62855765D01*
X231783141Y-62855756D01*
X231497397Y-62755769D01*
X231497385Y-62755765D01*
X231202227Y-62688398D01*
X231202211Y-62688396D01*
X230901380Y-62654500D01*
X230901376Y-62654500D01*
X230598624Y-62654500D01*
X230598620Y-62654500D01*
X230297788Y-62688396D01*
X230297772Y-62688398D01*
X230002614Y-62755765D01*
X230002602Y-62755769D01*
X229716858Y-62855756D01*
X229716836Y-62855765D01*
X229444086Y-62987114D01*
X229187735Y-63148191D01*
X228951033Y-63336954D01*
X228736954Y-63551033D01*
X228548191Y-63787735D01*
X228387114Y-64044086D01*
X228255765Y-64316836D01*
X228255756Y-64316858D01*
X228155769Y-64602602D01*
X228155765Y-64602614D01*
X228088398Y-64897772D01*
X228088396Y-64897788D01*
X228054500Y-65198619D01*
X226522427Y-65198619D01*
X226344984Y-65137702D01*
X226173282Y-65109050D01*
X226116049Y-65099500D01*
X225883951Y-65099500D01*
X225838164Y-65107140D01*
X225655015Y-65137702D01*
X225435504Y-65213061D01*
X225435495Y-65213064D01*
X225231371Y-65323531D01*
X225231365Y-65323535D01*
X225048222Y-65466081D01*
X225048219Y-65466084D01*
X224891016Y-65636852D01*
X224764075Y-65831151D01*
X224762253Y-65834519D01*
X224713033Y-65884109D01*
X224653199Y-65899500D01*
X213955857Y-65899500D01*
X213797743Y-65899500D01*
X213645015Y-65940423D01*
X213645014Y-65940423D01*
X213645012Y-65940424D01*
X213645009Y-65940425D01*
X213594896Y-65969359D01*
X213594895Y-65969360D01*
X213551489Y-65994420D01*
X213508085Y-66019479D01*
X213508082Y-66019481D01*
X206184781Y-73342782D01*
X206184779Y-73342785D01*
X206134661Y-73429594D01*
X206134659Y-73429596D01*
X206105725Y-73479709D01*
X206105724Y-73479710D01*
X206105723Y-73479715D01*
X206064799Y-73632443D01*
X206064799Y-73632445D01*
X206064799Y-73800546D01*
X206064800Y-73800559D01*
X206064800Y-89369830D01*
X206064799Y-89369848D01*
X206064799Y-89535554D01*
X206064798Y-89535554D01*
X206064799Y-89535557D01*
X206105723Y-89688285D01*
X206129263Y-89729057D01*
X206184779Y-89825214D01*
X206184781Y-89825217D01*
X206303649Y-89944085D01*
X206303655Y-89944090D01*
X206597384Y-90237819D01*
X206630869Y-90299142D01*
X206625885Y-90368834D01*
X206584013Y-90424767D01*
X206518549Y-90449184D01*
X206509703Y-90449500D01*
X206421155Y-90449500D01*
X206266510Y-90480261D01*
X206266498Y-90480264D01*
X206120827Y-90540602D01*
X206120814Y-90540609D01*
X205989711Y-90628210D01*
X205989707Y-90628213D01*
X205878213Y-90739707D01*
X205878210Y-90739711D01*
X205790609Y-90870814D01*
X205790602Y-90870827D01*
X205730264Y-91016498D01*
X205730261Y-91016510D01*
X205699500Y-91171153D01*
X205699500Y-91328846D01*
X205730261Y-91483489D01*
X205730264Y-91483501D01*
X205790602Y-91629172D01*
X205790609Y-91629185D01*
X205878210Y-91760288D01*
X205878213Y-91760292D01*
X205989707Y-91871786D01*
X205989711Y-91871789D01*
X206120814Y-91959390D01*
X206120827Y-91959397D01*
X206266498Y-92019735D01*
X206266503Y-92019737D01*
X206421153Y-92050499D01*
X206421156Y-92050500D01*
X206421158Y-92050500D01*
X206578844Y-92050500D01*
X206578845Y-92050499D01*
X206733497Y-92019737D01*
X206789120Y-91996697D01*
X206884808Y-91957063D01*
X206885391Y-91958472D01*
X206946434Y-91945756D01*
X207011681Y-91970748D01*
X207053059Y-92027048D01*
X207060500Y-92069357D01*
X207060500Y-93388901D01*
X207040815Y-93455940D01*
X207024181Y-93476583D01*
X206963117Y-93537646D01*
X206901793Y-93571130D01*
X206843343Y-93569739D01*
X206731055Y-93539652D01*
X206731051Y-93539651D01*
X206731050Y-93539651D01*
X206731049Y-93539650D01*
X206731044Y-93539650D01*
X206500002Y-93519437D01*
X206499998Y-93519437D01*
X206268955Y-93539650D01*
X206268948Y-93539651D01*
X206044917Y-93599681D01*
X205834718Y-93697699D01*
X205834714Y-93697701D01*
X205644735Y-93830726D01*
X205644729Y-93830731D01*
X205480731Y-93994729D01*
X205480726Y-93994735D01*
X205347699Y-94184717D01*
X205335547Y-94210777D01*
X205289373Y-94263215D01*
X205222178Y-94282365D01*
X205155298Y-94262147D01*
X205135485Y-94246050D01*
X204635019Y-93745584D01*
X204601534Y-93684261D01*
X204598700Y-93657903D01*
X204598700Y-78315812D01*
X204618385Y-78248773D01*
X204625755Y-78238497D01*
X204628010Y-78235667D01*
X204628016Y-78235662D01*
X204723989Y-78082922D01*
X204783568Y-77912655D01*
X204803765Y-77733400D01*
X204783568Y-77554145D01*
X204723989Y-77383878D01*
X204628016Y-77231138D01*
X204500462Y-77103584D01*
X204347723Y-77007611D01*
X204177454Y-76948031D01*
X204177450Y-76948030D01*
X204068916Y-76935802D01*
X204004502Y-76908735D01*
X203964947Y-76851141D01*
X203958800Y-76812582D01*
X203958800Y-70535196D01*
X203978485Y-70468157D01*
X203995114Y-70447520D01*
X206531735Y-67910898D01*
X206593056Y-67877415D01*
X206605511Y-67875363D01*
X206692455Y-67865568D01*
X206862722Y-67805989D01*
X207015462Y-67710016D01*
X207143016Y-67582462D01*
X207238989Y-67429722D01*
X207298568Y-67259455D01*
X207308777Y-67168848D01*
X207318765Y-67080203D01*
X207318765Y-67080196D01*
X207298569Y-66900950D01*
X207298568Y-66900945D01*
X207239208Y-66731305D01*
X207238989Y-66730678D01*
X207143016Y-66577938D01*
X207015462Y-66450384D01*
X206862723Y-66354411D01*
X206692454Y-66294831D01*
X206692449Y-66294830D01*
X206513204Y-66274635D01*
X206513196Y-66274635D01*
X206333950Y-66294830D01*
X206333945Y-66294831D01*
X206163676Y-66354411D01*
X206010937Y-66450384D01*
X205883384Y-66577937D01*
X205787410Y-66730678D01*
X205727830Y-66900950D01*
X205718037Y-66987868D01*
X205690970Y-67052282D01*
X205682498Y-67061665D01*
X202989586Y-69754578D01*
X202877781Y-69866382D01*
X202877779Y-69866385D01*
X202827661Y-69953194D01*
X202827659Y-69953196D01*
X202798725Y-70003309D01*
X202798724Y-70003310D01*
X202787493Y-70045224D01*
X202757799Y-70156043D01*
X202757799Y-70156045D01*
X202757799Y-70324146D01*
X202757800Y-70324159D01*
X202757800Y-85076216D01*
X202738115Y-85143255D01*
X202685311Y-85189010D01*
X202616153Y-85198954D01*
X202574377Y-85185050D01*
X202567335Y-85181205D01*
X202432482Y-85130908D01*
X202432483Y-85130908D01*
X202372883Y-85124501D01*
X202372881Y-85124500D01*
X202372873Y-85124500D01*
X202372864Y-85124500D01*
X200627129Y-85124500D01*
X200627123Y-85124501D01*
X200567514Y-85130909D01*
X200517832Y-85149439D01*
X200448140Y-85154423D01*
X200386817Y-85120937D01*
X200353333Y-85059613D01*
X200350500Y-85033257D01*
X200350500Y-61744000D01*
X200370185Y-61676961D01*
X200422989Y-61631206D01*
X200474500Y-61620000D01*
X208349108Y-61620000D01*
X208350945Y-61620014D01*
G37*
G04 #@! TD.AperFunction*
G04 #@! TA.AperFunction,Conductor*
G36*
X231755700Y-113420300D02*
G01*
X231736015Y-113487339D01*
X231683211Y-113533094D01*
X231631700Y-113544300D01*
X231555428Y-113544300D01*
X231647314Y-113506240D01*
X231717640Y-113435914D01*
X231755700Y-113344028D01*
X231755700Y-113420300D01*
G37*
G04 #@! TD.AperFunction*
G04 #@! TA.AperFunction,Conductor*
G36*
X231698739Y-113063985D02*
G01*
X231744494Y-113116789D01*
X231755700Y-113168300D01*
X231755700Y-113244572D01*
X231717640Y-113152686D01*
X231647314Y-113082360D01*
X231555428Y-113044300D01*
X231631700Y-113044300D01*
X231698739Y-113063985D01*
G37*
G04 #@! TD.AperFunction*
M02*
