M48
; DRILL file {KiCad 8.0.4} date 2024-08-02T16:31:52-0400
; FORMAT={-:-/ absolute / metric / decimal}
; #@! TF.CreationDate,2024-08-02T16:31:52-04:00
; #@! TF.GenerationSoftware,Kicad,Pcbnew,8.0.4
; #@! TF.FileFunction,Plated,1,2,PTH
FMAT,2
METRIC
; #@! TA.AperFunction,Plated,PTH,ComponentDrill
T1C0.200
; #@! TA.AperFunction,Plated,PTH,ViaDrill
T2C0.300
; #@! TA.AperFunction,Plated,PTH,ComponentDrill
T3C0.500
; #@! TA.AperFunction,Plated,PTH,ComponentDrill
T4C0.600
; #@! TA.AperFunction,Plated,PTH,ComponentDrill
T5C1.100
; #@! TA.AperFunction,Plated,PTH,ComponentDrill
T6C1.200
; #@! TA.AperFunction,Plated,PTH,ComponentDrill
T7C2.500
%
G90
G05
T1
X211.1Y-70.13
X211.1Y-71.53
X211.8Y-69.43
X211.8Y-70.83
X211.8Y-72.23
X212.5Y-70.13
X212.5Y-71.53
X213.2Y-69.43
X213.2Y-70.83
X213.2Y-72.23
X213.9Y-70.13
X213.9Y-71.53
T2
X203.998Y-77.733
X204.198Y-102.228
X205.25Y-102.352
X206.513Y-67.08
X207.269Y-79.6
X211.3Y-113.567
X212.14Y-101.68
X213.136Y-112.974
X213.553Y-106.373
X213.7Y-111.103
X215.281Y-92.275
X216.2Y-113.576
X216.5Y-98.162
X216.563Y-87.292
X216.574Y-88.612
X216.905Y-92.283
X217.858Y-92.98
X218.0Y-89.761
X218.424Y-93.926
X219.724Y-89.088
X219.73Y-86.655
X220.652Y-91.344
X220.75Y-117.027
X221.093Y-90.122
X221.479Y-74.445
X222.164Y-96.071
X226.356Y-99.724
T3
X221.5Y-84.25
X221.5Y-85.25
X221.5Y-86.25
X221.5Y-87.25
X228.25Y-96.0
X228.5Y-99.0
X229.25Y-96.0
X229.5Y-99.0
X230.25Y-96.0
X230.5Y-99.0
X231.25Y-96.0
X231.5Y-99.0
X231.506Y-103.294
X231.506Y-104.294
X231.506Y-105.294
X231.506Y-106.294
X231.506Y-107.294
X231.506Y-111.294
X231.506Y-112.294
X231.506Y-113.294
X231.506Y-114.294
X232.25Y-96.0
T5
X201.5Y-86.45
X201.5Y-95.75
X206.5Y-94.85
X209.6Y-89.65
T6
X226.0Y-66.5
X226.0Y-80.5
T7
X230.75Y-70.5
X230.75Y-84.5
T4
X209.43Y-115.17G85X209.43Y-116.27
G05
X209.43Y-119.6G85X209.43Y-120.2
G05
X218.07Y-115.17G85X218.07Y-116.27
G05
X218.07Y-119.6G85X218.07Y-120.2
G05
M30
