G04 #@! TF.GenerationSoftware,KiCad,Pcbnew,8.0.4*
G04 #@! TF.CreationDate,2024-08-02T16:29:59-04:00*
G04 #@! TF.ProjectId,adcesp32,61646365-7370-4333-922e-6b696361645f,rev?*
G04 #@! TF.SameCoordinates,Original*
G04 #@! TF.FileFunction,Legend,Top*
G04 #@! TF.FilePolarity,Positive*
%FSLAX46Y46*%
G04 Gerber Fmt 4.6, Leading zero omitted, Abs format (unit mm)*
G04 Created by KiCad (PCBNEW 8.0.4) date 2024-08-02 16:29:59*
%MOMM*%
%LPD*%
G01*
G04 APERTURE LIST*
G04 Aperture macros list*
%AMRoundRect*
0 Rectangle with rounded corners*
0 $1 Rounding radius*
0 $2 $3 $4 $5 $6 $7 $8 $9 X,Y pos of 4 corners*
0 Add a 4 corners polygon primitive as box body*
4,1,4,$2,$3,$4,$5,$6,$7,$8,$9,$2,$3,0*
0 Add four circle primitives for the rounded corners*
1,1,$1+$1,$2,$3*
1,1,$1+$1,$4,$5*
1,1,$1+$1,$6,$7*
1,1,$1+$1,$8,$9*
0 Add four rect primitives between the rounded corners*
20,1,$1+$1,$2,$3,$4,$5,0*
20,1,$1+$1,$4,$5,$6,$7,0*
20,1,$1+$1,$6,$7,$8,$9,0*
20,1,$1+$1,$8,$9,$2,$3,0*%
G04 Aperture macros list end*
%ADD10C,0.150000*%
%ADD11C,0.120000*%
%ADD12C,0.200000*%
%ADD13C,0.100000*%
%ADD14C,0.127000*%
%ADD15RoundRect,0.140000X-0.140000X-0.170000X0.140000X-0.170000X0.140000X0.170000X-0.140000X0.170000X0*%
%ADD16RoundRect,0.250000X0.450000X-0.262500X0.450000X0.262500X-0.450000X0.262500X-0.450000X-0.262500X0*%
%ADD17R,0.850000X0.850000*%
%ADD18O,0.850000X0.850000*%
%ADD19C,1.100000*%
%ADD20R,1.650000X1.650000*%
%ADD21C,1.650000*%
%ADD22RoundRect,0.135000X-0.135000X-0.185000X0.135000X-0.185000X0.135000X0.185000X-0.135000X0.185000X0*%
%ADD23RoundRect,0.102000X-0.500000X-0.375000X0.500000X-0.375000X0.500000X0.375000X-0.500000X0.375000X0*%
%ADD24RoundRect,0.200000X0.200000X0.275000X-0.200000X0.275000X-0.200000X-0.275000X0.200000X-0.275000X0*%
%ADD25RoundRect,0.140000X0.140000X0.170000X-0.140000X0.170000X-0.140000X-0.170000X0.140000X-0.170000X0*%
%ADD26R,0.300000X1.475000*%
%ADD27RoundRect,0.200000X-0.200000X-0.275000X0.200000X-0.275000X0.200000X0.275000X-0.200000X0.275000X0*%
%ADD28RoundRect,0.135000X0.135000X0.185000X-0.135000X0.185000X-0.135000X-0.185000X0.135000X-0.185000X0*%
%ADD29RoundRect,0.200000X0.275000X-0.200000X0.275000X0.200000X-0.275000X0.200000X-0.275000X-0.200000X0*%
%ADD30C,0.650000*%
%ADD31R,0.600000X1.450000*%
%ADD32R,0.300000X1.450000*%
%ADD33O,1.000000X2.100000*%
%ADD34O,1.000000X1.600000*%
%ADD35RoundRect,0.375000X0.375000X-0.625000X0.375000X0.625000X-0.375000X0.625000X-0.375000X-0.625000X0*%
%ADD36RoundRect,0.500000X1.400000X-0.500000X1.400000X0.500000X-1.400000X0.500000X-1.400000X-0.500000X0*%
%ADD37R,1.500000X0.900000*%
%ADD38R,0.900000X1.500000*%
%ADD39C,0.600000*%
%ADD40R,3.900000X3.900000*%
%ADD41RoundRect,0.140000X0.170000X-0.140000X0.170000X0.140000X-0.170000X0.140000X-0.170000X-0.140000X0*%
%ADD42RoundRect,0.218750X0.218750X0.381250X-0.218750X0.381250X-0.218750X-0.381250X0.218750X-0.381250X0*%
%ADD43C,4.890000*%
%ADD44R,3.750000X3.750000*%
%ADD45C,1.800000*%
%ADD46C,3.750000*%
%ADD47RoundRect,0.102000X0.500000X0.375000X-0.500000X0.375000X-0.500000X-0.375000X0.500000X-0.375000X0*%
G04 APERTURE END LIST*
D10*
X230672366Y-108499119D02*
X230672366Y-109213404D01*
X230672366Y-109213404D02*
X230624747Y-109356261D01*
X230624747Y-109356261D02*
X230529509Y-109451500D01*
X230529509Y-109451500D02*
X230386652Y-109499119D01*
X230386652Y-109499119D02*
X230291414Y-109499119D01*
X231291414Y-108927690D02*
X231196176Y-108880071D01*
X231196176Y-108880071D02*
X231148557Y-108832452D01*
X231148557Y-108832452D02*
X231100938Y-108737214D01*
X231100938Y-108737214D02*
X231100938Y-108689595D01*
X231100938Y-108689595D02*
X231148557Y-108594357D01*
X231148557Y-108594357D02*
X231196176Y-108546738D01*
X231196176Y-108546738D02*
X231291414Y-108499119D01*
X231291414Y-108499119D02*
X231481890Y-108499119D01*
X231481890Y-108499119D02*
X231577128Y-108546738D01*
X231577128Y-108546738D02*
X231624747Y-108594357D01*
X231624747Y-108594357D02*
X231672366Y-108689595D01*
X231672366Y-108689595D02*
X231672366Y-108737214D01*
X231672366Y-108737214D02*
X231624747Y-108832452D01*
X231624747Y-108832452D02*
X231577128Y-108880071D01*
X231577128Y-108880071D02*
X231481890Y-108927690D01*
X231481890Y-108927690D02*
X231291414Y-108927690D01*
X231291414Y-108927690D02*
X231196176Y-108975309D01*
X231196176Y-108975309D02*
X231148557Y-109022928D01*
X231148557Y-109022928D02*
X231100938Y-109118166D01*
X231100938Y-109118166D02*
X231100938Y-109308642D01*
X231100938Y-109308642D02*
X231148557Y-109403880D01*
X231148557Y-109403880D02*
X231196176Y-109451500D01*
X231196176Y-109451500D02*
X231291414Y-109499119D01*
X231291414Y-109499119D02*
X231481890Y-109499119D01*
X231481890Y-109499119D02*
X231577128Y-109451500D01*
X231577128Y-109451500D02*
X231624747Y-109403880D01*
X231624747Y-109403880D02*
X231672366Y-109308642D01*
X231672366Y-109308642D02*
X231672366Y-109118166D01*
X231672366Y-109118166D02*
X231624747Y-109022928D01*
X231624747Y-109022928D02*
X231577128Y-108975309D01*
X231577128Y-108975309D02*
X231481890Y-108927690D01*
D11*
X209372164Y-99140000D02*
X209587836Y-99140000D01*
X209372164Y-99860000D02*
X209587836Y-99860000D01*
X215265000Y-111564564D02*
X215265000Y-111110436D01*
X216735000Y-111564564D02*
X216735000Y-111110436D01*
X208912164Y-112140000D02*
X209127836Y-112140000D01*
X208912164Y-112860000D02*
X209127836Y-112860000D01*
X227565000Y-96695000D02*
X227565000Y-96000000D01*
X228250000Y-96695000D02*
X227565000Y-96695000D01*
X228935000Y-95305000D02*
X232810000Y-95305000D01*
X228935000Y-95391724D02*
X228935000Y-95305000D01*
X228935000Y-96695000D02*
X228935000Y-96608276D01*
X228935000Y-96695000D02*
X232810000Y-96695000D01*
X232810000Y-95605507D02*
X232810000Y-95305000D01*
X232810000Y-96695000D02*
X232810000Y-96394493D01*
D12*
X196100000Y-88250000D02*
X196100000Y-94250000D01*
X196100000Y-94250000D02*
X199100000Y-94250000D01*
X199100000Y-85950000D02*
X199100000Y-96150000D01*
X199100000Y-88250000D02*
X196100000Y-88250000D01*
X199100000Y-96150000D02*
X200100000Y-96150000D01*
X200100000Y-85950000D02*
X199100000Y-85950000D01*
D13*
X201500000Y-85100000D02*
X201500000Y-85100000D01*
X201500000Y-85200000D02*
X201500000Y-85200000D01*
D12*
X202700000Y-96150000D02*
X210100000Y-96150000D01*
X203100000Y-85950000D02*
X210100000Y-85950000D01*
X210100000Y-85950000D02*
X210100000Y-88250000D01*
X210100000Y-96150000D02*
X210100000Y-90850000D01*
D13*
X201500000Y-85100000D02*
G75*
G02*
X201500000Y-85200000I0J-50000D01*
G01*
X201500000Y-85200000D02*
G75*
G02*
X201500000Y-85100000I0J50000D01*
G01*
D11*
X211086359Y-109120000D02*
X211393641Y-109120000D01*
X211086359Y-109880000D02*
X211393641Y-109880000D01*
X214872164Y-99140000D02*
X215087836Y-99140000D01*
X214872164Y-99860000D02*
X215087836Y-99860000D01*
D14*
X201950000Y-116820000D02*
X201950000Y-119180000D01*
X206750000Y-115450000D02*
X202250000Y-115450000D01*
X206750000Y-120550000D02*
X202250000Y-120550000D01*
X207050000Y-119180000D02*
X207050000Y-116820000D01*
D12*
X200350000Y-116125000D02*
G75*
G02*
X200150000Y-116125000I-100000J0D01*
G01*
X200150000Y-116125000D02*
G75*
G02*
X200350000Y-116125000I100000J0D01*
G01*
D11*
X227940000Y-98305000D02*
X227940000Y-98605507D01*
X227940000Y-99394493D02*
X227940000Y-99695000D01*
X230815000Y-98305000D02*
X227940000Y-98305000D01*
X230815000Y-98305000D02*
X230815000Y-98391724D01*
X230815000Y-99608276D02*
X230815000Y-99695000D01*
X230815000Y-99695000D02*
X227940000Y-99695000D01*
X231500000Y-98305000D02*
X232185000Y-98305000D01*
X232185000Y-98305000D02*
X232185000Y-99000000D01*
X215062258Y-86477500D02*
X214587742Y-86477500D01*
X215062258Y-87522500D02*
X214587742Y-87522500D01*
X208912164Y-109140000D02*
X209127836Y-109140000D01*
X208912164Y-109860000D02*
X209127836Y-109860000D01*
X230810700Y-102609300D02*
X231505700Y-102609300D01*
X230810700Y-103294300D02*
X230810700Y-102609300D01*
X230810700Y-103979300D02*
X230810700Y-107854300D01*
X230810700Y-103979300D02*
X230897424Y-103979300D01*
X230810700Y-107854300D02*
X231111207Y-107854300D01*
X231900193Y-107854300D02*
X232200700Y-107854300D01*
X232113976Y-103979300D02*
X232200700Y-103979300D01*
X232200700Y-103979300D02*
X232200700Y-107854300D01*
X217515000Y-111639564D02*
X217515000Y-111185436D01*
X218985000Y-111639564D02*
X218985000Y-111185436D01*
X213087836Y-100140000D02*
X212872164Y-100140000D01*
X213087836Y-100860000D02*
X212872164Y-100860000D01*
D14*
X221200000Y-109195000D02*
X221200000Y-111555000D01*
X226000000Y-107825000D02*
X221500000Y-107825000D01*
X226000000Y-112925000D02*
X221500000Y-112925000D01*
X226300000Y-111555000D02*
X226300000Y-109195000D01*
D12*
X219600000Y-108500000D02*
G75*
G02*
X219400000Y-108500000I-100000J0D01*
G01*
X219400000Y-108500000D02*
G75*
G02*
X219600000Y-108500000I100000J0D01*
G01*
D11*
X214622164Y-104640000D02*
X214837836Y-104640000D01*
X214622164Y-105360000D02*
X214837836Y-105360000D01*
D12*
X212500000Y-97613000D02*
X212500000Y-96138000D01*
X212600000Y-92088000D02*
X220400000Y-92088000D01*
X212600000Y-95788000D02*
X212600000Y-92088000D01*
X220400000Y-92088000D02*
X220400000Y-95788000D01*
X220400000Y-95788000D02*
X212600000Y-95788000D01*
D11*
X209187742Y-110477500D02*
X209662258Y-110477500D01*
X209187742Y-111522500D02*
X209662258Y-111522500D01*
X223586359Y-113870000D02*
X223893641Y-113870000D01*
X223586359Y-114630000D02*
X223893641Y-114630000D01*
X226393641Y-113870000D02*
X226086359Y-113870000D01*
X226393641Y-114630000D02*
X226086359Y-114630000D01*
X230810700Y-110609300D02*
X231505700Y-110609300D01*
X230810700Y-111294300D02*
X230810700Y-110609300D01*
X230810700Y-111979300D02*
X230810700Y-114854300D01*
X230810700Y-111979300D02*
X230897424Y-111979300D01*
X230810700Y-114854300D02*
X231111207Y-114854300D01*
X231900193Y-114854300D02*
X232200700Y-114854300D01*
X232113976Y-111979300D02*
X232200700Y-111979300D01*
X232200700Y-111979300D02*
X232200700Y-114854300D01*
X214582164Y-103390000D02*
X214797836Y-103390000D01*
X214582164Y-104110000D02*
X214797836Y-104110000D01*
X217727500Y-107987258D02*
X217727500Y-107512742D01*
X218772500Y-107987258D02*
X218772500Y-107512742D01*
X209050000Y-116950000D02*
X209050000Y-118950000D01*
X209050000Y-120850000D02*
X209050000Y-122750000D01*
X209050000Y-122750000D02*
X218450000Y-122750000D01*
X218450000Y-116950000D02*
X218450000Y-118950000D01*
X218450000Y-120850000D02*
X218450000Y-122750000D01*
X211403641Y-112120000D02*
X211096359Y-112120000D01*
X211403641Y-112880000D02*
X211096359Y-112880000D01*
X200590000Y-106840000D02*
X201850000Y-106840000D01*
X200590000Y-110600000D02*
X200590000Y-106840000D01*
X207410000Y-106840000D02*
X206150000Y-106840000D01*
X207410000Y-110600000D02*
X207410000Y-106840000D01*
X200690000Y-111880000D02*
X200360000Y-112120000D01*
X200360000Y-111640000D01*
X200690000Y-111880000D01*
G36*
X200690000Y-111880000D02*
G01*
X200360000Y-112120000D01*
X200360000Y-111640000D01*
X200690000Y-111880000D01*
G37*
X213067836Y-99140000D02*
X212852164Y-99140000D01*
X213067836Y-99860000D02*
X212852164Y-99860000D01*
X210082164Y-100140000D02*
X210297836Y-100140000D01*
X210082164Y-100860000D02*
X210297836Y-100860000D01*
X215477500Y-108062258D02*
X215477500Y-107587742D01*
X216522500Y-108062258D02*
X216522500Y-107587742D01*
X220805000Y-83565000D02*
X221500000Y-83565000D01*
X220805000Y-84250000D02*
X220805000Y-83565000D01*
X220805000Y-84935000D02*
X220805000Y-87810000D01*
X220805000Y-84935000D02*
X220891724Y-84935000D01*
X220805000Y-87810000D02*
X221105507Y-87810000D01*
X221894493Y-87810000D02*
X222195000Y-87810000D01*
X222108276Y-84935000D02*
X222195000Y-84935000D01*
X222195000Y-84935000D02*
X222195000Y-87810000D01*
X221392164Y-113890000D02*
X221607836Y-113890000D01*
X221392164Y-114610000D02*
X221607836Y-114610000D01*
X204800000Y-55470000D02*
X204800000Y-61670000D01*
X204800000Y-55470000D02*
X223200000Y-55470000D01*
X204800000Y-80320000D02*
X204800000Y-81320000D01*
X204800000Y-81320000D02*
X206300000Y-81320000D01*
X223200000Y-55470000D02*
X223200000Y-61670000D01*
X223200000Y-81320000D02*
X221700000Y-81320000D01*
X223200000Y-81320000D02*
X223200000Y-80320000D01*
X204800000Y-62345000D02*
X204300000Y-62345000D01*
X204800000Y-61845000D01*
X204800000Y-62345000D01*
G36*
X204800000Y-62345000D02*
G01*
X204300000Y-62345000D01*
X204800000Y-61845000D01*
X204800000Y-62345000D01*
G37*
X215082258Y-87977500D02*
X214607742Y-87977500D01*
X215082258Y-89022500D02*
X214607742Y-89022500D01*
X201390000Y-63877836D02*
X201390000Y-63662164D01*
X202110000Y-63877836D02*
X202110000Y-63662164D01*
X214547122Y-101440000D02*
X213747878Y-101440000D01*
X214547122Y-102560000D02*
X213747878Y-102560000D01*
D13*
X225250000Y-84500000D02*
X225250000Y-84500000D01*
X225350000Y-84500000D02*
X225350000Y-84500000D01*
D12*
X226500000Y-63800000D02*
X228575000Y-63800000D01*
X226500000Y-65500000D02*
X226500000Y-63800000D01*
X226500000Y-79500000D02*
X226500000Y-67500000D01*
X226500000Y-91200000D02*
X226500000Y-81600000D01*
X228575000Y-91200000D02*
X226500000Y-91200000D01*
X232975000Y-63800000D02*
X236250000Y-63800000D01*
X236250000Y-63800000D02*
X236250000Y-91200000D01*
X236250000Y-66500000D02*
X237705000Y-66500000D01*
X236250000Y-91200000D02*
X232975000Y-91200000D01*
X237705000Y-66500000D02*
X237705000Y-88650000D01*
X237705000Y-88650000D02*
X236250000Y-88650000D01*
D13*
X225250000Y-84500000D02*
G75*
G02*
X225350000Y-84500000I50000J0D01*
G01*
X225350000Y-84500000D02*
G75*
G02*
X225250000Y-84500000I-50000J0D01*
G01*
D14*
X221200000Y-116820000D02*
X221200000Y-119180000D01*
X221500000Y-115450000D02*
X226000000Y-115450000D01*
X221500000Y-120550000D02*
X226000000Y-120550000D01*
X226300000Y-119180000D02*
X226300000Y-116820000D01*
D12*
X228100000Y-119875000D02*
G75*
G02*
X227900000Y-119875000I-100000J0D01*
G01*
X227900000Y-119875000D02*
G75*
G02*
X228100000Y-119875000I100000J0D01*
G01*
D11*
X214852164Y-100140000D02*
X215067836Y-100140000D01*
X214852164Y-100860000D02*
X215067836Y-100860000D01*
%LPC*%
D15*
X209000000Y-99500000D03*
X209960000Y-99500000D03*
D16*
X216000000Y-112250000D03*
X216000000Y-110425000D03*
D15*
X208540000Y-112500000D03*
X209500000Y-112500000D03*
D17*
X228250000Y-96000000D03*
D18*
X229250000Y-96000000D03*
X230250000Y-96000000D03*
X231250000Y-96000000D03*
X232250000Y-96000000D03*
D19*
X201500000Y-91250000D03*
X206500000Y-91250000D03*
D20*
X201500000Y-86450000D03*
D21*
X206500000Y-94850000D03*
X209600000Y-89650000D03*
X201500000Y-95750000D03*
D22*
X210730000Y-109500000D03*
X211750000Y-109500000D03*
D15*
X214500000Y-99500000D03*
X215460000Y-99500000D03*
D23*
X201500000Y-116125000D03*
X207500000Y-116125000D03*
X201500000Y-119875000D03*
X207500000Y-119875000D03*
D17*
X231500000Y-99000000D03*
D18*
X230500000Y-99000000D03*
X229500000Y-99000000D03*
X228500000Y-99000000D03*
D24*
X215650000Y-87000000D03*
X214000000Y-87000000D03*
D15*
X208540000Y-109500000D03*
X209500000Y-109500000D03*
D17*
X231505700Y-103294300D03*
D18*
X231505700Y-104294300D03*
X231505700Y-105294300D03*
X231505700Y-106294300D03*
X231505700Y-107294300D03*
D16*
X218250000Y-112325000D03*
X218250000Y-110500000D03*
D25*
X213460000Y-100500000D03*
X212500000Y-100500000D03*
D23*
X220750000Y-108500000D03*
X226750000Y-108500000D03*
X220750000Y-112250000D03*
X226750000Y-112250000D03*
D15*
X214250000Y-105000000D03*
X215210000Y-105000000D03*
D26*
X213000000Y-96876000D03*
X213500000Y-96876000D03*
X214000000Y-96876000D03*
X214500000Y-96876000D03*
X215000000Y-96876000D03*
X215500000Y-96876000D03*
X216000000Y-96876000D03*
X216500000Y-96876000D03*
X217000000Y-96876000D03*
X217500000Y-96876000D03*
X218000000Y-96876000D03*
X218500000Y-96876000D03*
X219000000Y-96876000D03*
X219500000Y-96876000D03*
X220000000Y-96876000D03*
X220000000Y-91000000D03*
X219500000Y-91000000D03*
X219000000Y-91000000D03*
X218500000Y-91000000D03*
X218000000Y-91000000D03*
X217500000Y-91000000D03*
X217000000Y-91000000D03*
X216500000Y-91000000D03*
X216000000Y-91000000D03*
X215500000Y-91000000D03*
X215000000Y-91000000D03*
X214500000Y-91000000D03*
X214000000Y-91000000D03*
X213500000Y-91000000D03*
X213000000Y-91000000D03*
D27*
X208600000Y-111000000D03*
X210250000Y-111000000D03*
D22*
X223230000Y-114250000D03*
X224250000Y-114250000D03*
D28*
X226750000Y-114250000D03*
X225730000Y-114250000D03*
D17*
X231505700Y-111294300D03*
D18*
X231505700Y-112294300D03*
X231505700Y-113294300D03*
X231505700Y-114294300D03*
D15*
X214210000Y-103750000D03*
X215170000Y-103750000D03*
D29*
X218250000Y-108575000D03*
X218250000Y-106925000D03*
D30*
X210860000Y-116250000D03*
X216640000Y-116250000D03*
D31*
X210500000Y-114805000D03*
X211300000Y-114805000D03*
D32*
X212500000Y-114805000D03*
X213500000Y-114805000D03*
X214000000Y-114805000D03*
X215000000Y-114805000D03*
D31*
X216200000Y-114805000D03*
X217000000Y-114805000D03*
X217000000Y-114805000D03*
X216200000Y-114805000D03*
D32*
X215500000Y-114805000D03*
X214500000Y-114805000D03*
X213000000Y-114805000D03*
X212000000Y-114805000D03*
D31*
X211300000Y-114805000D03*
X210500000Y-114805000D03*
D33*
X209430000Y-115720000D03*
D34*
X209430000Y-119900000D03*
D33*
X218070000Y-115720000D03*
D34*
X218070000Y-119900000D03*
D28*
X211760000Y-112500000D03*
X210740000Y-112500000D03*
D35*
X201700000Y-111900000D03*
X204000000Y-111900000D03*
D36*
X204000000Y-105600000D03*
D35*
X206300000Y-111900000D03*
D25*
X213440000Y-99500000D03*
X212480000Y-99500000D03*
D15*
X209710000Y-100500000D03*
X210670000Y-100500000D03*
D29*
X216000000Y-108650000D03*
X216000000Y-107000000D03*
D17*
X221500000Y-84250000D03*
D18*
X221500000Y-85250000D03*
X221500000Y-86250000D03*
X221500000Y-87250000D03*
D15*
X221020000Y-114250000D03*
X221980000Y-114250000D03*
D37*
X205250000Y-63110000D03*
X205250000Y-64380000D03*
X205250000Y-65650000D03*
X205250000Y-66920000D03*
X205250000Y-68190000D03*
X205250000Y-69460000D03*
X205250000Y-70730000D03*
X205250000Y-72000000D03*
X205250000Y-73270000D03*
X205250000Y-74540000D03*
X205250000Y-75810000D03*
X205250000Y-77080000D03*
X205250000Y-78350000D03*
X205250000Y-79620000D03*
D38*
X207015000Y-80870000D03*
X208285000Y-80870000D03*
X209555000Y-80870000D03*
X210825000Y-80870000D03*
X212095000Y-80870000D03*
X213365000Y-80870000D03*
X214635000Y-80870000D03*
X215905000Y-80870000D03*
X217175000Y-80870000D03*
X218445000Y-80870000D03*
X219715000Y-80870000D03*
X220985000Y-80870000D03*
D37*
X222750000Y-79620000D03*
X222750000Y-78350000D03*
X222750000Y-77080000D03*
X222750000Y-75810000D03*
X222750000Y-74540000D03*
X222750000Y-73270000D03*
X222750000Y-72000000D03*
X222750000Y-70730000D03*
X222750000Y-69460000D03*
X222750000Y-68190000D03*
X222750000Y-66920000D03*
X222750000Y-65650000D03*
X222750000Y-64380000D03*
X222750000Y-63110000D03*
D39*
X211100000Y-70130000D03*
X211100000Y-71530000D03*
X211800000Y-69430000D03*
X211800000Y-70830000D03*
X211800000Y-72230000D03*
X212500000Y-70130000D03*
D40*
X212500000Y-70830000D03*
D39*
X212500000Y-71530000D03*
X213200000Y-69430000D03*
X213200000Y-70830000D03*
X213200000Y-72230000D03*
X213900000Y-70130000D03*
X213900000Y-71530000D03*
D24*
X215670000Y-88500000D03*
X214020000Y-88500000D03*
D41*
X201750000Y-64250000D03*
X201750000Y-63290000D03*
D42*
X215210000Y-102000000D03*
X213085000Y-102000000D03*
D43*
X230750000Y-65350000D03*
X230750000Y-89650000D03*
D44*
X230750000Y-84500000D03*
D45*
X226000000Y-80500000D03*
D46*
X230750000Y-70500000D03*
D45*
X226000000Y-66500000D03*
D47*
X226750000Y-119875000D03*
X220750000Y-119875000D03*
X226750000Y-116125000D03*
X220750000Y-116125000D03*
D15*
X214480000Y-100500000D03*
X215440000Y-100500000D03*
%LPD*%
M02*
