G04 #@! TF.GenerationSoftware,KiCad,Pcbnew,8.0.4*
G04 #@! TF.CreationDate,2024-08-02T16:29:59-04:00*
G04 #@! TF.ProjectId,adcesp32,61646365-7370-4333-922e-6b696361645f,rev?*
G04 #@! TF.SameCoordinates,Original*
G04 #@! TF.FileFunction,Paste,Top*
G04 #@! TF.FilePolarity,Positive*
%FSLAX46Y46*%
G04 Gerber Fmt 4.6, Leading zero omitted, Abs format (unit mm)*
G04 Created by KiCad (PCBNEW 8.0.4) date 2024-08-02 16:29:59*
%MOMM*%
%LPD*%
G01*
G04 APERTURE LIST*
G04 Aperture macros list*
%AMRoundRect*
0 Rectangle with rounded corners*
0 $1 Rounding radius*
0 $2 $3 $4 $5 $6 $7 $8 $9 X,Y pos of 4 corners*
0 Add a 4 corners polygon primitive as box body*
4,1,4,$2,$3,$4,$5,$6,$7,$8,$9,$2,$3,0*
0 Add four circle primitives for the rounded corners*
1,1,$1+$1,$2,$3*
1,1,$1+$1,$4,$5*
1,1,$1+$1,$6,$7*
1,1,$1+$1,$8,$9*
0 Add four rect primitives between the rounded corners*
20,1,$1+$1,$2,$3,$4,$5,0*
20,1,$1+$1,$4,$5,$6,$7,0*
20,1,$1+$1,$6,$7,$8,$9,0*
20,1,$1+$1,$8,$9,$2,$3,0*%
G04 Aperture macros list end*
%ADD10RoundRect,0.140000X-0.140000X-0.170000X0.140000X-0.170000X0.140000X0.170000X-0.140000X0.170000X0*%
%ADD11RoundRect,0.250000X0.450000X-0.262500X0.450000X0.262500X-0.450000X0.262500X-0.450000X-0.262500X0*%
%ADD12RoundRect,0.135000X-0.135000X-0.185000X0.135000X-0.185000X0.135000X0.185000X-0.135000X0.185000X0*%
%ADD13R,1.000000X0.750000*%
%ADD14RoundRect,0.200000X0.200000X0.275000X-0.200000X0.275000X-0.200000X-0.275000X0.200000X-0.275000X0*%
%ADD15RoundRect,0.140000X0.140000X0.170000X-0.140000X0.170000X-0.140000X-0.170000X0.140000X-0.170000X0*%
%ADD16R,0.300000X1.475000*%
%ADD17RoundRect,0.200000X-0.200000X-0.275000X0.200000X-0.275000X0.200000X0.275000X-0.200000X0.275000X0*%
%ADD18RoundRect,0.135000X0.135000X0.185000X-0.135000X0.185000X-0.135000X-0.185000X0.135000X-0.185000X0*%
%ADD19RoundRect,0.200000X0.275000X-0.200000X0.275000X0.200000X-0.275000X0.200000X-0.275000X-0.200000X0*%
%ADD20R,0.600000X1.450000*%
%ADD21R,0.300000X1.450000*%
%ADD22RoundRect,0.375000X0.375000X-0.625000X0.375000X0.625000X-0.375000X0.625000X-0.375000X-0.625000X0*%
%ADD23RoundRect,0.500000X1.400000X-0.500000X1.400000X0.500000X-1.400000X0.500000X-1.400000X-0.500000X0*%
%ADD24R,0.900000X0.900000*%
%ADD25R,1.500000X0.900000*%
%ADD26R,0.900000X1.500000*%
%ADD27RoundRect,0.140000X0.170000X-0.140000X0.170000X0.140000X-0.170000X0.140000X-0.170000X-0.140000X0*%
%ADD28RoundRect,0.218750X0.218750X0.381250X-0.218750X0.381250X-0.218750X-0.381250X0.218750X-0.381250X0*%
G04 APERTURE END LIST*
D10*
X209000000Y-99500000D03*
X209960000Y-99500000D03*
D11*
X216000000Y-112250000D03*
X216000000Y-110425000D03*
D10*
X208540000Y-112500000D03*
X209500000Y-112500000D03*
D12*
X210730000Y-109500000D03*
X211750000Y-109500000D03*
D10*
X214500000Y-99500000D03*
X215460000Y-99500000D03*
D13*
X201500000Y-116125000D03*
X207500000Y-116125000D03*
X201500000Y-119875000D03*
X207500000Y-119875000D03*
D14*
X215650000Y-87000000D03*
X214000000Y-87000000D03*
D10*
X208540000Y-109500000D03*
X209500000Y-109500000D03*
D11*
X218250000Y-112325000D03*
X218250000Y-110500000D03*
D15*
X213460000Y-100500000D03*
X212500000Y-100500000D03*
D13*
X220750000Y-108500000D03*
X226750000Y-108500000D03*
X220750000Y-112250000D03*
X226750000Y-112250000D03*
D10*
X214250000Y-105000000D03*
X215210000Y-105000000D03*
D16*
X213000000Y-96876000D03*
X213500000Y-96876000D03*
X214000000Y-96876000D03*
X214500000Y-96876000D03*
X215000000Y-96876000D03*
X215500000Y-96876000D03*
X216000000Y-96876000D03*
X216500000Y-96876000D03*
X217000000Y-96876000D03*
X217500000Y-96876000D03*
X218000000Y-96876000D03*
X218500000Y-96876000D03*
X219000000Y-96876000D03*
X219500000Y-96876000D03*
X220000000Y-96876000D03*
X220000000Y-91000000D03*
X219500000Y-91000000D03*
X219000000Y-91000000D03*
X218500000Y-91000000D03*
X218000000Y-91000000D03*
X217500000Y-91000000D03*
X217000000Y-91000000D03*
X216500000Y-91000000D03*
X216000000Y-91000000D03*
X215500000Y-91000000D03*
X215000000Y-91000000D03*
X214500000Y-91000000D03*
X214000000Y-91000000D03*
X213500000Y-91000000D03*
X213000000Y-91000000D03*
D17*
X208600000Y-111000000D03*
X210250000Y-111000000D03*
D12*
X223230000Y-114250000D03*
X224250000Y-114250000D03*
D18*
X226750000Y-114250000D03*
X225730000Y-114250000D03*
D10*
X214210000Y-103750000D03*
X215170000Y-103750000D03*
D19*
X218250000Y-108575000D03*
X218250000Y-106925000D03*
D20*
X210500000Y-114805000D03*
X211300000Y-114805000D03*
D21*
X212500000Y-114805000D03*
X213500000Y-114805000D03*
X214000000Y-114805000D03*
X215000000Y-114805000D03*
D20*
X216200000Y-114805000D03*
X217000000Y-114805000D03*
X217000000Y-114805000D03*
X216200000Y-114805000D03*
D21*
X215500000Y-114805000D03*
X214500000Y-114805000D03*
X213000000Y-114805000D03*
X212000000Y-114805000D03*
D20*
X211300000Y-114805000D03*
X210500000Y-114805000D03*
D18*
X211760000Y-112500000D03*
X210740000Y-112500000D03*
D22*
X201700000Y-111900000D03*
X204000000Y-111900000D03*
D23*
X204000000Y-105600000D03*
D22*
X206300000Y-111900000D03*
D15*
X213440000Y-99500000D03*
X212480000Y-99500000D03*
D10*
X209710000Y-100500000D03*
X210670000Y-100500000D03*
D19*
X216000000Y-108650000D03*
X216000000Y-107000000D03*
D10*
X221020000Y-114250000D03*
X221980000Y-114250000D03*
D24*
X211100000Y-69430000D03*
X211100000Y-70830000D03*
X211100000Y-72230000D03*
X212500000Y-69430000D03*
X212500000Y-70830000D03*
X212500000Y-72230000D03*
X213900000Y-69430000D03*
X213900000Y-70830000D03*
X213900000Y-72230000D03*
D25*
X205250000Y-63110000D03*
X205250000Y-64380000D03*
X205250000Y-65650000D03*
X205250000Y-66920000D03*
X205250000Y-68190000D03*
X205250000Y-69460000D03*
X205250000Y-70730000D03*
X205250000Y-72000000D03*
X205250000Y-73270000D03*
X205250000Y-74540000D03*
X205250000Y-75810000D03*
X205250000Y-77080000D03*
X205250000Y-78350000D03*
X205250000Y-79620000D03*
D26*
X207015000Y-80870000D03*
X208285000Y-80870000D03*
X209555000Y-80870000D03*
X210825000Y-80870000D03*
X212095000Y-80870000D03*
X213365000Y-80870000D03*
X214635000Y-80870000D03*
X215905000Y-80870000D03*
X217175000Y-80870000D03*
X218445000Y-80870000D03*
X219715000Y-80870000D03*
X220985000Y-80870000D03*
D25*
X222750000Y-79620000D03*
X222750000Y-78350000D03*
X222750000Y-77080000D03*
X222750000Y-75810000D03*
X222750000Y-74540000D03*
X222750000Y-73270000D03*
X222750000Y-72000000D03*
X222750000Y-70730000D03*
X222750000Y-69460000D03*
X222750000Y-68190000D03*
X222750000Y-66920000D03*
X222750000Y-65650000D03*
X222750000Y-64380000D03*
X222750000Y-63110000D03*
D14*
X215670000Y-88500000D03*
X214020000Y-88500000D03*
D27*
X201750000Y-64250000D03*
X201750000Y-63290000D03*
D28*
X215210000Y-102000000D03*
X213085000Y-102000000D03*
D13*
X226750000Y-119875000D03*
X220750000Y-119875000D03*
X226750000Y-116125000D03*
X220750000Y-116125000D03*
D10*
X214480000Y-100500000D03*
X215440000Y-100500000D03*
M02*
